<?xml version="1.0" encoding="utf-8"?>
<!-- Generator: Adobe Illustrator 23.0.4, SVG Export Plug-In . SVG Version: 6.00 Build 0)  -->
<svg version="1.1" id="图层_1" xmlns="http://www.w3.org/2000/svg" xmlns:xlink="http://www.w3.org/1999/xlink" x="0px" y="0px"
	 viewBox="0 0 669.7 1357.7" style="enable-background:new 0 0 669.7 1357.7;" xml:space="preserve">
<style type="text/css">
	.st0{fill:#818181;}
	.st1{fill:#A2A2A2;}
	.st2{fill:#5C5C5C;}
	.st3{fill:#393939;}
	.st4{fill:#F1F1F1;}
	.st5{fill:#FFFFFF;}
	.st6{fill:#D2D2D2;}
	.st7{fill:#C1C1C1;}
</style>
<title>资源 1</title>
<path class="st0" d="M649,916.5c0.1,52.1-13,103.3-37.9,149c-1.8,3.1-3.5,6.2-5.3,9.3c-1.6-14.4-4.5-28.6-8.7-42.5
	c-1.7-5.9-3.6-11.7-5.8-17.4c-21.7-57-63.5-104.1-117.5-132.4c32.1-63.6,54.8-131.5,67.4-201.6C609.8,740,649.2,826.1,649,916.5"/>
<path class="st0" d="M195.9,882.6l-2.2,1.2c-72,38.5-120.5,109.9-129.8,191c-4.2-7.2-8.3-14.7-11.9-22.2c-1.1-2.4-2.3-4.8-3.3-7.1
	C-6.5,924.6,21.4,782,117.9,690.6c3.4-3.3,7-6.6,10.6-9.7c2.8,15.8,6.2,31.5,10.1,47.1c10,40.4,23.3,79.9,40,118l0.2,0.6
	C184.3,858.7,189.9,870.7,195.9,882.6"/>
<path class="st1" d="M540.7,700.3c-0.6,2.8-1.2,5.7-1.8,8.5c50.2,79,62.1,176.4,32.4,265.1c7.9,13,14.7,26.8,20.1,41.1
	c2.2,5.7,4.1,11.5,5.8,17.4c0.9,2.9,1.7,5.8,2.4,8.7c0.3-0.5,0.5-1,0.8-1.6c2.5,5.9,4.8,11.8,6.8,18c1.6-3,3.1-6,4.6-9
	c1.3,3,2.5,6,3.6,9c22.2-43.7,33.7-92,33.6-141c0-31.8-4.8-63.5-14.4-93.8c-4.2-13.4-9.4-26.5-15.4-39.2
	c-14-20.6-30.4-39.5-48.8-56.2c-8.2-9-16.9-17.5-26.1-25.5l-0.3,1.7C542.9,702.3,541.8,701.3,540.7,700.3"/>
<path class="st2" d="M111.8,696.6c-23.3,23.3-42.8,50.2-57.7,79.6c-38.6,82.6-39,177.9-1.3,260.8c0.3-1.9,0.7-3.8,1-5.7
	c3.1,9,6.6,17.8,10.5,26.4c2.6-16.6,6.8-32.8,12.7-48.5c-13.3-88.9,12.5-179.2,70.7-247.7c-5.7-19.2-10.6-38.5-14.8-58
	c-0.5,0.4-0.9,0.9-1.4,1.3l-1.4,1.4c-0.4,0.4-0.9,0.9-1.3,1.3l-0.5,0.5c-1.9-7.4-3.8-14.8-5.4-22.2c-1.7,1.5-3.4,3.1-5,4.7
	C115.8,692.6,113.8,694.6,111.8,696.6"/>
<path class="st3" d="M620.4,1089.5c-8.1,8.1-21.2,8.1-29.2,0c-3.3-3.3-5.4-7.6-5.9-12.3c-9.4-80.5-60.6-150.1-134.7-182.9
	c-10.4-4.6-15.2-16.8-10.6-27.3s16.8-15.2,27.3-10.6l0,0c67.6,29.9,119.9,86.2,145,155.7c42.3-121.6-0.4-256.5-104.9-331.7
	c-9.3-6.7-11.4-19.6-4.7-28.9c6.7-9.3,19.6-11.4,28.9-4.7C671,747.2,711,937.4,623.6,1085.4C622.7,1086.9,621.7,1088.3,620.4,1089.5
	z"/>
<path class="st3" d="M78.5,1089.5c-8.1,8.1-21.1,8.1-29.2,0c0,0,0,0,0,0c-1.2-1.2-2.3-2.6-3.2-4.1c-87.4-148-47.4-338.2,92.2-438.6
	c9.3-6.6,22.2-4.3,28.8,5c6.5,9.2,4.4,21.9-4.7,28.6C57.9,755.6,15.2,890.5,57.5,1012.2c25-69.5,77.4-125.8,145-155.7
	c10.4-4.6,22.6,0.1,27.3,10.6s-0.1,22.6-10.6,27.3c-74.1,32.8-125.4,102.4-134.7,182.9C83.9,1081.9,81.9,1086.2,78.5,1089.5z"/>
<path class="st4" d="M553.3,547.7c0.1,118.6-28.2,235.6-82.5,341.1H199C54.7,608.4,100,255.7,334.9,20.6
	C480.4,166.2,553.3,357,553.3,547.7"/>
<path class="st5" d="M473.2,209.4h0.3c54.3,105.5,82.5,222.4,82.4,341c0.1,7.1-0.3,14.2-0.4,21.2l-0.2,1.2
	c-0.6,21.5-2.1,42.9-4.6,64.2l-0.4,2.7c-4.2,35.4-11,70.5-20.2,104.9c-0.3,1-0.7,2.1-0.9,3.2c-5.7,20.8-12.3,41.2-19.8,61.6
	l-0.4,1.1c-5,13.4-10.5,26.8-16.3,40l-0.4,0.8c-13.4,30.5-28.9,60-46.3,88.4c-6.5,10.8-13.5,21.3-20.5,31.8H311
	c22.5-26.1,43.1-53.7,61.8-82.7c20.9-32.6,39.3-66.8,54.9-102.2l0.4-0.8c5.8-13.2,11.3-26.6,16.2-40l0.4-1.1
	c7.6-20.3,14.1-40.8,19.8-61.6c0.3-1,0.7-2.1,0.9-3.2c9.3-34.5,16.1-69.5,20.3-105l0.4-2.7c2.5-21.3,4-42.7,4.7-64.2l0.1-1.2
	c0.1-7,0.5-14.1,0.5-21.1c0.1-118.6-28.2-235.6-82.5-341h-0.3c-21.2-41.3-46.3-80.6-74.9-117.1c1.2-1.4,2.6-2.8,3.9-4.1
	C392.1,78,437.9,140.7,473.2,209.4"/>
<path class="st6" d="M340.5,147.5C177.6,363.1,144.1,645.5,240.2,888.4H203C83.1,655.5,91,374.1,226.5,147.5H340.5"/>
<path class="st0" d="M444.3,159.7l-9.4,5.7H234.8l-9.4-5.7c30.8-50.5,67.6-97.2,109.4-139C376.7,62.5,413.5,109.2,444.3,159.7"/>
<path class="st7" d="M347.8,33.9c1.4,1.5,2.8,3,4.2,4.5l0.2,0.2c-1.1-1.2-2.3-2.5-3.5-3.7L347.8,33.9 M347.2,33.3l0.4,0.4
	L347.2,33.3 M268.2,97c-5.6,7.4-11.1,14.9-16.4,22.5c-0.1,0.1-0.1,0.2-0.2,0.3l-0.4,0.6c-6.1,8.7-11.9,17.4-17.6,26.2l0,0
	C244.4,129.7,255.9,113.2,268.2,97"/>
<path class="st2" d="M334.9,20.7C311,44.6,288.7,70.1,268.2,97c-12.3,16.2-23.8,32.7-34.6,49.6l1.6,0.9h105.4
	c16.3-21.5,33.7-42.2,52.1-61.9c-4.4-5.5-8.8-11-13.4-16.5c-8.8-10.4-17.9-20.7-27.3-30.8c-1.4-1.5-2.8-3-4.2-4.5l-0.1-0.2l-0.4-0.4
	C343.1,29,339,24.8,334.9,20.7"/>
<polygon class="st4" points="438.2,971.5 231.5,971.5 210.8,888.8 458.9,888.8 "/>
<path class="st0" d="M448.6,444.4c0,62.8-50.9,113.7-113.7,113.7s-113.7-50.9-113.7-113.7c0-62.8,50.9-113.7,113.7-113.7l0,0
	C397.6,330.7,448.5,381.6,448.6,444.4L448.6,444.4L448.6,444.4"/>
<path class="st2" d="M253.7,375.7c-37.9,37.9-37.9,99.4,0,137.3c24.4,24.4,59.9,34,93.3,25.3c-51.9-13.6-82.9-66.6-69.3-118.5
	c8.9-33.9,35.4-60.5,69.3-69.3c-8-2.1-16.3-3.1-24.6-3.1C296.7,347.3,272,357.5,253.7,375.7"/>
<path class="st3" d="M449.5,179.9c-3.9,3.9-9.1,6.1-14.6,6.1H226.4c-11.4,0-20.7-9.3-20.7-20.7c0-11.4,9.3-20.7,20.7-20.7h208.6
	c11.4,0,20.7,9.3,20.7,20.7C455.6,170.8,453.4,176.1,449.5,179.9L449.5,179.9z"/>
<path class="st3" d="M485.4,903.5c-3.9,3.9-9.1,6-14.6,6H199c-7.7,0-14.8-4.3-18.4-11.2c-124.4-241.7-110.8-534,35.5-762.8
	c30-46.7,64.9-90.1,104.2-129.4c8.1-8.1,21.1-8.1,29.2,0l0,0c21.1,21.1,41,43.4,59.4,66.8c106.4,134.3,165,302.9,165,474.9
	c0,121.9-29.1,242.1-84.8,350.6C488.1,900.2,486.9,901.9,485.4,903.5z M211.8,868.2H458c49-99.7,74.5-209.3,74.6-320.4
	c0-162.6-55.4-322.2-156.1-449.3c-12.8-16.3-26.7-32.5-41.6-48.2c-31.3,33.1-59.4,69.1-84,107.4
	C114.7,370.7,100.1,641.7,211.8,868.2L211.8,868.2z"/>
<path class="st5" d="M349.5,428c-3.9,3.9-9.1,6.1-14.6,6c-5.7,0-10.3,4.6-10.3,10.3c0,11.4-9.3,20.7-20.7,20.7
	c-11.4,0-20.7-9.3-20.7-20.7c0-28.5,23.2-51.6,51.7-51.7c11.4,0,20.7,9.3,20.7,20.7C355.5,418.9,353.3,424.1,349.5,428z"/>
<polygon class="st6" points="249.9,895.3 268.9,971.8 237.5,971.8 218.1,893.5 "/>
<path class="st3" d="M452.8,986.1c-3.9,3.9-9.1,6-14.6,6H231.6c-9.5,0-17.7-6.5-20.1-15.7l-20.7-82.7c-2.8-11.1,3.9-22.3,15-25.1
	c1.6-0.4,3.3-0.6,5-0.6h248c11.4,0,20.7,9.2,20.7,20.6c0,1.7-0.2,3.4-0.6,5l-20.7,82.7C457.3,980.1,455.5,983.4,452.8,986.1z
	 M247.7,950.8h174.4l10.3-41.3H237.3L247.7,950.8z"/>
<path class="st0" d="M334.9,702.8L334.9,702.8c-21.7,0-39.3,17.6-39.3,39.3c0,0,0,0,0,0c0,0.7,0,1.3,0,2l17.6,351.5
	c0.6,12,10.9,21.2,22.8,20.6c11.1-0.6,20-9.5,20.6-20.6l17.6-351.5c1.1-21.7-15.6-40.2-37.3-41.2
	C336.2,702.8,335.5,702.8,334.9,702.8z"/>
<path class="st3" d="M364.9,1124.5c-16.6,16.6-43.4,16.6-60,0c-7.4-7.4-11.8-17.4-12.4-27.9L275,745.1
	c-1.7-33.1,23.8-61.3,56.9-62.9c1,0,2-0.1,3-0.1l0,0c33.1,0,60,26.9,60,60l0,0c0,1,0,2-0.1,3l-17.6,351.5
	C376.7,1107.1,372.3,1117,364.9,1124.5z M321.7,728.9l-0.3,0.3c-3.5,3.7-5.4,8.7-5.1,13.8l17.6,351.5c0,0.6,0.5,1,1.1,1
	c0.6,0,1-0.4,1-1L353.5,743c0.5-10.3-7.4-19-17.7-19.6c0,0,0,0,0,0c-0.3,0-0.6,0-0.9,0l0,0C329.9,723.4,325.2,725.4,321.7,728.9z"/>
<path class="st3" d="M429.8,539.4c-52.5,52.4-137.5,52.3-189.9-0.2s-52.3-137.5,0.2-189.9S377.6,297,430,349.5
	c25.1,25.2,39.2,59.3,39.2,94.9C469.2,480,455.1,514.2,429.8,539.4z M269.1,378.6c-36.3,36.3-36.3,95.2,0,131.5s95.2,36.3,131.5,0
	s36.3-95.2,0-131.5c-17.4-17.4-41.1-27.2-65.8-27.2C310.2,351.4,286.5,361.2,269.1,378.6z"/>
</svg>
