<svg xmlns="http://www.w3.org/2000/svg" viewBox="0 0 669.73 1357.71"><defs><style>.cls-1{fill:#febd7d;}.cls-2{fill:#ffe5b9;}.cls-3{fill:#ffc675;}.cls-4{fill:#2d3666;}.cls-5{fill:#2c97f7;}.cls-6{fill:#48befe;}.cls-7{fill:#1d64e0;}.cls-8{fill:#e8f3ff;}.cls-9{fill:#fff;}.cls-10{fill:#b8daf2;}.cls-11{fill:#8cd5e6;}</style></defs><title>资源 2</title><g id="图层_2" data-name="图层 2"><g id="图层_1-2" data-name="图层 1"><path class="cls-1" d="M417.79,1101.57a199.39,199.39,0,0,1-82.92,212.75,199.64,199.64,0,0,1-83-212.58A213.63,213.63,0,0,0,330.63,1206a7.42,7.42,0,0,0,8.49,0,213.16,213.16,0,0,0,78.67-104.43"/><path class="cls-1" d="M416.23,1090.37A209.26,209.26,0,0,1,339,1192.85a7.31,7.31,0,0,1-8.34,0,209.75,209.75,0,0,1-77.28-102.31,195.15,195.15,0,0,0-5.43,46.11c0,4.45.17,8.87.46,13.24-.28,4.36-.46,8.75-.46,13.17a195.25,195.25,0,0,0,86.88,162.48,195.23,195.23,0,0,0,86.88-162.48c0-4.41-.18-8.77-.47-13.11.3-4.4.47-8.83.47-13.3a195.55,195.55,0,0,0-5.52-46.28"/><path class="cls-2" d="M245.76,1153.91a214,214,0,0,0-5.9,50.42c0,3.4.07,6.71.15,10a244,244,0,0,0,94.88,122.45,248.34,248.34,0,0,0,36.88-30.35,243.94,243.94,0,0,0,58-92.25c.07-3.32.15-6.63.15-9.87a218.74,218.74,0,0,0-6.05-50.58c-.18.54-.37,1.08-.56,1.62a199.92,199.92,0,0,1-2.21,23.81,195.84,195.84,0,0,1-86.22,146.35,195.33,195.33,0,0,1-86.22-146.37,201.67,201.67,0,0,1-2.19-23.28c-.24-.66-.47-1.32-.7-2"/><path class="cls-3" d="M423.3,1155.38c-.52,1.45-1,2.89-1.59,4.32v3.36q0,8.14-.66,16.13a199.72,199.72,0,0,0,2.21-23.81m-176.84.51a201.67,201.67,0,0,0,2.19,23.28c-.44-5.31-.66-10.69-.66-16.11v-3q-.8-2.08-1.56-4.2"/><path class="cls-3" d="M248,1160.09v3c0,5.42.22,10.8.66,16.11a195.33,195.33,0,0,0,86.22,146.37,195.84,195.84,0,0,0,86.22-146.35q.66-8,.66-16.13v-3.36a230,230,0,0,1-82.25,106,7.85,7.85,0,0,1-9.15,0A229.44,229.44,0,0,1,248,1160.09"/><path class="cls-4" d="M385.32,1322.21a259,259,0,0,1-39,32,20.63,20.63,0,0,1-23,0,257.06,257.06,0,0,1-106.86-273.74,20.67,20.67,0,0,1,40.17,9.76,215.75,215.75,0,0,0,78.19,221.38A215.46,215.46,0,0,0,412.92,1090a20.67,20.67,0,0,1,40-10.59c.07.27.14.55.2.82a256.8,256.8,0,0,1-67.81,242Z"/><path class="cls-5" d="M649,916.52a309.91,309.91,0,0,1-37.93,149q-2.64,4.65-5.27,9.3a243.09,243.09,0,0,0-8.68-42.48c-1.66-5.89-3.62-11.68-5.8-17.36a249.7,249.7,0,0,0-117.51-132.4,735.62,735.62,0,0,0,67.39-201.64A310,310,0,0,1,649,916.52"/><path class="cls-5" d="M195.86,882.62l-2.17,1.24a248.83,248.83,0,0,0-129.82,191c-4.23-7.23-8.27-14.67-11.88-22.22-1.14-2.38-2.28-4.75-3.31-7.13a311,311,0,0,1,69.24-354.92c3.42-3.31,7-6.62,10.65-9.71,2.79,15.8,6.2,31.52,10.13,47.12a734.78,734.78,0,0,0,40,118l.2.62c5.38,12.1,11,24.09,17,36"/><path class="cls-6" d="M540.65,700.27c-.58,2.84-1.18,5.67-1.8,8.51A311,311,0,0,1,571.3,973.93,247.24,247.24,0,0,1,591.39,1015c2.18,5.68,4.14,11.47,5.8,17.36q1.29,4.3,2.42,8.66c.26-.52.52-1,.79-1.56,2.5,5.87,4.81,11.85,6.85,18,1.62-3,3.07-6,4.59-9q1.89,4.46,3.6,9A309.94,309.94,0,0,0,649,916.52a313.15,313.15,0,0,0-14.37-93.85,307,307,0,0,0-15.41-39.23,313.31,313.31,0,0,0-48.84-56.2,314.32,314.32,0,0,0-26.11-25.51l-.34,1.69q-1.65-1.56-3.31-3.11"/><path class="cls-7" d="M111.77,696.57a304.2,304.2,0,0,0-59,340.46c.3-1.92.69-3.8,1-5.7,3.14,9,6.61,17.8,10.54,26.37A251.67,251.67,0,0,1,77,1009.13a311.53,311.53,0,0,1,70.72-247.69q-8.56-28.74-14.78-58c-.46.44-.91.89-1.36,1.34l-1.39,1.4c-.43.44-.86.88-1.3,1.31l-.54.54c-1.92-7.37-3.76-14.75-5.44-22.15-1.69,1.55-3.36,3.13-5,4.7q-3.1,3-6.15,6"/><path class="cls-4" d="M620.43,1089.48a20.67,20.67,0,0,1-35.15-12.28A228.94,228.94,0,0,0,450.55,894.28a20.67,20.67,0,0,1,16.68-37.83,270.75,270.75,0,0,1,145,155.69A291,291,0,0,0,507.29,680.4a20.67,20.67,0,0,1,24.14-33.57C671,747.16,711,937.38,623.59,1085.39A20.59,20.59,0,0,1,620.43,1089.48Z"/><path class="cls-4" d="M78.54,1089.48a20.66,20.66,0,0,1-29.22,0,20.38,20.38,0,0,1-3.18-4.1c-87.36-148-47.39-338.23,92.16-438.56a20.67,20.67,0,0,1,24.15,33.55A291,291,0,0,0,57.5,1012.16a270.54,270.54,0,0,1,145-155.71,20.67,20.67,0,1,1,16.68,37.83A229,229,0,0,0,84.46,1077.19,20.59,20.59,0,0,1,78.54,1089.48Z"/><path class="cls-8" d="M553.26,547.73A744.36,744.36,0,0,1,470.78,888.8H199C54.67,608.4,100,255.65,334.87,20.62,480.39,166.16,553.26,357,553.26,547.73"/><path class="cls-9" d="M473.23,209.44h.29a743.94,743.94,0,0,1,82.44,341c.07,7.09-.29,14.18-.44,21.2l-.15,1.16q-.87,32.25-4.6,64.24l-.37,2.71a737.47,737.47,0,0,1-20.24,104.88c-.29,1-.65,2.11-.88,3.21-5.7,20.76-12.27,41.22-19.8,61.61l-.37,1.1c-5,13.37-10.45,26.82-16.29,40l-.37.8a740.93,740.93,0,0,1-46.26,88.38c-6.51,10.75-13.45,21.35-20.54,31.79H311a734.69,734.69,0,0,0,61.75-82.66,749.93,749.93,0,0,0,54.89-102.25l.36-.8c5.78-13.23,11.26-26.6,16.23-40l.36-1.1c7.6-20.31,14.11-40.85,19.81-61.6.29-1,.66-2.13.88-3.22A727.15,727.15,0,0,0,485.55,575l.37-2.71q3.72-32,4.67-64.17l.07-1.24c.15-7,.52-14.1.52-21.12a743.64,743.64,0,0,0-82.51-341.08h-.3A729.94,729.94,0,0,0,333.47,27.5c1.24-1.39,2.62-2.78,3.94-4.09a743.45,743.45,0,0,1,135.82,186"/><path class="cls-10" d="M340.52,147.53C177.61,363.13,144.15,645.47,240.24,888.38H203C83.09,655.5,91,374.05,226.47,147.53h114"/><path class="cls-5" d="M444.32,159.65l-9.4,5.69H234.82l-9.4-5.68a744.5,744.5,0,0,1,109.45-139,744.5,744.5,0,0,1,109.45,139"/><path class="cls-11" d="M347.76,33.85c1.43,1.5,2.84,3,4.25,4.5l.23.24c-1.15-1.22-2.3-2.45-3.46-3.66l-1-1.08m-.56-.58.42.43-.42-.43M268.22,97q-8.46,11.13-16.45,22.49a2.83,2.83,0,0,0-.2.28l-.43.6q-9.09,13-17.57,26.23h0Q249.76,121.24,268.18,97"/><path class="cls-7" d="M334.88,20.66A754.91,754.91,0,0,0,268.17,97q-18.44,24.26-34.61,49.62l1.64.92H340.58a771.09,771.09,0,0,1,52.11-61.9q-6.54-8.31-13.38-16.49Q366.16,53.47,352,38.35c-1.41-1.5-2.82-3-4.25-4.5l-.14-.15-.42-.43q-6.07-6.36-12.32-12.61"/><polygon class="cls-8" points="438.22 971.51 231.51 971.51 210.84 888.82 458.9 888.82 438.22 971.51"/><path class="cls-5" d="M448.56,444.4A113.69,113.69,0,1,1,334.85,330.73h0A113.69,113.69,0,0,1,448.56,444.4v0"/><path class="cls-7" d="M253.73,375.73A97.07,97.07,0,0,0,347,538.27,97.07,97.07,0,0,1,347,350.45a100.37,100.37,0,0,0-24.58-3.12,96.74,96.74,0,0,0-68.66,28.4"/><path class="cls-4" d="M449.55,179.91A20.56,20.56,0,0,1,434.93,186H226.36a20.67,20.67,0,0,1,0-41.34H434.93a20.67,20.67,0,0,1,14.62,35.28Z"/><path class="cls-4" d="M485.36,903.44a20.69,20.69,0,0,1-14.61,6H199a20.66,20.66,0,0,1-18.38-11.21C56.2,656.56,69.79,364.28,216.11,135.46A771.17,771.17,0,0,1,320.28,6.06a20.64,20.64,0,0,1,29.2,0l0,0A751.84,751.84,0,0,1,409,72.87C515.33,207.14,574,375.81,574,547.75a767.66,767.66,0,0,1-84.81,350.56A20.51,20.51,0,0,1,485.36,903.44Zm-273.61-35.3H458a726.62,726.62,0,0,0,74.56-320.41c0-162.65-55.44-322.21-156.1-449.27C363.65,82.12,349.72,66,334.89,50.3a728.45,728.45,0,0,0-84,107.42C114.77,370.64,100.12,641.73,211.75,868.14Z"/><path class="cls-9" d="M349.49,428a20.62,20.62,0,0,1-14.62,6,10.35,10.35,0,0,0-10.34,10.34,20.67,20.67,0,0,1-41.34,0,51.73,51.73,0,0,1,51.68-51.62A20.68,20.68,0,0,1,349.49,428Z"/><polygon class="cls-10" points="249.86 895.32 268.88 971.82 237.49 971.77 218.05 893.46 249.86 895.32"/><path class="cls-4" d="M452.84,986.09a20.62,20.62,0,0,1-14.62,6H231.55a20.67,20.67,0,0,1-20.05-15.65l-20.69-82.66a20.66,20.66,0,0,1,15-25.07,20.89,20.89,0,0,1,5-.62h248a20.66,20.66,0,0,1,20.06,25.68l-20.68,82.67A20.7,20.7,0,0,1,452.84,986.09ZM247.68,950.8H422.09l10.34-41.31H237.34Z"/><path class="cls-5" d="M334.87,702.78h0a39.33,39.33,0,0,0-39.33,39.33c0,.66,0,1.31,0,2l17.58,351.49a21.73,21.73,0,0,0,43.4,0l17.58-351.49a39.33,39.33,0,0,0-37.32-41.24C336.18,702.8,335.52,702.78,334.87,702.78Z"/><path class="cls-4" d="M364.87,1124.46a42.41,42.41,0,0,1-72.35-27.86L275,745.11a60,60,0,0,1,56.93-62.92c1-.05,2-.08,3-.08h0a60,60,0,0,1,60,60c0,1,0,2-.08,3L377.22,1096.6A42.31,42.31,0,0,1,364.87,1124.46ZM321.68,728.91l-.33.35A18.52,18.52,0,0,0,316.24,743l17.57,351.49a1.07,1.07,0,0,0,1.07,1,1,1,0,0,0,1-1L353.45,743a18.64,18.64,0,0,0-17.69-19.56c-.31,0-.62,0-.94,0h0A18.58,18.58,0,0,0,321.68,728.91Z"/><path class="cls-4" d="M429.83,539.36a134.25,134.25,0,1,1,39.4-95A134.24,134.24,0,0,1,429.83,539.36ZM269.1,378.62a93,93,0,1,0,65.77-27.24A93,93,0,0,0,269.1,378.62Z"/></g></g></svg>