<?xml version="1.0" encoding="utf-8"?>
<!-- Generator: Adobe Illustrator 23.0.4, SVG Export Plug-In . SVG Version: 6.00 Build 0)  -->
<svg version="1.1" id="图层_1" xmlns="http://www.w3.org/2000/svg" xmlns:xlink="http://www.w3.org/1999/xlink" x="0px" y="0px"
	 viewBox="0 0 3224.5 3597.4" style="enable-background:new 0 0 3224.5 3597.4;" xml:space="preserve">
<style type="text/css">
	.st0{fill:#FFFFFF;}
	.st1{fill:#818181;}
	.st2{fill:#242424;}
	.st3{fill:#FEFEFE;}
	.st4{fill:#CAD7CE;}
	.st5{fill:#CBD8CF;}
	.st6{fill:#CAD8CF;}
	.st7{fill:#80A08B;}
	.st8{fill:#809F8A;}
	.st9{fill:#839D8C;}
	.st10{fill:#7B9C86;}
	.st11{fill:#7E9E89;}
	.st12{fill:#9FB7A7;}
	.st13{fill:#9EB6A6;}
	.st14{fill:#9DB5A5;}
	.st15{fill:#7D9D88;}
	.st16{fill:#C7D5CB;}
	.st17{fill:#7D9E88;}
	.st18{fill:#C9D7CE;}
	.st19{fill:#CCD9D0;}
	.st20{fill:#58665C;}
	.st21{fill:#C9D6CE;}
	.st22{fill:#85A490;}
	.st23{fill:#7B9C87;}
	.st24{fill:#789983;}
	.st25{fill:#6F937C;}
	.st26{fill:#7C9D87;}
	.st27{fill:#69776D;}
	.st28{fill:#181818;}
	.st29{fill:#7C9C87;}
	.st30{fill:#1E1E1E;}
	.st31{fill:#809F8B;}
	.st32{fill:#343434;}
	.st33{fill:#111111;}
	.st34{fill:#020202;}
	.st35{fill:#252525;}
	.st36{fill:#87A591;}
	.st37{fill:#969595;}
	.st38{fill:#939292;}
	.st39{fill:#CEDAD2;}
	.st40{fill:#69786E;}
	.st41{fill:#6F927B;}
	.st42{fill:#818080;}
	.st43{fill:#727D76;}
	.st44{fill:#CFDBD3;}
	.st45{fill:#5A6D60;}
	.st46{fill:#CEDBD2;}
	.st47{fill:#3A3A3A;}
	.st48{fill:#8F9F95;}
	.st49{fill:#D1DDD5;}
	.st50{fill:#B4B6B5;}
	.st51{fill:#AFAEAE;}
	.st52{fill:#939392;}
	.st53{fill:#89918B;}
	.st54{fill:#B0C4B7;}
	.st55{fill:#92AC9B;}
	.st56{fill:#A3B3A8;}
	.st57{fill:#484747;}
	.st58{fill:#6F7A72;}
	.st59{fill:#414541;}
	.st60{fill:#727C74;}
	.st61{fill:#9FAAA2;}
	.st62{fill:#6C6B6B;}
	.st63{fill:#9DB6A6;}
	.st64{fill:#99B3A2;}
	.st65{fill:#B8BDB9;}
	.st66{fill:#7F9E89;}
	.st67{fill:#A1B9A9;}
	.st68{fill:#2D2D2D;}
	.st69{fill:#A2B9AA;}
	.st70{fill:#D6E0D9;}
	.st71{fill:#9AB3A3;}
	.st72{fill:#9EB5A6;}
	.st73{fill:#62816D;}
	.st74{fill:#8E8E8E;}
	.st75{fill:#A4BBAC;}
	.st76{fill:#9EB7A7;}
	.st77{fill:#9FB7A8;}
	.st78{fill:#B6B6B6;}
	.st79{fill:#BACBC0;}
	.st80{fill:#B2C6B9;}
	.st81{fill:#65786D;}
	.st82{fill:#5B6464;}
	.st83{fill:#AFC3B7;}
	.st84{fill:#BBC0BC;}
	.st85{fill:#838282;}
	.st86{fill:#B2B1B1;}
	.st87{fill:#A0B6A7;}
	.st88{fill:#6B6B6B;}
	.st89{fill:#95B0A0;}
	.st90{fill:#D5DFD8;}
	.st91{fill:#D9DBDA;}
	.st92{fill:#AFC4B7;}
	.st93{fill:#999595;}
	.st94{fill:#B7CABE;}
	.st95{fill:#B3B8B4;}
	.st96{fill:#6D7676;}
	.st97{fill:#A3BBAC;}
	.st98{fill:#8C8989;}
	.st99{fill:#ACB2AE;}
	.st100{fill:#A6BDAF;}
	.st101{fill:#BBB9B9;}
	.st102{fill:#323939;}
	.st103{fill:#BFBFBF;}
	.st104{fill:#C3C7C4;}
	.st105{fill:#C2CCC2;}
	.st106{fill:#C4C7C3;}
	.st107{fill:#ACABAB;}
	.st108{fill:#FDFDFD;}
	.st109{fill:#AAA8A8;}
	.st110{fill:#5B5F5F;}
	.st111{fill:#7C9D88;}
	.st112{fill:#B0B1B0;}
	.st113{fill:#B9BDBA;}
	.st114{fill:#E8EDEB;}
	.st115{fill:#B3C7BA;}
	.st116{fill:#F9FAFA;}
	.st117{fill:#B4B2B1;}
	.st118{fill:#CCD9D1;}
	.st119{fill:#FDFEFD;}
	.st120{fill:#FAFBFB;}
	.st121{fill:#F1F3F2;}
	.st122{fill:#AFB3B0;}
	.st123{fill:#7F9F8A;}
	.st124{fill:#C9D6CD;}
	.st125{fill:#CBD8D0;}
	.st126{fill:#D2DBD4;}
	.st127{fill:#9AB4A4;}
	.st128{fill:#FCFDFD;}
	.st129{fill:#8C958F;}
	.st130{fill:#202020;}
	.st131{fill:#909090;}
	.st132{fill:#656F68;}
	.st133{fill:#E0E7E6;}
	.st134{fill:#FBFCFC;}
	.st135{fill:#A19F9F;}
	.st136{fill:#D5E0D9;}
	.st137{fill:#535252;}
	.st138{fill:#82A18D;}
	.st139{fill:#90AC9A;}
	.st140{fill:#C3D2C9;}
	.st141{fill:#B4C7BB;}
	.st142{font-family:'AmericanTypewriter-Light';}
	.st143{font-size:324px;}
	.st144{letter-spacing:-31;}
	.st145{letter-spacing:-32;}
	.st146{letter-spacing:-24;}
	.st147{letter-spacing:-43;}
</style>
<circle class="st0" cx="1598.7" cy="1590.1" r="1590.7"/>
<title>画板 1</title>
<path class="st1" d="M2537.8,720.8c41,2,80.8-4.6,119.9-16.8c30.4-9.4,61.4-17.1,92.1-25.6v38c-43.9,8.1-88.1,13.6-132.8,14.6
	c-19.1,0.4-38.1,2.3-57.2,3.5c-2.8,0.4-5.5,0.7-8.3,0.9c-12.6,0.1-24.8,2.4-37.2,4.2c-5.5,0.8-11.2,1-16.6-1.1
	c-4.9-3.8-0.8-5.5,1.9-7c5.6-3.1,12-3.3,18.2-4.3C2524.7,725.9,2532.8,727.9,2537.8,720.8z"/>
<path class="st2" d="M1121.7,948.4l55.9-88.1c1.2-9.6,5.9-17,13.9-22.5c14.7-18.5,14.2-40.1,13-61.9c-2.2-37.6,2.1-74.3,25.4-104.7
	c19.6-25.6,48-42.5,74.6-60c18.6-12.3,39.2,0.4,42.9,22.1c0.4,2.3,1.6,4.4,2.1,6.6c1.3,5.9,6.9,12.8,2.8,17.4
	c-2.3,2.5-8.2-4.4-12-7.9c-2.9-2.6-3.8,0.7-5,2.5c-0.9,3.1-2.2,6.2-3.8,9c-3.7,6.1-3.1,12.8-2.8,19.4c1.3,29-10.7,52.3-29.8,73.1
	c-6.6,7.2-11.6,16-17,24.2c-3.5,5.3-6.2,10.9-12.1,14c-1.1,0.6-1.3,1.2-0.3,0.6c0.9-0.3,1.9-0.4,2.8-0.4c4.5,0.2,8.9-2.4,13.4,0
	c0.8,0.7,0.9,1.9,0.3,2.8c-3.2,8.3-11.9,9.2-18,13.6c-2.7,2-4.2,5.4-6.3,8.1c-7.8-3.1-14.2-1-16.5,6.9c-2.7,9.5-8.3,16.4-15.3,22.7
	c-4.4,4.6-9.4,8.5-14.8,11.9c-9,5.7-16.4,13.7-21.5,23.1c-2.6,3.8-5.5,7.5-7.7,11.5c-8.1,13.1-16.5,26.1-24.2,39.5
	c-9.9,17-19.3,34.2-28.8,51.4c-2.1,3.8-4.5,7.4-8.3,9.7c-2.2,1.3-4.2,3.9-7,1.2c-2.4-2.4-2.1-5.6-1.1-8.4c3-8.1,7.6-15.5,12-22.9
	c0.4-0.5,0.7-1.1,1-1.7c0.4-1.2,0-1.2,0,0s0-0.2-0.6,0.8c-6.8,10.5-10.7,23.2-20.6,31.5c-6.9,5.8-10.7,4.6-14.3-2.8
	c0.2-4.6,3.2-8,5.3-11.7C1106.5,968.7,1112,957,1121.7,948.4z"/>
<path class="st3" d="M1201.8,2106.5c-8.1,14.7-2.2,30.2-3.4,44.9c-3.7,49.4-11.6,99.5-43.8,139.9c-20.7,25.9-45.8,47.5-82.4,49.7
	c-13.4,0.8-25.8,9-40.5,6.4c-6.4-1.2-9.3,7.8-12.4,13c-39.8,66.7-80,133.2-106.8,206.7c-4.6,12.8-8.7,25.7-13.4,38.5
	c-0.9,2.6-1.9,6.6-5.7,5.8c-4.4-0.8-3.8-5.1-3.5-8.2c2.4-27,14.8-50.8,24.4-75.5c19-49,46.4-93.7,71.6-139.6c1.3-2.4,1.7-5.3,2.6-8
	c-1.5,2-3.2,3.9-4.5,6.1c-23.7,39-50.6,74.6-91.7,97.7c-14,7.8-25.7,19.8-38.5,29.8c-3,2.3-5.4,6.5-10.2,3.2
	c-5.4-3.7-3.3-8.4-1.4-12.4c12-24.8,22.8-50.4,40-72.1c16.9-21.3,26.8-46.5,41.1-69.3c18.2-29.1,35.6-58.8,56.7-86
	c8.3-10.6,10.6-27,23.9-32.3c18.7-7.5,25.9-26.4,41.6-36.9c10.2-6.8,5.5-22.3,12.2-32.5c13.1-20.1,24.7-41.1,38.3-61.1
	c17.7-25.9,42.1-43.3,66.5-61.3c6.3-4.6,8.9-10.8,9.2-17.9c1.4-30.6,9.6-60,15.1-89.8c3.8-20.4,16.5-38.9,21.6-59.2
	c8.7-34.6,30.3-60.4,52.8-86c2.4-2.7,4.7-5.8,9-5.6c2.1,2.2,2,4.8,1.3,7.5c-10.9,14.2-23,27.5-32.4,42.9
	c-10.8,17.7-20.6,35.5-24.5,56.3c-1.8,9.5-5,18.7-9.5,27.2c-5.5,10.7-7.8,22.5-10.6,34.1c-6.3,25.5-8.5,51.7-14.2,77.2
	c-2.6,22-20.7,29.6-36.5,39.4c-1.9,1.2-4.9,1.2-6.1,3.2c-7.6,12.6-19.2,21.9-28.3,33.3c-12.3,15.4-21.8,32.5-33.1,48.4
	c-5.2,7.3-10.4,14.7-13.2,23.4c-0.9,2.7-3,6.3-0.1,8.3c3.1,2.2,5.5-1.3,7.3-3.4c9.7-11,20.6-20.8,32.5-29.4
	c17.5-12.4,29.3-32.2,51-39.2c2.8-0.9,4.7-3.7,6.8-5.8c7.7-8,9-7.6,12.2,3.1c2.8,15-5.7,24.9-14.9,34.9c-7.8,8.5-14.4,18-22.7,26.1
	c-34.7,9.4-67,23.8-95.1,46.5c-10,8.1-17,19.5-29.4,25c-3.8,1.7-6.7,5.6-8.7,9.4c-11.2,20.9-27.2,38.6-40.2,58.3
	c-14.3,21.7-28,43.7-41.1,66.2c-2.6,4.4-4,9.1-3.4,14.3c0.6,4.6-0.1,9.1-3.8,11.8c-12.2,9.2-19.2,22.8-28.9,34.1
	c-9.4,11-15.7,24.5-21.1,38.2c-0.7,1.7-1.8,4,0.5,5.3c1.6,0.9,3.3-0.4,4.5-1.4c27.5-21.4,57.9-39.3,78.6-68.5
	c12.3-17.3,24-35,35.4-52.9c1.6-2.5,3.5-5.6,0.8-8.2c-2.7-2.6-5.6-0.8-8.3,0.7c-4.5,2.4-8,5.9-11.9,9.1c-3.3,2.8-6.7,5.5-11,6.7
	c-1.6,0.4-3.5,0.7-4.6-0.8s-0.6-3.2,0.3-4.7c2.4-4,5.7-7.5,9.5-10.2c10.8-7.8,20.6-16.9,29.2-27.1c2.6-3.1,5.7-5.7,9.1-7.7
	c18.2-10.7,34.1-24.2,49.2-38.7c4.6-4.3,9.7-8,13.6-13.2c1.8-2.5,4.6-6.7,8.4-1.5c0.6,4.8-2.4,8.3-5,11.7
	c-32.3,42.9-58.9,89.4-86,135.6c-21.9,37.3-41.3,76-58.1,115.9c-1.7,4-3.3,8-5.2,11.9c-0.4,0.9-0.7,1.8-1.7,2.2
	c1.2-0.2,1.4-1.2,1.7-2c8.2-19.3,16.4-38.6,25.6-57.4c23.3-47.9,50.6-93.6,78.6-138.9c3-4.9,4.4-11.5,11.2-13.3
	c18.6,0.4,35.5-7.7,53.5-10.4c11.1-1.7,20.9-9.6,32.4-11.9c3.5-0.7,6.2-3.8,8.5-6.7c16.3-20,34.4-38.7,45.1-62.7
	c1-2.1,2.5-4.2,2.4-6.5c-0.9-21.4,11.7-39.2,15.2-59.4c1.1-6.2,2.3-12.4,3.5-18.6c1.7-9.3-5.2-15.4-7.6-23.1
	c-1-13.3,6.8-22.4,15.2-31.1C1197.7,2106.1,1199.9,2105.6,1201.8,2106.5z"/>
<path class="st4" d="M1878,2328.5c-5.3-3.4-9.4,0.2-9.7,4.1c-1.2,17.8-18.7,23.9-26.4,37.3c-3.6,6.2-8.9,11.8-9.7,19.3
	c-0.7,6.2-2.8,11.4-8.2,13.8c-11.6,5.2-9.9,18-16,26.1c-7.8,10.3-16,20.5-24.7,30.1c-20,22.2-28.2,51.4-45.5,75.2
	c-1.7,2.4-3,6-6.6,5.1c-4.3-1-3.4-5.2-3.5-8.3c-1.3-42,11.9-79.9,31.2-116.5c4.3-8.2,2.4-19.3,5.6-28.3
	c7.3-21.1,21.4-38.9,28.9-60.5c3.8-11,22.8-16.2,30.2-29.8c7.1-12.9,15.3-25.6,25.2-36.4c15.2-16.5,30.4-33.8,52.2-42.4
	c5.1-2,8.4,1.2,10.9,4.8c5.2,7.6,1.9,14.9-1.1,22.3c-4.7,11.5-12.6,22.2-9.6,35.7c2.2,2.1,0.8,4.3-0.1,6.3
	c-6.4,13.3-13.4,26.3-19.5,39.8C1881.1,2327.6,1880.1,2328.9,1878,2328.5z"/>
<path class="st5" d="M1969.8,2157.6c7.7-18.2,15.2-36.4,23.1-54.5c1.9-4.4,6.8-6.3,10.9-5.9c7.1,0.7,11.7,6.3,14.5,12.4
	c6,13.5,8.3,27.8,7.6,42.6c-1.1,25.2-0.4,50.7-3.4,75.7c-1.6,13.1-10.2,25.3-14.4,38.3c-8.7,27.2-23.1,51.2-39.7,74.2
	c-14.6,20.3-28.4,40.9-48.2,56.6c-2.7,2.2-4.7,6.5-9.1,4.6c-5.1-2.3-2-6.8-1.1-9.6c14.5-45.3,16-93.4,30.8-138.6
	c6.7-20.4,12.2-41.1,18.1-61.7c0.5-1.7-0.5-3.8-0.8-5.8C1959.8,2175.5,1966,2167.1,1969.8,2157.6z"/>
<path class="st6" d="M2167.6,1796.3c17.8,3.7,17.8,18.5,23.2,32.2c8.5,21.8,1.6,43.6,5.6,65.3c2.8,14.9-1.9,33.2-9.1,48.7
	c-5.2,11.1-4,23.3-7.2,34.8c-0.2,0.8,0.8,2.4,0.4,2.8c-17.7,18.9-9.7,47.7-28.5,67.6c-20.8,22-38.1,47.4-63.4,65.1
	c-4.8,3.4-10.4,7.1-15.1,3.3c-4.7-3.8-0.2-9.2,2.6-13.2c21.8-30.7,28.8-65.9,34.3-102.3c2.6-17.1,2.2-36.2,10.2-51.2
	c14.1-26.1,10.4-56.7,24.8-82.5c4-7.2,2.5-17.4,3.5-26.3c-3.8,7.2-7.7,14.4-11.2,21.7c-6,12.3-11.7,24.6-17.6,36.9
	c-0.6,1.3-126.6,226.7-127.7,227.9c0.2-1.5,124.7-227.7,125.3-229c15.8-34,31.7-67.9,47.6-101.8
	C2166.1,1795.2,2166.8,1795.2,2167.6,1796.3z"/>
<path class="st7" d="M1981.2,1838.6c-7.2-29.5-5.5-59.8-7.6-89.7c-1.3-19.1-3.6-38.6,0.8-58.1c7.9-35.6,14.3-71.6,22.1-107.3
	c3.4-15.4,8.7-30.3,13.2-45.4c-2.7-3.6-0.1-6.4,1.6-9c25.9-40.3,48.4-82.5,70.4-125c1.3-2.5,1.9-6,6-5.6
	c14.1,16.4,2.3,29.1-7.8,39.5c-12,12.5-14.9,27.6-17.8,42.9c-9.5,50.6-21.2,100.6-33.1,150.7c-5,21.3-5.7,43.5-8.8,65.3
	c-5.3,38.6-10.9,77-16.4,115.6c-2.5,7.3-0.4,15-1.7,22.4c-1.1,6.6-2,12.9-9.6,14.2C1985,1850.2,1983.9,1843.4,1981.2,1838.6z"/>
<path class="st8" d="M1347.7,2350.2c1-28.3,11.8-54.4,18.4-81.5c1.6-6.7-0.8-12.4,0.5-18.9c6.5-31.1,9.9-62.9,17.5-93.7
	c5.6-22.6,9.7-44.9,9.1-68.1c-0.5-16.4,6.8-30.4,13.8-44.4c2.4-4.8,5.7-9.5,12.1-8.7c7.1,0.8,12.9,4.4,15.3,11.2
	c7,20.1,4.3,40.4,1.5,60.8c-2.9,21.6-4.5,43.3-7,64.9c-0.7,5.9-2.2,11.7-4.3,17.3c-7.4,19.2-11,39.6-15.5,59.3s-7.3,39.5-15.6,58.1
	c-10.1,22.5-19.7,45.2-29.5,67.9c-2,1.7-0.8,4.4-2.1,6.4c-2.8,4.3-6.6,6.7-11.7,5.4s-7.5-4.7-7.5-10.2
	C1342.6,2367.1,1346.8,2359,1347.7,2350.2z"/>
<path class="st9" d="M1123.7,992.3c12-20.7,24-41.3,36-62c14.6-3.8,28.7-10.2,44.4-9.6c5.3,0.2,10.6,0.1,15.8,1.3
	c7.9,1.9,11.7,11.1,6.3,17c-5.4,5.9-11.7,10.7-18.3,15.2c-0.5,0.3-1.1,0.7-1.5,1.1c0.4,1.3-1-0.2,0.3-0.1c0.7,0.1,1.5-1.2,2.3-1.8
	c11.6-7.8,21.3-17.8,30.4-28.3c3.3-3.8,6.7-7.3,11.3-9.5c3.4-1.1,7-5.6,9.8,0.8c-4.1,9.5-13.5,14.5-19.4,22.5
	c-2.7,3.7-8.6,7.6-7.2,11.1c1.3,3.2,7.8,0,12-0.4c22.5-2,44.8-6.1,67.1-10c22.1-2.6,43.8-7.4,65.8-10.5c1.3-0.2,2.5-0.9,3.9-0.9
	c2.7-0.1,6.1-0.2,6.9,2.7s-2.3,4.7-4.8,5.4c-9,2.5-17.5,6.5-26.5,8.8c-42.5,11.1-85.6,19.8-129,27.1c-2,0.3-3.9,0.7-5.9,1
	c-6.8,1.1-9.5,3.9-5.5,10.8c4.7,8.1,6.7,17.4,9.1,26.4c1.1,4.1,3.5,8.1,1.3,12.6c1.4,21.8,3.7,43.5,4,65.2
	c0.4,24.8-7.7,47.9-18.4,70.1c-2.1,5.4-5.5,9.2-11.8,7.8c-6-1.3-6.8-6.5-7.2-11.6c-0.4-5.3,0.8-10.9-1.7-16c-5.2-17.3,2.6-35-2-52.6
	c-3.6-13.8-3.8-28.4-5.5-42.7c-0.3-2.5-1.8-3.9-4-3.1c-6.7,2.4-14.2,2.7-18.2,10.5c-18.6,35.6-37.6,71-56.5,106.5
	c-2.3,4.4-4.9,8.7-7.3,13c-3.8,0.2-2.9-2-2.1-4.2c0.2-1,0.3-2.1,0.5-3.1c2.9-16.3,12.7-29.7,19.9-44.1c9.7-19.6,20.9-38.5,30.7-58
	c1.5-3,4.6-5.3-2-7.3c-6.3-1.9-1.6-6,1.2-7.5c27.2-14.6,32.7-44.6,48.2-67.5c0.6-0.9-0.8-1.5-1.8-1.8c-3.2,0.6-5.1-3.3-8.4-2.4
	c-23-0.5-41.4,12.9-61.7,20.6c-0.8-0.3-1.1-1.1-0.9-1.9C1123.3,992.7,1123.4,992.4,1123.7,992.3z"/>
<path class="st10" d="M1441.3,1187.8c16.5-20.9,15.6-47.7,24-71.3c3.5-9.9,5.7-20.3,10.6-29.8c2.2-4.3,4.8-8.3,10.2-8
	c6,0.3,5.6,6,6.9,9.7c2.4,6.6,4,13.5,5.9,20.2c4.5-5.7,9-11.3,13.4-17.1c60.7-79.1,123.6-156.1,204.9-215.6
	c13.6-10,28.3-18.4,42.5-27.5c4.2-4.1,8.8-5.6,14.2-2.1c1.1,5.4-3.4,6.7-6.7,8.4c-57.9,30.1-104.7,73.6-148.4,121.2
	c-28.2,30.7-54.7,62.7-81.4,94.6c-11.3,13.5-21.2,28.2-31.7,42.4c-4,5.4-5.7,12.2-4.7,18.9c2.2,15.5,0.7,30.7-0.5,46.3
	c-1.4,20.1-4.1,40.1-8.2,59.9c-5,23.7-9.7,47.9-21.5,69.2c-11.3,20.3-22.7,40.6-35,60.4c-1.1,1.7-2.6,3.1-4.4,4.1
	c-10.7,4.7-16.4,1-16.3-10.2c0-4.9,2.4-9.5,1.8-14.5c1.9-13.8,6.5-27,9-40.7c1-5.2,2.7-10.4,2.5-15.7c-0.9-28.5,8.6-55.3,13-83
	c0.8-5.1,3.1-10.2,0.5-15.4C1441.1,1191,1440.9,1189.4,1441.3,1187.8z"/>
<path class="st7" d="M1453.9,1872.5c-3.6,21.6-7.1,43.2-10.7,64.7c-0.1,0.8-0.4,1.5-0.6,2.3l-0.2-4c-0.3-5-0.5-9.9-0.8-14.9
	c-1.7,3.8-3.4,7.7-5.2,11.5c-10.6,21.7-24.2,43.5-30.3,65.6c-6.3,22.8-16,44-26.5,63.5c-12.1,22.7-25.3,45.1-35.5,68.7
	c-9.5,22-14.9,45.7-22.2,68.7c-1.8,1.7-1.4,4.3-2.5,6.3c-2,3.9-3.8,8.4-8.9,8.1c-5.5-0.4-7.6-4.5-8-9.7c-0.1-1.6,0.1-3.3-1.4-4.5
	c-5.9-21.2,5.6-39.9,8.5-59.8c2-13.6,5.4-27,8.2-40.4c4.4-9.5,7.1-19.7,8.1-30.1c1.5-13.6,5.8-26.3,14.5-37.2
	c1.6-2.1,2.7-4.6,3.3-7.2c3.1-11.4,9.1-21.8,11.8-33.4c2.8-11.8,12.9-18.9,19.7-28.2c2.5-3.4,4.1-6.6,4.7-10.5
	c7.1-19.7,21.7-34.5,33.8-50.8c5.2-7,11.9-13.7,21.4-14.9c5.8-0.7,7.9-3.7,8.5-8.9c0.2-3,1.2-5.9,2.9-8.4c0.6-0.7,1.4-1.1,2.3-1.2
	C1451.4,1868.3,1451.3,1871.9,1453.9,1872.5z"/>
<path class="st11" d="M2073.6,1206.2c17.2-49.9,45.8-94,71.3-139.8c9.4-16.9,23.8-30.2,33.5-46c16.7-27.2,40.2-45,65.3-62.1
	c6.3-3.5,13.4-2.9,20.2-3.7c7.9-1,10.1,7.9,16.3,9.9c-1.1,10.1-2.8,20-12.8,25.8c-2.2-0.8-11.4,6-15.5,13
	c-16.3,27.8-41.4,48.3-60.2,74c-17.2,23.5-32.8,48.5-52.1,70c-18.9,21-29.5,47.6-49.6,67.3c-0.9,1-1.7,2-2.7,2.9
	c-3.1,3.1-6.3,6.3-11.2,3.8s-4.2-6.9-3.5-11.2C2072.8,1208.7,2073.1,1207.4,2073.6,1206.2z"/>
<path class="st7" d="M1541.8,1786.4c2.2,30-6.2,60.1-3.6,89.2c3.1,34.8-12.3,65-14.4,97.9c-0.7,10.5-6.3,20.7-9.7,31
	c-3,3.2-4.8,7.1-6.6,11c-2.1,4.6-5.1,9.4-11.2,7.7c-5.5-1.4-8.7-7-7.3-12.5c0-0.1,0-0.1,0-0.2c2.5-9.5,0.8-19.1,2.4-28.6
	c0.5-3,2.4-6.3,0.3-9.6c0.8-23.7,1.8-47.4,2.5-71.2c0.7-22.1,1.3-44.2,1.8-66.4c0.2-8.3,0-16.6-0.2-24.9c-0.1-2.6-0.6-5.2-0.9-7.8
	l-7.4,4.1l-0.8-1.3c7.8-17.1,4.1-35.9,8-53.6c1.2-5.2,0.7-10.6-1.2-15.5c-1.3-8.7,3.3-16,5.5-23.9c2.5-8.9,5.3-17.8,8-26.6
	c1.1-3.7,1.6-8,6-9.6c7.6,1.7,10.2,7.8,12.6,14.2c3.8,10,5.4,20.6,8.4,30.8c1.3,6.3,2.8,12.6,2.8,19.1c-0.2,9.9,0,19.6,3.3,29.2
	C1542.2,1774.4,1544.1,1780.4,1541.8,1786.4z"/>
<path class="st12" d="M523.3,2296.2c5.5-33.3,15.3-65.8,34.9-94.9c18.7-27.8,45-47.2,69.6-69.1c20.1-17.8,40.7-34.6,63.2-49.1
	c6.5-4.2,14.4-6.6,22.1-8.2c10.8-2.3,20.8,11.9,15.3,22.6c-8,15.5-17.3,30.7-34.7,37.4c-14.5,5.6-17,22.1-29.8,30
	c-25.5,15.8-44.8,39.1-66.8,59.2c-21.6,19.7-43.4,38.5-58.4,63.9c-2.2,3.7-3.8,7.7-6,11.4c-1.8,3-4.8,8.2-6.1,7.9
	C521.3,2306,524.7,2300.7,523.3,2296.2z"/>
<path class="st13" d="M2149.8,950.4c0-1.5,0.7-4,0-4.5c-3.6-2.5-3.5,1.5-4.4,3.1c-22.6,42.2-60.7,73.4-82.1,116.4
	c-4.7,9.2-12.1,16.7-21.2,21.4c-3-9.5-0.4-18.9,1.5-28c8.8-41.7,26.8-79.8,50.5-114.5c15.8-23,33.8-46.2,64.7-51.3
	c6.3-1,9.1-6.2,13.3-9.8c9.3-7.9,17.2-6.6,21.7,5c9.9,25.3-0.2,48.6-9,71.4c-3,7.8-4,17.9-12.7,22.9c-1.7,7.2-5.9,13.1-9.7,19.2
	c-3.3,5.3-8.3,8-14.5,6.5c-5.8-1.5-6.1-6.6-7.3-11.7c-1.9-7.7,0.1-15,3-21.3C2147.4,967.1,2147.6,958.6,2149.8,950.4z"/>
<path class="st4" d="M2313.4,1446.4c3.8,13.2,6.9,26.7,11.5,39.6c9.4,26.4,7.5,53.7,7.8,80.9c0.3,31-11.3,59.8-18.4,89.1
	c-5,20.6-20.2,38.9-31.2,58c-5.4,9.4-11.5,18.5-17.7,27.4c-1.3,1.9-4.4,4-6.3,3.7c-3.7-0.6-3.6-4.5-3.1-7.3
	c5-29.2,9.2-58.6,15.8-87.4c1.4-6.3,1.4-12.7,0-19c-5.9-24.9,5.2-48.6,3.7-73c-0.2-2.4-1.2-3.7-3.6-3.8c1.2-10.1,5.1-19.4,8.7-28.9
	c8.8-23.5,18-46.8,26.3-70.5C2308.1,1451.7,2308.3,1447.1,2313.4,1446.4z"/>
<path class="st4" d="M1971.8,942.4c20.1,1.9,22.6,16.3,27.3,32.7c11.6,40.2,2.6,79.3-11.4,114.3c-11.9,29.7-27.2,62.7-60.6,78.8
	c-3.2,1.5-6,3.2-9.1,0.8s-1.4-5.2-0.3-8.1c10.3-27.5,13.9-56.2,12.2-85.1c-0.6-9.2,2.7-19.2,5.3-23.5c9.9-16.2-3.1-33.8,6.4-49
	c7.4-11.8,5.7-27.5,15.8-38.4c1.3-1.5,3.2-3.8,0.6-6.1C1960.5,951.5,1962.7,944,1971.8,942.4z"/>
<path class="st14" d="M973.2,1762.1c-4.1-1.5-4-1.4-7.4,0.4c-25.3,13-48.2,30.3-71.8,45.6c-37.9,24.6-77.9,48.3-105.3,86.5
	c-1.6,2.2-5.6,5.1-6.8,4.5c-3.6-1.9-0.4-5.2,0.3-7.8c9.8-33.3,27.5-62.7,52.5-86.1c20.4-19.1,37.6-41.6,66.2-53
	c13.1-5.2,25.5-20.2,38.8-30.4c7.5-5.7,15.6-9.1,23.4-11.8c13-4.4,27.2-5.4,40.9-7c6.8-0.8,11.7,3.7,15.6,9c2,2.9,0.1,5.2-1.6,7
	c-13.3,13.9-25.6,28.8-39.5,42.1C977,1762.4,975.3,1763.8,973.2,1762.1z"/>
<path class="st15" d="M1319.8,1382.3c-11.1,24.3-37.3,36.1-50.4,57.5c-16.4,26.8-41.2,46.3-56.5,73.5c-8.5,15-19.2,28.8-29,43.1
	c-5.6,6.6-11.6,11-20.1,4.2c-3.8-3.1-6.7,1.1-10,1.6l-28.1,32c-1.8,0.5-2.7-0.1-2.2-2l16.2-21.8c3.8-6.8,8.7-13,14.4-18.3
	c2.9-2.7,5.5-5.5,5.7-9.7c7.6-18.6,14.3-37.6,23-55.7c11.6-24.1,24.3-46.7,44.6-66.3c25.3-24.3,50.5-48.7,77.6-71
	c11-9.1,26.6-11.9,34.9-25c2-0.5,2.7,0.7,3.2,2.3c0.2,1,0.1,2-0.1,3s-0.5,1.9-1,2.8c-10,13.7-19.2,27.6-19.8,45.4
	C1322,1379.5,1320.8,1381,1319.8,1382.3z"/>
<path class="st4" d="M1841.7,1260.9c-0.1,13.5,2.2,26.6,5.5,39.7c2.6,10.4-7.9,17.1-9.4,27.3c-3.9,26.7-17.1,51-33.4,71
	c-13.3,16.3-35.2,25.5-53.5,37.7c-1.2,0.8-4.5,0.7-5.3-0.2c-3.3-4.2-1.8-8.7-0.1-13.2c8-21,15.9-42,22.8-63.5
	c7.4-23.2,5.8-48.8,16.3-69.9c9.7-19.7,21.1-38.8,31.6-58.3c1.7-3.2,4.9-8.6,10.2-5.5c7.9,4.7,13.5,11.8,15.2,21
	C1842.4,1251.5,1841.7,1256.3,1841.7,1260.9z"/>
<path class="st16" d="M2491.9,804.4c28.8,15,31.7,42.1,34.5,70.3c1.3,13,7.9,25,9.9,38.8c6.2,41.8-1.4,81.4-12.1,121.1
	c-3.8,14.3-5.7,29.2-11.8,42.8c-1.2,2.6-1.4,6.6-5.3,6.3c-4.4-0.3-4.4-4.9-4.8-7.8c-3-26.7-5.6-53.4-8.4-80.1
	c-2.4-22.6-9.1-44.9-6.2-67.8c4.5-36.1-3.1-71-10-105.9C2477.8,812.5,2484,807.8,2491.9,804.4z"/>
<path class="st10" d="M1497.7,1006.3c-3.2-1.6-14.3,2.3-18.7,5.9c-18.7,15.6-38.6,29.1-59.3,42.2c-21.9,13.9-43,31.1-59.8,52.1
	c-2.8,3.9-6.1,6.3-11,3.7c-4.2-2.2-5.6-5.5-3.2-9.9c13.4-29.9,29.4-57.9,50.3-83.7c26.9-33.2,64.8-49.7,99.3-71.8
	c18.8-12.1,39-17.2,60.3-20.7c1.8,4.8-2,7.5-4.4,10.3c-17.8,20.8-32.7,43.7-47,67C1502.8,1003.9,1501.8,1007.3,1497.7,1006.3z"/>
<path class="st13" d="M885.8,1965.2c10.5,17.9-4.9,41.5,5.8,62.9c1.4,2.7,1.9,7.1,0.6,9.7c-6.3,13.5-6.5,28-9.1,42.2
	c-4.4,23.6-20,42.7-28.9,64.6c-8.3,20.5-22,37.6-36.2,54.2c-2.2,2.5-4.7,7.1-8.8,4.4c-3-2.1-1.1-6.2,0.1-9.3
	c14-37,21.4-74.9,23.3-114.7c0.9-17.7,9.8-35.2,11-53.9c0.7-12.1,1.1-24.4,1.5-36.5c0.7-18.2,8.3-33.1,15.2-48.7
	c2-4.6,6.8-6.4,11.9-5.2c9.9,2.3,12.1,10.4,13.5,18.8C886.2,1956.3,885.8,1959.1,885.8,1965.2z"/>
<path class="st17" d="M1045.7,1464.3c12.2-36.7,17.9-75.2,25.7-112.8c7.7-37.1,3.2-76.5,10.4-114.3c1.4-7.1,3.9-14,7.5-20.4
	c4.2-7.7,9.8-8.6,14.7,0.1c10.3,18.2,7.8,39.3,13.7,58.6c6.9,22.2-2.4,44.4-2.2,66.7c0.1,10.8-1.9,21.7-3.4,32.5
	c-5.1,36.4-23.6,65.8-47.8,92.3c-2.2,2.4-4.5,4.8-6.8,7.2C1047.7,1477,1044.6,1474.4,1045.7,1464.3z"/>
<path class="st13" d="M591.7,2400.3c-12.8,21.8-2.3,46.4-8.7,69.6c-6.1,22-15.1,41.2-28.6,58.9c-12.9,16.9-25.2,34.4-34,53.6
	c-5.5,12-18.3,14.9-25.2,24.3c-13.2,18.2-25.7,37-38.5,55.6c-1.7,2.4-2.6,6.3-6.2,5.4c-4-1-2.5-5-2.2-7.7
	c3.7-39.7,16.1-78,36.2-112.4c12.2-21,30.5-38.5,41.6-60.8c11.4-23,28.4-41,49.8-55.1c2.1-1.4,3.4-4.7,4.3-7.3
	c3.3-9.4,6.2-18.9,9.3-28.3C591.6,2396.7,590.8,2399,591.7,2400.3z"/>
<path class="st18" d="M1541.8,1786.4c-4.9-14.9-8.5-30.1-8.1-46c6.9,1.2,5.5,6.8,6.1,11.4c0.2,1.3-0.5,3,0.9,3.6s2.3-0.8,3.1-1.8
	c1.5-1.8,3.6-3.3,4.4-5.4c6.5-16.7,19-30.4,23.4-48.1c2.2-8.9,8.3-15.9,12.8-23.5c6.5-11.2,10-23,13.2-35.1c2.3-8.7,6-16.9,11-24.4
	c6.9-10.3,10-22.4,16.2-33c2.2-3.7-0.1-6.3-0.5-9.4c0.8-6.1,4.4-10.8,7.8-15.7c1.7-2.4,3.4-5.6,6.8-4.8c4,1,3.4,5,3.7,8.2
	c0.1,1.6,0.1,3.3,0,4.9c-2.9,36.9-14.9,71.5-27.8,105.8c-1.6,4.3-5.5,11.5-3,12.6c4.2,1.7,5.8-5.6,9-8.6
	c17.7-17.1,25.2-40.5,37.9-60.7c13-20.7,23.6-42,28-66.5c1.7-9.5,3.6-20.8,12.9-27.7c-1.2,24.4,1.4,48.8-12,72
	c-6.6,11.5-3.2,28.3-8.6,40.9c-11.2,26.4-29.5,48.7-45.7,72.4C1609.3,1742.8,1574.6,1762.8,1541.8,1786.4z"/>
<path class="st5" d="M2359.6,1284.5c-9.8,13.8-21.4,26.5-28.8,41.5c-10.8,21.9-29.2,38-40.8,59c-10.8,19.6-22.8,38.6-34.1,58
	c-1.7,2.9-2.6,7.1-6.5,6.3c-4.9-1-3.9-5.9-3.3-9.2c7.4-37.6,17-74.7,33.2-109.5c3.3-7.2,4.6-14.5,5.9-21.8
	c6.2-34.1,33.6-54,52.8-79.3c7.3-9.7,16.1-18.3,24.8-26.9c4.3-4.2,5.4-8.8,5.2-14.3c6.6,1.4,6.3,6.8,6.9,11.7
	c7.3,12.2,5.3,24.6,0.9,37.2c-4.6,13.1-8.3,26.5-12,39.9C2363.1,1280,2363,1283.1,2359.6,1284.5z"/>
<path class="st19" d="M2227.4,1605.6c-7.8,18.3-11,38.9-19.3,58.2c-11.3,26.3-32.4,45.2-47.1,68.4c-22.7,35.7-48.7,70-63.3,110.4
	c-1.6,4.3-2.4,10.8-8.2,9.2c-7.5-2.1-1.4-7.7-0.6-11.4c6.1-26.4,10.8-53.3,19.5-78.9c8.9-26.1,17.5-52.4,29.4-77.6
	c6.1-13.2,14-25.5,23.5-36.4c13.5-15.6,23.3-34.4,40.4-47c5.3-4,9.8-11.2,17.4-8.7C2224.2,1593.4,2227.2,1598.6,2227.4,1605.6z"/>
<path class="st13" d="M667.8,2232.4c-0.3,3.8,1.8,5.3,5.3,5.8c22.4,3.3,24.4,21.1,26.5,38.2c2.2,18.1,3.5,36.3,5,54.4
	c0.8,10.5-1.5,20.6-3.6,30.9c-4.8,22.9-7.3,46.2-11.5,69.2c-4.2,23.2-10,46-20.6,67.2c-1.1,2.1-1.7,5.9-5.1,4.7
	c-1.1-0.4-1.6-4-1.6-6.1c0.3-38.8,1.7-78-5.3-115.9c-5-27.2,0.9-54.7-7.1-81.5c-2.9-9.9,0.1-21.6,0.4-32.5c-1.7-1.6-1.6-3.5-0.7-5.4
	c3.9-8.7,8.2-17.3,13-25.6C663.5,2233.7,664.9,2231.7,667.8,2232.4z"/>
<path class="st20" d="M1513.7,1676.3c-5.9,20-11.9,40.1-17.9,60.1c0.9,6.1-0.7,11.7-3,17.4c-8.1,20.8-14.2,42.2-20.3,63.6
	c-2.5,6.2-3.8,12.8-6.8,18.8l-11.9,36.2c-7.6,5-2.4-3.1-4.2-4.1c-4.4-5-2.4-11.1-2.7-16.8c6-25.6,10.6-51.4,18.2-76.6
	c7.3-24.5,13.4-49.4,23.5-73c15.2-41.8,31.3-83.2,48.4-124.2c5.4-20.7,15.4-39.3,25.6-57.9c1.8-3.2,3.6-6.4,4.5-9.9
	c16.7-34.8,32.7-70,51.7-103.6c14.4-25.5,28.2-51.4,42.4-77c19.4-34.9,41-68.5,62.2-102.3c12.7-20.3,28.2-38.8,38.7-60.5
	c3.1-6.4,8.1-11.3,13.4-16c11.7-10.5,16.9-25.6,26.6-37.6c3.4-4.2,7.7-8.1,9.6-13.6c10.9-14.6,20.3-30.4,33-43.6
	c2.7-2.8,4.8-6.5,9.4-6.6c2.5,0.3,4.6,2.3,5,4.8c0.1,5.1-3.3,8.6-5.8,12.4c-17.1,25.8-36.5,49.9-54.5,75
	c-10.9,15.2-21.1,30.8-30.7,46.6c-12.7,21.1-27.5,40.8-40.3,61.7c-17,30.3-38,58.2-53.5,89.5c-2.5,5-6.8,9-8.9,14.2
	c-13.3,20.8-23.2,43.3-34.8,65c-14.1,26.3-28.1,52.8-40.5,80.1c-1.5,3-3,6-4.3,9.2c-5.1,12.2-11.4,23.8-15.4,36.4
	c-18,41.9-37.9,83-52.1,126.4C1517,1672.6,1516.1,1675.1,1513.7,1676.3z"/>
<path class="st19" d="M2399.8,1340.3c-1.3-26.4-2.9-47.7-3.2-69.1c-0.3-20.3-2-40.5,0.8-61c4.2-31.2,1.2-63.4,12.5-93.8
	c1.2-3.3,2.1-6.8,5.9-7.1c4.2-0.3,6.6,3,7.5,6.7c9.4,37.2,18.8,74.3,21.3,112.9c3,46.6-11,88.8-30.2,130
	c-2.1,4.4-3.9,11.8-10.2,10.6c-7.2-1.3-3.9-8.8-4.2-13.6C2399.4,1349.1,2399.8,1342.1,2399.8,1340.3z"/>
<path class="st21" d="M1381.7,1952.4c0.6,12.7-11.7,17.4-16.3,26.4c-8,15.6-10.6,34.5-20.5,48.4c-15.5,21.9-13.3,49.3-27,71.2
	c1.4-5.9,2.8-11.8,4.1-17.8c0.5-2.4,3.5-5.6,0.3-7.1c-3.3-1.6-6,1.5-8.2,4.2c-20.4,24.9-52.7,28.4-78.8,42.9
	c-6.6,3.7-6.3-6.2-4.2-9.8c5.1-8.9,11.4-17.1,17.3-25.4c0.9-1.3,2.7-2.1,3.4-3.5c3.5-6.9,4.5-16.3,0.7-20.9
	c-3.8-4.6-8.1,4.8-12.9,7.1s-8.1,6.6-12.1,10.1c-1.4-0.3-2.5-1.5-2.5-3c2.4-7.3,8.5-11.3,14.3-15.4c4.5-3.2,9.4-5.9,13-10.3
	c0.6-31.9,1.8-63.8-0.7-95.6c-1.9-10.6,0.8-20.7,2.5-31.1c0.8-5.3,3-10.9-1.9-15.6c-0.9-1.8-1.3-3.8-1.1-5.8
	c0.4-4.8,1.5-10.2,6.9-10.8s4.2,5.7,5.9,8.9c1.6,9.3-0.4,18.6-1.4,27.8c-2.6,23.6-0.8,47.2-1.5,70.9c-0.2,5.8,1.3,9,8.1,9.8
	c9.4,1.1,11.3,7.2,5.5,14.6c-2.7,3.5-6.5,5.7-9.7,8.6c-1.8,1.6-4.1,3.8-2.6,5.8c2.2,3,3.7-0.8,5.3-1.8s3.1-2.5,5-3.3
	c4.1-1.1,8-3.2,11.2-6.1c24.1-21.5,46.3-44.8,69.4-67.3c3.1-3,5.8-6.5,10.1-7.9C1369.6,1948.8,1375.5,1951.4,1381.7,1952.4z"/>
<path class="st12" d="M1013.8,1904.5c6.8-32.5,10-66.2,21.2-97.1c14.1-38.8,22.9-79.9,45.5-115.3c3.9-6.2,7.5-15.2,16.8-12.9
	c9.9,2.4,5.6,12,6.6,18.7c5.8,39.1-7.5,75.1-20.9,110.3c-13,34.2-24.8,69.5-49.1,98.3c-0.6,0.7-1.1,1.6-1.3,2.5
	c-2.5,8.2-8.1,12.9-13.6,10.9C1011.5,1917,1012,1910.8,1013.8,1904.5z"/>
<path class="st11" d="M2015.9,1516.4c-17.1,5.5-24.2,21.7-35.2,33.5c-17.7,18.8-33.8,39.1-50.5,58.8c-2,2.3-4.4,4-7.2,5.2
	c-3.2,1.3-6.6,1.4-9.4-0.9c-3.1-2.5-4-5.9-2.9-9.8c1.4-5.1,4.3-9.6,5-14.9c12.4-23.5,24.3-47.2,37.3-70.4
	c15-26.7,35.6-49.1,57.3-70.4c20.2-19.8,40.1-40.5,69.3-47.3c2,2.6,0.7,5.1-0.6,7.4c-18.5,34.5-36,69.5-56,103.2
	C2021.5,1513.3,2020.4,1517.1,2015.9,1516.4z"/>
<path class="st22" d="M1769.9,1938.5c15.4-37.2,28.9-75.8,47.2-111.1c19-36.7,37.4-75.6,67.2-105.6c11.6-11.7,22.5-24,34.5-35.4
	c3.4-3.3,7.3-5.7,11.5-3.2c5.3,3,2.2,8.2,0.5,11.5c-21.3,41.9-35.9,88-66.2,124.5c-32.7,39.4-54,85.6-82.7,127.3
	c-2.4,2.7-4.9,6.1-9,3.8C1768.2,1947.7,1767.9,1943.3,1769.9,1938.5z"/>
<path class="st23" d="M1237.7,1596.1c11.9-27.3,23.8-54.7,35.8-82c3.7-0.1,3.7,2,2.6,4.6c-11.6,26.7-25,52.8-34.2,80.3
	c-4.2,12.7-1.2,28.2,0,42.3c2.7,32.6,0.3,64.7-5.1,96.9c-4.8,29.1-13.4,57.5-25.5,84.5c-0.6,1.4-2,2.5-3.1,3.8
	c-2.2,5.3-5.4,9.8-10.6,12.5c-7.4,3.9-12.5,1.2-12.5-7.3c-0.1-5.9,1.3-11.8,2.6-17.6l3.9-73.3c-1.7-9.6-0.1-19.1,0.1-28.7
	c1.9-16.4,5.9-32.5,11.8-47.9c3.6-19.9,17.9-35,24.3-53.6C1229.7,1605,1232.3,1599.5,1237.7,1596.1z"/>
<path class="st7" d="M2146,1494.3c-6.3-24.1-7.7-48.7-8.7-73.4c-1-22.7-4-45.1,0.5-67.8c6.6-33.2,11.5-66.9,23.7-98.8
	c1.2-1.2,1.8-2.8,2.9-4c9.3-9.9,20.5-7.2,24.8,5.7c1.4,4.2,2.5,8.2,0.5,12.4c-8.2,25.9-1.8,53.5-7.4,79.3
	c-7.9,36.2-11.8,72.8-16.7,109.2c-1.3,9.8-1.2,19.7-1.8,29.5c-2.2,3.3-0.7,7.1-0.9,10.6c-0.3,5.6-1.6,10.2-8,10.2
	c-6.1,0-8.3-4.3-8.2-10C2146.8,1496.2,2146.5,1495.2,2146,1494.3z"/>
<path class="st24" d="M1897.9,1088.4c-6.1,13-1.7,27-4,40.4c-4.9,28.5-9.4,57.1-14,85.6c-4.1,5.2-3.4,11.8-4.9,17.7
	c-0.7,2.9-0.8,5.9-2.6,8.4c-2.8,4-5.5,9-11.6,7.2c-5.2-1.6-7.2-6-8.1-11.3c-1-7.3-1.3-14.7-1-22c-6.6-18.3-1.3-37.4-4-56
	c-3.4-8.6-3.2-17.3-1.1-26.2c1.6-6.5,2.2-13.1-0.7-19.5c7.8-18.8,6.6-39.8,14.2-58.6c2.2-3.6,4.8-7,7-10.7
	c4.8-8.1,11.9-12.7,21.3-14.2c8.2-1.4,14.2,0.8,17.5,8.8C1908.4,1055.6,1907.6,1072.8,1897.9,1088.4z"/>
<path class="st25" d="M1699.7,1522.3c-11.4,25.1-12.8,53.8-27.7,77.8c-19,30.6-32.3,64.9-58.4,90.9c-1.4,1.4-4.5,3-5.8,2.4
	c-3.2-1.6-1.1-4.7-0.3-7c7.8-24.6,15.4-49.3,23.9-73.7c5-14.4,6.4-29.4,8.5-44.3c1.7-3.6,1.9-7.8,0.6-11.5
	c-2.8-7.7-1.2-14.8,0.6-22.1c1.7-6.4,3.2-12.9,7.8-18c6.4-7,8.6-16.5,13.9-24.1c3-4.3,5.7-9.5,12.7-6c3.2,1.6,4.8-1.1,6.5-3.1
	c1.9-2.3,3.3-5,5.6-7c1.7-1.5,3.6-3.5,6.1-1.8c1.9,1.3,1.7,3.8,0.8,5.5c-4.1,8.5-2.5,15.7,3.5,22.9c2.8,3.4,4.2,8.3,1.7,13.1
	C1699.8,1518.3,1699.7,1520.3,1699.7,1522.3z"/>
<path class="st26" d="M1699.8,1516.4c0.9-5.9-1.9-10.9-5.8-14.2c-7.4-6.4-6.5-13-2.8-20.5c0.7-1.8,1.2-3.6,1.5-5.4
	c-1.6,1.4-3.5,2.5-4.8,4.2c-2.1,2.6-3.6,5.6-5.6,8.2c-1.1,1.7-2.6,3.1-4.3,4.1c-3.8,1.7-20.5,17.6-24.3,23.6
	c-0.7,0.7-1.4,1.4-2.2,1.9c-4.2-2-5.7-5.2-4.7-9.7c0.7-2.9,0.6-6.2,2.1-8.7c13.2-21.1,10.8-45.1,12.8-68.3
	c0.2-21.4,2.2-42.7,4.3-63.9c0.7-6.7,2.6-12.9,3.8-19.4c1.9-5.1,5.8-8.9,9.5-12.6c8.1-8.3,20.7-7,24.3,3.9
	c4.8,14.8,10.3,29.5,8,46.2c-1.8,13.6-2.4,27.8,1.1,42c2.4,9.7,0.6,20.4-0.9,30.6C1707.7,1477.7,1703.7,1497.1,1699.8,1516.4z"/>
<path class="st27" d="M2015.9,1516.4c19.3-27.8,32-59.2,48.9-88.2c5.3-9.1,9.8-18.7,14.7-28.1c37.1-73,70.7-147.6,103.1-222.8
	c25.9-60.1,53.6-119.5,80.5-179.2c1.2-2.7,2.9-5.2,4.4-7.8c4.1-8.6,8.1-17.3,12.2-25.9c-0.5-0.3-0.8-0.9-0.7-1.5s0.2-0.8,0.4-0.8
	c20.7-42.6,41.2-85.3,62.2-127.8c14.9-30,25.2-62.5,46.3-89.3c2.5-3.2,5.9-9.6,4.6-11.4c-3.2-4.4-8.3,1.5-12.8,0.6
	c1.6-8.8,9-10.9,15.8-12.7c6.3-1.6,6.2,5.7,9.3,8.7c2.5,5.6-1.9,9.2-4,13.4c-2.7,5.7-5.4,11.4-9.2,16.5
	c-13.3,22.2-22.9,46.3-35.1,69c-2.3,4.4-4,9.1-8.6,11.9c-38.3,72.6-70.5,148.2-105.5,222.4c-52.5,111.2-98.7,225.3-154.9,334.8
	c-23.3,45.9-47.1,91.4-76,134.1c-1.1,1.6-1.3,3.7-2,5.6l-1.9,2.3c-1.6,1.8-2.6,4.9-5.7,4c-1.6-0.5-1.6-2.4-0.4-3.9
	C2006.5,1532.4,2011.2,1524.4,2015.9,1516.4z"/>
<path class="st28" d="M2001.9,894.4l-2-2c-5.5-1.2-11.1-2.2-15.7-6c-16.4-8.8-35.2-9.2-52.6-14.5c-16.8-5.2-34.6-6.9-52.1-4.9
	c-13.3,1.5-27.1-0.7-40.6-2.5c-6.4-0.9-13.3,3-19.2-2.2c1.5-7.1,7.7-6,12.4-6.6c5.9-0.7,11.9-0.5,17.5-3c1.5-0.7,3.9-0.8,4.1-2.3
	c0.2-1.7-2.2-2-3.7-2.7c-11.1-6-24.2-7.1-35-13.7c-2.4-1.5-7.1-1.6-4.6-6.6c4.2-2.5,8.2-0.5,12.4-0.1c14.9,1.2,29.8,4.2,44.8,0.9
	c10.2-1.4,20.7,0.6,30.8-2.4c2.3-0.6,4.7-0.6,6.9,0.2c22.7,8.5,47,11.7,69.7,20.2c18.3,6.8,34.7,18.6,55,20.2
	c11.6,1,23.2,2.2,34.9,1.4c12-0.8,23,2.2,34.2,5.6c1.8,5.9-3.1,5.4-6.1,5.8c-6.5,0.9-13.2,0.2-19.8,0.5c-8.2,0.3-15.8,1.8-20.9,9.1
	c-1.5,2.2-3.8,3.8-6.4,4.4c-9.1,2-13.4,7.7-13.5,16.8c-0.3,0.8-1.1,1.2-1.9,0.9c-0.2-0.1-0.4-0.2-0.6-0.4l-20.6-11.6
	C2006.6,897.7,2004.1,896.2,2001.9,894.4z"/>
<path class="st29" d="M901.6,1528.2c11-45.6,19.4-92.3,54.2-127.8c3.2-3.4,7-6.2,11.2-8.1c12.3-5.3,24.2,2.9,23.4,16.3
	c-0.4,8-3.4,15.7-8.6,21.8l-62.2,121.8c-11.2,6.6-18.6,2.6-18.8-10.3C900.8,1537.4,900,1532.7,901.6,1528.2z"/>
<path class="st30" d="M2577.9,558.4c6.5-5.7,12.8-11.4,19.4-16.9c3.2-2.7,12.1-3.3,2.1-9.2c-2.2-1.3-1.4-3.3,4.3-2.9
	c10.4,0.7,17.9-3.5,24-11.3c11.5-14.8,27.3-6.4,39.7-4.6c22.7,3.4,43.7-3.5,65.3-5.7c11.1-1.2,15.7-0.9,15.3,11.8
	c-0.7,23.8-4.2,28.1-28.5,29.5c-2.6,0-5.2-0.2-7.8-0.5c-11.5-2.5-23.1-0.8-34.6-1c-7.9-0.1-15.9,1.9-23.2-2.8
	c-0.7-0.5-2.2-0.9-2.6,0c-0.4,0.9,1,1.4,1.8,1.8c5.9,3.3,4,7.6,0.2,10.3c-15,10.8-29.4,23-48.3,26.7c-2.7-1.2-1.8-3.1-0.7-4.8
	c1.4-2.3,3.8-3.6,5.5-5.6c2.4-2.7,8.1-5.1,5.4-8.8c-1.9-2.7-6.3,1.5-9.4,3.3s-6.5,4.2-9.9,1.2s-1.3-6.7,0.3-10
	c0.8-1.8,2.6-4.1,1.1-5.4c-2.2-2-4,0.9-6,1.9C2587.1,557.3,2583.4,561.7,2577.9,558.4z"/>
<path class="st15" d="M1059.9,1183.9c-2.3,7.9-9.5,11.7-14.9,16.9c-19.9,19-35.2,41.6-51.2,63.6c-1.1,1.6-2.4,3.1-3.7,4.6
	c-2.4,2.7-5.2,4-8.7,2.3c-3.1-1.3-5-4.5-4.8-7.8c0-5.9,2.3-11.4,3-17.2c8.7-45.7,39-78.8,66.2-113.7c5-1.9,9.6-4.5,15-5.1
	c2.7-0.2,5.1-1.4,7.8-1.6c13.3-0.8,22.8,10.6,17.5,22.7C1080.3,1162.3,1071.3,1174.4,1059.9,1183.9z"/>
<path class="st31" d="M2348.1,841.1l41.5-82.8c4.9,4.1,4.7,10.1,5.3,15.6c1.2,9.9,2.9,20.1,1.8,29.9c-2,18.1,0.4,36.6-3.8,54.5
	c-2.7,6-2.3,12.2-1.4,18.4c0.9,6.2,0.2,11.9-5.2,16c-11.2,2.5-13.2,13.5-18.7,21.1c-11.4,15.8-19.7,33.4-27.8,51.1
	c-2.2,4.7-2.6,4.5-6.8,3.8c0.2-5.6-1.1-11.5,2.8-16.5c-0.7-31.9,3.9-63.3,7.9-94.8C2344.3,851.6,2354.2,848.6,2348.1,841.1z"/>
<path class="st32" d="M1227.9,844.5c11.9-6.4,11.1-21.1,19.9-29.9c6.3-6.3,10.2-5.8,14,1.7c20.9-3.6,42-6.6,62.8-10.9
	c44.6-9.2,89.9-11.2,135.2-13.4c13.5-1.9,27-5.3,40.7-1.4c22.2,0.7,44.2,2.2,66.3,4.2c11,1,22.6-0.4,32.9,5.1
	c0.1,0.3,0.4,0.8,0.4,0.8c-8.2,4.4-13.8,13.5-24.8,12.7c-21.3-1.6-42.1,0-62.2,8.7c-7.8,3.4-17,6.5-25.5,0.1
	c1.9-6.5,7.9-5.3,12.3-5.8c6.3-0.8,12.3-5.6,19-1.9c-6.1-3.2-12.7-1.1-19-1c-17.8,0.1-35.7-0.1-53.5,1.2c-3.9-1.3-7.6-0.8-11.6,0.1
	c-8.8,2-17.7,0.5-26.4-1.3c-2.2-0.2-4.4-0.2-6.6-0.2c-12.3,1-24.9-2.8-37,2c-6.8,2.9-14.3,2.4-21.4,4.1c-35,8.4-69.9,17.4-105,25.3
	C1234.8,845.5,1231.3,847.2,1227.9,844.5z"/>
<path class="st33" d="M2577.9,558.4c3.9-1.7,7.8-3.5,11.7-5.1c3.7-1.6,5.4-9.6,11-4.6c5,4.4-1.1,8.1-2.4,12.1c-0.6,2-2.1,5-1.3,6
	c2.3,2.9,4.5,0.2,6.6-1.3c5.2-3.6,12.6-10.1,16.9-4.7c4.6,5.8-5.2,9.8-8.8,14.5c-2.2,2.8-5.1,4.9-7.8,7.3c0.7,4.6-4.3,5.2-5.7,8.3
	c-8.2,7.3-13.9,17.9-26.3,19.6c-7.3,3.2-14,7.4-20.1,12.5c-9.4,7.6-19.9,13.2-30,19.4l-52,38c-12.6,6.9-26.8,10.9-37.6,21.1
	c-1.4,1.3-3.4,2-5.3,2.8c-2.4,1-5,2.5-7.3,0c-2.1-2.4-1.1-5.1,0.2-7.4c3.3-5.9,8.4-10.2,13.6-14.3c8.3-6.5,16.3-13.4,24.1-20.5
	c31.6-18.7,56.8-45.6,85.6-67.9C2556,584.1,2562,566.2,2577.9,558.4z"/>
<path class="st34" d="M1810,828c15.4,6.1,30.8,12.2,46.2,18.5c2.2,0.9,4.2,2.5,6.3,3.8c-2.1,1.2-4.2,2.5-6.4,3.7
	c-11.4,6.2-24.6,2.8-36.5,6.6c-2.8,2.6-6.2,1.8-9.4,1.4c-9.9-1.2-19.5-3.8-29-6.6c-3.5-1-7.1-2.2-7.8-6.6c-4.5-3.8-9.2,0.1-13.7-0.4
	l-25.8-2.3c-8.8-0.6-17.5-1.2-25.5-5.5c-8.5-2.9-17.8-2.9-26.2-6.5c-5.3-3.3-11.6-4.6-17.8-3.9c-10.1,0.9-17.5-5.7-24-12.2
	c-4.9-4.9-1.5-11.4,6.6-12.1c10.2-1,20.5-1.4,30.7,0.4c4.7,0.8,9.1,1.4,13.7,0.4c7.4-1.5,14.4,0.6,21.5,2.5
	c25.6,6.9,51.5,11.2,78.1,11.7c2.7,0,5.3-0.1,8,0.2C1803.4,822.3,1808.9,821.7,1810,828z"/>
<path class="st35" d="M2331.8,738.5l9.9-4.2c5.8-3.1,12.4-3.7,18.4-6.7c3.7-1.8,8.1-2.3,8,4.2c-2.6,6.6-9,7.8-14.5,10.3
	c-48.4,29.7-96.5,60.1-145.5,88.9c-21.6,12.7-38.9,31.6-62.3,41.3c0.4-9.9,8.7-13,15.3-17.5c1-0.7,2.1-1.3,3.2-1.7
	c-1.4,0-2.4,0.9-3.6,1.4c-12,5.5-25.2,8-36.9,14.2c-2.1,1.1-4.4,1.6-6.5-0.3c0.5-8.3,5.8-13.3,12.6-16.5c6.2-2.8,11.3-6.9,16.7-10.8
	c28.7-20.6,58.8-39.1,90-55.5c19.5-10.2,39.8-18.8,58-31.3C2306.5,747.9,2318.7,742.1,2331.8,738.5z"/>
<path class="st3" d="M1193.9,974.5c3-1.2,6-3.9,9-1c0.4,0.4-2.9,4.5-4.3,6.9c-9.3,16-19,31.9-27.8,48.2c-4.6,8.5-9.5,15.8-19.5,18.5
	c-2.1,0.6-3.8,2.4-5.7,3.7c2.1-0.2,4.1-0.4,6.2-0.5c1.8-0.1,3.6,0.1,5.4,0.1c-0.4,1.2-0.8,2.5-1.3,3.6
	c-19.3,36.3-38.6,72.6-57.9,108.9c-1.8-7.4-4.7-2.7-7.2-0.6l-17.6,13.7c-1.7-2.6-1.4-6.1,0.6-8.4c7.3-7.5,11-18,20.8-23.5
	c13.4-7.6,18.2-21.6,23.1-34.8c3.3-9-3.3-14-13.5-10.6c-11.4,3.7-20.9,11.5-31.7,16.4c-1.5,0.7-2.8,1.8-4.4,2.3
	c-8.3-0.8-4.8-5.4-2.4-8.7c5.7-7.7,11.9-15.1,18.1-22.4v0.1c31.6-38.7,67-73.7,103.5-107.6C1189.3,977.2,1191.5,975.7,1193.9,974.5z
	"/>
<path class="st36" d="M2372.2,1200.1c-0.5-4.2-0.4-8.7-4.2-11.9c-12.7-39.5-19.2-80.2-24.6-121.2c-0.7-5.1-3.6-9.8-5.5-14.7
	c-1.4-9.7-2.8-19.3-0.1-29c12-1,19.5-9.1,27.4-16.8c3.3-3.2,5.6-8.8,12-6.3c-4.1,9-2.3,19-0.5,27.4c4,18.7-0.7,36.8-2.2,54.6
	c-2.8,33.1,4,65.4,3.5,98.1c0.2,5.9,6.1,10.4,4.1,16.9C2379.9,1202.2,2376.8,1203.8,2372.2,1200.1z"/>
<path class="st37" d="M1228.1,1023.1l-4.3-10.7c8.7-7.8,20.1-10.1,30.3-14.7c36-16.3,72.8-30.8,107.9-48.9
	c16.4-8.5,32.8-17.2,49-26.2c13.2-5.5,25.3-13.2,37.2-21.2c2.8-1.9,6.7-5.5,9.6-1.8c2.8,3.4-1.2,6.6-3.4,9.4c-1.2,1.6-2.9,2.8-4,4.4
	c2,0.1,3.7-1.2,5.5-1.7c31.1-8.2,61.6-18.8,93.3-25.1c12-2.4,23.3-7.8,35.6-9.6c4.2-0.6,8.5-2.1,12.6,0.5c2.2,2.5,0.4,4.7-1.3,5.9
	c-6.4,4.6-9.2,13.9-18.5,14.9c-18.6-1.1-36,5.4-53.7,9.1c-30.8,6.6-61.2,15.4-92,22c-14.3,3.1-24.7,12.5-36.9,18.9
	c-52.7,27.4-106.6,52.1-162.5,72.4C1230.9,1021.4,1229.5,1022.2,1228.1,1023.1z"/>
<path class="st38" d="M2331.8,738.5l-36.1,17.9c-16.7,5.9-34.3,7.7-51.5,11.3c-36.6,7.6-72.3,18.3-108.3,28
	c-29,7.8-58.8,11.7-89,10.1c-18.4-0.9-36.6,1.3-54.6,4.9c-4.2,1-8.6,1.1-12.9,0.3c-5.2-3.4-10.9-6.5-13.6-12.6
	c29.4-7,59.8-12.3,89.5-10c47.1,3.6,89.4-11.5,133-24C2235.1,751,2283.2,742.3,2331.8,738.5z"/>
<path class="st39" d="M2383.8,892.4c10.9-9.9-0.4-23.6,5.7-34.3c6.6,9.5,7.7,9.7,16.9,2.1c3.1-2.5,5.7-5.5,8.7-8.1
	c11.8-10.6,23.4-8.2,29.8,6.2c0.6,1.2,1.2,2.4,1.7,3.6c0.2,0.9-0.1,1.9-0.7,2.6l0.1-0.1c-10.4,17.6-14.7,37.5-20.4,56.8
	c-1.3,4.5,0.7,10.9-5.8,13.2c-15.3,12.3-22.5,30.4-33,46.1c-2,3-3.3,6.6-7.4,7.5c-4.7-3.4-3.6-8.2-2.8-12.7
	c1.7-9.1,2.9-18.3,4.4-27.4c2.6-15.2,1-30.3-0.7-45.4C2379.9,898.9,2377,893.9,2383.8,892.4z"/>
<path class="st40" d="M1269.8,1802.5l0.4-8c9.2-55.4,19.3-110.6,27.3-166.2c12-83.1,22-166.4,43.9-247.7c2.1-7.9,3-16.2,4.5-24.3
	c-0.9-9.3,4.5-17.3,5.3-26.3c3.6-10.2,6.3-20.7,12.5-29.8c2.2-2.2,3.5-6.2,7.1-5.7s3.1,4.2,3.2,7c-2.2,18.6-10.1,35.7-15,53.6
	c-8.8,32.1-14.6,64.7-21.4,97.2c-3.2,15.6-7.1,31.1-9.3,46.9c-4.2,28.6-8.6,57.2-13.5,85.7c-10.3,56.2-18.2,112.9-27.4,169.3
	c-3.5,21.4-5.4,42.7-6.8,64.3c-1.2,17.9-6.9,35.7-13,52.9c-4.5,5.2-7.2,3.6-8.5-2.3c-0.8-3.3-0.1-6.6,0.3-9.9
	c1.8-15.2,4.1-30.3,6.1-45.5C1266.1,1809.6,1267.6,1805.8,1269.8,1802.5z"/>
<path class="st41" d="M2383.8,892.4c0.6,13.8,2.2,27.6,1.5,41.4c-1,18.1-3.9,36.2-6,54.2c-0.7,4.1-1.4,8.2-2.2,12.2
	c-8.9,7.6-18.9,14.4-26.4,23.2c-5.9,6.9-8,3.5-11.4-1c-7.3-6-7.1-15-7.6-23c-0.6-9.7,0.7-19.5,2-29.2c11.3-27,26.6-51.9,42.4-76.5
	C2377.9,891.2,2380,886.3,2383.8,892.4z"/>
<path class="st38" d="M1499.9,794.3l-40.3-2.2c41.8-16.4,83.9-29.3,129.9-28.3c34.8,0.8,69.6-2.2,104.4,0.6
	c36.8,3,73.1,8.2,108.3,19.7c-1.7,3.3-4.7,5-8,6.2c-18-0.8-35.6-4.2-53.6-5.4c-37.2-2.5-74.2-8.5-111.6-7s-75.3,1.4-111.8,12.5
	C1511.6,792.2,1505.3,791.2,1499.9,794.3z"/>
<path class="st42" d="M1795.8,788.4c0.3-4.2,3.8-3.7,6.5-4.3c51.3,8.3,103,13.3,154.9,16.1c2.8,0.1,5.7-1.2,8.5-1.9
	c1.9,4.8,12.5,1,10.1,10.2c-2,3.7-5.6,4.4-9.2,5.2c-32.9,7.1-65.7,15.1-99.6,15.6c-1.3,0,0.5,0.1-0.8,0.3c0.4,0.5,1.3,0.1,1.6,0.9
	c-15.8,4.6-31.6,2-47.3-0.6l-10.6-1.8l-10.2-3.8c1-5.5,5.8-4.4,9.3-5.1c14.4-2.8,29.1-1.4,43.5-4c1.3-0.2,3.4,0,3.6-1
	c0.4-1.9-1.9-2.1-3.2-2.7c-14.4-6.8-29.4-12.2-44.7-16.3C1803.6,793.8,1798.1,794.1,1795.8,788.4z"/>
<path class="st43" d="M667.8,2232.4l-17.8,34.2l-58.3,133.7l-2.2-4.2c22-71.2,55.9-137.3,91.4-202.3
	c48.1-88.1,100.7-173.8,157.6-256.5c5.4-7.9,11.3-15.4,17-23.1c3.2-0.3,4,0.8,2.3,3.6c-43.5,66.3-86.2,133.2-126.3,201.7
	C709.5,2156.7,688.9,2194.7,667.8,2232.4z"/>
<path class="st34" d="M2117.6,868.3c16.1-6.6,32.3-13.3,48.4-19.9c1.9-0.8,5.8-1.4,6.1-0.6c1.7,3.2-1.4,4.9-3.6,5.9
	c-9.2,4.3-17.1,10.2-22.8,18.7l-76.3,47.9c-17.3,5.7-28.9,2.5-37.5-10.4c-5.7-6.6-2.7-12.4,3.1-15.8c17.4-10,34-23.3,56.4-17.7
	c2.4,0.6,5.4-1.4,8.2-2.2C2103.7,866.3,2110.2,865.9,2117.6,868.3z"/>
<path class="st44" d="M2115.8,1876.2c-2.2,19.3-14.5,33.3-24,49.2c-13,21.7-32.4,36.7-50.1,53.6c-2.3,2.2-5.5,4.5-9,2.4
	c-3.2-1.9-1.2-5-0.3-7.2c14.7-39,32.9-75.7,66.8-102.2c3.8-2.9,7.6-5.9,12.5-4.2C2115,1869.1,2116,1872.6,2115.8,1876.2z"/>
<path class="st45" d="M1577.5,898.2l20.2-20c0.6-1.9,2.1-3.5,4-4.3c4.7-0.9,11-6.5,13.7-0.5c2.3,5.1-3.7,9.6-8.8,12.4
	c-1.2,0.6,0.3-0.2-0.8,0.6l-41.5,42.5c-9.3,16.9-19.8,33-32.6,47.5c-29.6,35-47.2,77.3-69.9,116.4c-9.1,15.6-17.7,31.5-26.5,47.3
	c-0.5,1.7-1.7,2.9-3.3,2.1s-1.6-2.4-0.3-3.8c17.1-46.5,40.5-89.8,65.9-132.1c17.2-28.8,36.5-56.2,57.9-82L1577.5,898.2z"/>
<path class="st46" d="M2333.8,970.4c3.3,17.2-1.7,35.4,5.7,52.2c-1.6,9.9,3.3,20.1-1.5,29.8c-11.5-2.3-10.3,9.7-15.1,14.4
	c-14.7,14.4-27.4,30.9-40.9,46.5c-1.8,2-4,4-6.9,2.4c-3.7-2-1.3-4.7-0.3-6.9c16-33.5,24.3-70.2,44.1-102.4
	c7.7-12.5,15.7-27.6,13.1-44.5c-0.6-3.6-0.2-7.4,3.8-9.5C2335,958.4,2334.4,964.4,2333.8,970.4z"/>
<path class="st47" d="M833.4,1039.9c38.9-43.1,84.2-78.7,131.6-111.8c7.5-5.3,15.1-10.6,22.6-15.9c2.8-0.9,5.6-5,8.7-1.1
	c2.4,3.1-0.2,5.5-2.2,7.7c-33.7,28.2-68,55.7-101,84.8c-18.9,16.7-35.6,35.8-57.7,48.6C826,1049.6,832.4,1044.3,833.4,1039.9z"/>
<path class="st48" d="M1099.8,1004.4l-10,16c-3.9,2.7-4.7-1.2-6.5-3c-2.7-2.7-5.2-5.9-9.8-3.3c-21.9,14.5-43.9,28.9-65.9,43.3
	c-1.4,0.7-2.8,1.3-4.4,1.8c-0.3-1.8-1.1-3.7-0.8-5.4c0.6-2.6,1.4-5.1,2.7-7.5c3.2-6.9,6.6-13.7,10-20.5c-7.5,2.2-15,4.2-22.3,6.6
	c-25.7,8.6-51.3,17.3-77,26c-3.6-2-3.4-3.9,0.1-5.7c40.8-18.1,81.6-36,123.9-50.4c1.5,4.7-2.8,6.1-5.1,8.7c-1.2,1.2-2.4,2.3-3.8,3.3
	c1.7,0.5,3.1-0.6,4.6-1.2c11.8-4.4,23.8-8.4,35.9-12.2c4.9-1.5,10.1-3.9,15.3-0.3C1090,1005.4,1096.3,1000.2,1099.8,1004.4z"/>
<path class="st49" d="M1711.7,1458.3c1.5-24-5.4-47.6-1.8-71.8c2.4-16.5-4.6-31.9-9.4-47.1c-3.8-12.1-16.5-7.9-28.2,9.2
	c-0.8,0.7-2,0.7-2.8,0c2.8-13.5,10.3-21.1,22.7-21.9c4.6-0.4,9.1-1.8,13.1-4.1c10.7-5.4,21.2-11.1,33-13.9
	c7.4-1.7,14.5-2.1,20.6,3.6c4,4.5-2.8,7.8-1.3,12c-4.8,20.5-22.4,32.5-35,46.6c-10.5,11.8-11.1,22.2-10.5,34.6
	C1713.1,1423.2,1717.6,1440.8,1711.7,1458.3z"/>
<path class="st50" d="M2372.2,1200.1c3.3,0.3,6.8,1,7.7-3.7c0.8-0.6,1.4-1.5,1.7-2.4c0.9-3,2-6.6,5.7-5.4s1.9,5,1.8,7.9
	c-1.3,19-8.7,36.4-15,54c-19.2,65.6-37.3,131.5-60.6,195.9l-41.4,108.3c-32.4,81.6-67.2,162.1-104.4,241.6l-2.1,0.1
	c16.5-38.1,33.3-76,49.4-114.2c20-47.8,39.3-95.8,58.9-143.8c0.7-13.8,8.8-25.2,12.5-38.2c4.8-16.9,12.2-33,18-49.7
	c1.1-3.2,2.5-6.2,5.7-7.9c20.3-51.5,35.2-104.7,49.7-158c6-21.6,12-43.1,17.9-64.7C2379.5,1212.3,2372.1,1207.2,2372.2,1200.1z"/>
<path class="st9" d="M1067.6,1116.1c11.5-8.7,23.8-16.1,37.4-20.9c4.8-1.7,10.8-2.9,14.7,2.2c3.9,5.1,2,10.5,0.5,16.1
	c-5.9,21.3-24.4,32.5-38,47.5c-4.1,4.3-7.1,9.4-8.9,15l-13.3,7.8c6.8-9.6,14.1-18.8,20.3-28.8c3.6-5.9,8.1-12.5,2.7-20.2
	c-6.4-9.2-15.1-5.6-23.5-4.7C1057,1122.5,1062,1119.1,1067.6,1116.1z"/>
<path class="st51" d="M1969.8,2157.6c-2.5,10-4.8,20-11.5,28.3c-17.8,26.1-31.2,54.8-45.6,82.8c-39.6,77-77.1,154.9-106.4,236.4
	c-8.8,24.4-17.1,49-25.7,73.4c-0.6,1.2-1.4,2.4-2.2,3.4c-0.1-1.3-0.1-2.6,0.1-3.9c17.2-64.4,41.1-126.4,69.4-186.7
	c9.9-21.1,20.1-42,30.2-63c7.8-16.1,15.6-32.3,23.3-48.5c20.9-38.1,41.8-76.2,62.7-114.3C1965.9,2162.9,1967.8,2160.2,1969.8,2157.6
	z"/>
<path class="st52" d="M1605.8,886.4c0.3-0.6,0.6-1.2,0.9-1.8c2.4-3.7,4.7-7.4,7.1-11.1l-12.3,2.7c1-7.9,8.3-10.5,13.3-14.8
	c7.2-6.2,14.9-11.8,21.8-18.5c2.9-2.8,5.1-6.2,6.4-9.9c5.1-1.8,9.7-0.4,14.1,2.1c3.1,4.5-0.8,6.8-3.5,8.7
	c-7.7,5.4-14,12.1-20.7,18.5c-1,0.7-1.9,1.6-2.7,2.6c1.3-0.2,2.5-0.5,3.7-1c21.7-6.1,42.6-14.5,63.6-22.6c4.1-1.6,8-3.1,12.4-2.9
	l24,7.8c-40.3,13.7-80,29.1-121.3,39.6C1610.3,886.1,1608.1,886.3,1605.8,886.4z"/>
<path class="st53" d="M857.7,1917.7l-2.3-3.6c35.9-53.3,76.3-103.1,117.8-152l46.3-50.2c14.3-15.7,28.6-31.4,43.1-46.9
	c2.2-2.3,4.5-7.8,8.1-5.1c2.8,2.2-2.2,4.8-3.9,6.7c-23.7,27.4-47.4,54.8-71.7,81.7c-47.2,52.4-92.8,106.2-132.9,164.3
	C860.8,1914.5,859.3,1916.1,857.7,1917.7z"/>
<path class="st54" d="M2149.8,950.4c5.3,16.2-12.7,29.2-6.2,45.8c1.3,3.4-0.7,8.5,4.6,9.8c4.7,1.1,8.8-1.2,11.4-4.6
	c4.6-6,8.4-12.5,12.5-18.8c-4,21.9-18.1,38.4-29.4,56.5c-8.7,13.8-18.2,26.9-30.4,37.8c-1.3,1.2-3.3,1.6-5,2.4
	c-0.1-1.5-0.7-3.4-0.1-4.6C2129.4,1036,2135.7,991.9,2149.8,950.4z"/>
<path class="st55" d="M981.8,1430.5c1.4-5,2.6-10,4.1-14.9c2.2-7.3,3.5-13.9-3.8-19.7c-7.8-6.2-13.5-0.4-19.9,2.3
	c-2.1,0.9-4.3,1.5-6.5,2.3c12.9-20.3,27.5-38.9,48.3-51.8c6.8-4.2,9-1.3,9.5,5.3c0.7,8-2.3,15.5-6.3,21.7
	C996.4,1392.8,1000.5,1417,981.8,1430.5z"/>
<path class="st56" d="M1225.9,2076.5c0.5,0.6,1.1,1.1,1.6,1.7l-25.7,28.4c-10,8.4-17.5,18.2-18.3,31.8c1.2,9.8-2.2,18.9-4.7,28
	c-1,3.8-2.1,8.9-6.9,8.5c-5.6-0.5-5-6-5.1-10.2c0-1.7,0-3.3,0-4.9c0-1.6,0-3.3-0.1-5c-0.1-1.1,1.2-2.8-0.7-3.2
	c-0.7-0.2-1.5,1.2-2.1,2c-8.2,10.1-16.4,20.1-24.2,30.5c-18.9,23.8-36.8,48.3-54.5,73.1c-3.8,5.3-6.7,11.6-13.5,14
	c-1.5,0-2.8-1-3.2-2.5c-0.5-4.8,2.3-8.3,4.8-11.7c16.3-21.9,31.3-44.7,48.8-65.7c3.4-4.1,6.4-8.6,11.6-10.7c8-9.7,15.5-20,24.2-29
	s13.5-18.5,11.9-31c2.5-4-0.7-7.5-1.1-11.2c-0.5-4.9-0.8-9.8,2.1-14.2c5.2-2.2,4.6,2.4,5.7,4.9c0.9,2.3,0.6,5.6,4.3,5.6
	c2.8-0.1,4.5-2.3,6.1-4.4c2.9-3.7,2.3-9.9,8.2-11.3c2.9,1.4,2.8,4.2,2.9,6.8c0.1,2.1-0.9,4-1.2,6c1.3-1.9,3.1-3.4,4.5-5.2
	c4.9-5.8,9.4-11.9,15.2-16.9C1219.3,2078.3,1221.5,2074.7,1225.9,2076.5z"/>
<path class="st57" d="M1191.5,837.8c-4.6,7.5-9.2,15-13.9,22.5c1.1-5.9-2-3.6-5-2.8c-35.6,9.7-71.2,19.4-106.8,29
	c-3.1,1.1-6.8,2.5-8.5-1.4c-1.5-3.4,2.3-4.9,4.4-6.8L1191.5,837.8z"/>
<path class="st58" d="M1987.4,884.7l12.4,7.7c-4.2-0.3-7.4,1.4-10.4,4.5c-36.4,37.7-70.8,77.1-101.8,119.4c-0.7,3.3-1.8,6.3-4,8.9
	c-8,8.7-15.5,18-22.2,27.8c-0.9,1.1-1.8,2.1-3.4,1.5l-4.6-4.4c-2.1-4.7,1.5-7.5,3.7-10.6c37.1-50.9,76.7-99.8,121.2-144.5
	C1981.4,891.8,1983.7,887.6,1987.4,884.7z"/>
<path class="st59" d="M2366.1,732.7c0.5-9-4.3-2.3-6.4-2c-6,0.9-11.9,2.4-17.9,3.6c28.8-15,56.9-31,81.8-52.1
	c3.5-6.1,9.8-7,15.8-8.5l18.2-11.7c-7,13.3-20.8,19.7-30.5,30.1c-2.9,3.1-8.3,7.6-5.7,10.2c3.3,3.4,8.2-1.7,11.6-4.4
	c10.9-8.9,23.6-13.7,36.9-17.5c-18.7,11.3-37.4,22.6-56.1,33.9c-2.9,5.6-1.1,14.3-10.5,15.6c-10.1-11-16.5-1.6-23.5,4.2l-0.2,0.1
	c-5.7-1.1-6-1.6-3-5.5s7.5-6.4,11.9-8.7c2.1-1,4.2-1.8,6.4-2.6c2.6-1,4.6-2.6,5.3-5.4c0.2-0.9-0.1-1.4-0.8-1.1
	c-2,1.1-3.9,2.5-5.5,4.2c-6.5,5.6-14.5,9.2-20,16.1C2372,733.6,2369.2,734.8,2366.1,732.7z"/>
<path class="st60" d="M2439.4,673.7c-3.4,6.3-11.5,3.9-15.8,8.5c35.8-58.3,72-116.2,138.6-145.1c6.9-3,17.4-9.9,21.1-2.9
	c2.5,4.8-11.1,5.8-17.5,8.5c-44.5,18.7-75.2,52.7-102.4,90.7C2454.3,646.1,2443.6,658,2439.4,673.7z"/>
<path class="st61" d="M1353.8,1330.4c-0.8,9.2-2.8,18-7.8,25.9c-14.2,33.2-28.2,66.4-42.5,99.6c-9,21-18.3,41.9-27.5,62.8
	c-0.9-1.5-1.7-3.1-2.6-4.6c20.7-47.7,41.3-95.4,62-143.1c1.5-3.5,2.1-7.4,3.1-11.1c-3.5,3.3-8.7,6.2-10,10.2
	c-1.8,5.4-3.5,9.8-8.8,12.2c-2.2-21.9,9.3-38.2,22.2-54C1346.6,1324.9,1350.5,1326,1353.8,1330.4z"/>
<path class="st62" d="M2537.8,720.8c1.1,1.9,2.2,3.7,3.3,5.5c-2,0.8-4.1,1.5-6.2,2c-13.1,2.5-27.1,0.3-39.1,8.1
	c-5.5,5.7-12.4,3.3-18.9,3.4c-5.6,0.1-11.3,0.2-16.9-0.9c-2-0.3-3.8-1.2-5.8-1.4c-5-0.6-10.7-0.9-10.1-8c0.5-6.3,3.8-10.5,10.9-10.1
	c1,0,1.9-0.5,2.5-1.3l0,0c20.8-2.9,41.6-7.3,62.7-2L2537.8,720.8z"/>
<path class="st63" d="M1347.7,2350.2c-0.7,5.2-0.8,10.5-2.2,15.5c-1.8,6.8-3.5,14,3.6,17.6c7.8,4,11.3-3.6,15-8.8
	c-8.9,33-25,63-39.6,93.5c-0.5,1.2-2.5,1.6-3.8,2.4c-0.2-1.9-0.9-4-0.5-5.8c3-13.5,6.2-27.1,9.4-40.6
	C1335.6,2399.5,1341.6,2374.8,1347.7,2350.2z"/>
<path class="st64" d="M1153.8,1562.2c3.7-5.4,5.7-13.6,13.6-2.3c4.8,6.8,10.8-2.5,16.5-3.4c-11.2,24.7-22.3,49.3-33.5,73.9
	c-0.5,1.1-1.7,1.8-2.6,2.7c-0.6-1.7-1.8-3.6-1.6-5.2c1.8-17.1,3.9-34.2,5.9-51.4C1152.7,1571.7,1156.1,1567.3,1153.8,1562.2z"/>
<path class="st65" d="M1757.7,1324.3c-3.6-4.1,2-6.7,1.7-10.3c-1.9-3-0.6-5.8,0.7-8.5c19.3-41.7,36.9-84.1,55.5-126.1
	c6.5-18.4,14.4-36.2,22.6-53.9c2-4.4,2.9-10.5,9.7-11.1c4.5,1.5,3.8,4.5,3.3,8.4c-1.5,11.8-2.2,23.7-3.2,35.6
	c-12.6-5.6-17.7,4.1-21.3,12.2c-18.6,41.2-36.2,82.8-54.4,124.1C1767.6,1304.7,1762.5,1314.4,1757.7,1324.3z"/>
<path class="st66" d="M1121.7,948.4c-6.7,10.7-13.3,21.3-20,32c-14.8,9.9-32,13.8-48.3,19.7c-2.3,0.9-4.8,0.1-6.1-2
	c19.5-20.2,38.9-40.8,68.1-47C1117.5,950.5,1119.6,949.3,1121.7,948.4z"/>
<path class="st67" d="M1915.6,1588.2c-0.1,2.3,0,4.6-0.3,6.8c-0.7,5.3-5.6,11.1-0.6,15.7s10.3-1.4,15.6-2
	c-16.1,22.5-32.3,45.1-48.5,67.6c-1.3,1.7-3.3,3-4.9,4.4c0.2-2.5,0-5.1,0.8-7.3C1888,1644,1900.7,1615.5,1915.6,1588.2z"/>
<path class="st68" d="M1339.8,672.4c8.3,33.3,9.8,65.6-13.8,94.2c-1.2,1.5-2.5,3-3.9,4.4c-1.9,1.5-3.4,4.7-6.3,3
	c-2.5-1.5-2.3-4.4-2-7c13.6-28.3,17.2-58.6,17.3-89.5C1333.1,674.1,1332.8,666.9,1339.8,672.4z"/>
<path class="st69" d="M2073.6,1206.2c-1,15.5,5.8,15.8,16.4,8.3c-14.6,24.6-29.2,49.3-44,73.8c-0.8,1.4-3,2-4.6,3
	c0-1.8-0.3-3.8,0.2-5.5C2049,1257.9,2060.5,1231.7,2073.6,1206.2z"/>
<path class="st70" d="M2309.9,1442.6l-36.2,95.8c-2.3-6.3-2-12.1,2.5-17.7c9.9-12.2,1.2-27.6,7.1-40.9c3.8-8.5,4.4-18.5,6.5-27.8
	c1.4-6,0.2-13.6,7-16.5C2303.2,1432.6,2305.1,1440.9,2309.9,1442.6z"/>
<path class="st13" d="M2189.8,1268.3c-0.9-22.1-8.9-26.1-28.2-14c9.2-20.1,18.3-40.3,27.7-60.3c0.8-1.8,3.1-2.9,4.8-4.3
	c0.6,1.4,1.8,2.9,1.7,4.3C2194,1218.8,2188.7,1243.3,2189.8,1268.3z"/>
<path class="st71" d="M1491.8,1972.4c4.3,10.6-0.2,21.3-0.9,31.7c-0.5,7.5,0,14.5,6,16.8c5.6,2.2,7.4-5.4,10-9.9
	c1.5-2.7,4.7-4.4,7.2-6.5c-8.8,24-18,47.8-33.6,68.4c-1,1.4-2.7,2.2-4.1,3.3c-0.1-1.3-0.6-2.7-0.3-3.9
	C1485.3,2039.7,1488.3,2006,1491.8,1972.4z"/>
<path class="st72" d="M1187.6,1814.1c0.1,1.6,0.1,3.3,0.3,4.9c0.9,6.6-3.7,16.8,2.5,19s12.7-5.8,17.7-11.4
	c-10.2,24.6-25.7,45.6-43.2,65.4c-0.7,0.8-2.3,1-3.4,1.4c0-1.2,0.1-2.4,0.3-3.5C1170.4,1864.6,1179,1839.4,1187.6,1814.1z"/>
<path class="st73" d="M1047.2,998l54.5-17.6l-6.2,10.1c-2.6,4.5-1.8,11.7-9.6,11.9c-19.1-0.9-34.9,10.1-52.5,14.4
	c-3.3,0.8-5.8,4.7-9.8,2.3c2.3-2.8,4.4-5.7,6.9-8.2c3-3,6.3-5.8,9.4-8.6L1047.2,998z"/>
<path class="st74" d="M2457.6,718c-5.4,3-12.2,6.1-11,13s9.7,0.9,13.3,5c-1.8,2.9-4.9,3.4-7.8,3.4c-15.8,0.3-31.6,1.8-47.2,4.5
	c-2.3,0.6-4.7,0.2-6.7-1.1c1.1-4.6,7.2-7.1,5.1-12.9l10.4-15.5c4.8,8.5,12.8,3.4,19.2,4C2441.1,719.2,2449.4,718.2,2457.6,718z"/>
<path class="st75" d="M1301.2,2198.7c7.1,17.5,14,12.1,20.8-0.2c-4.2,24.2-8.4,48.3-12.7,72.5c-0.2,1.4-1.7,3.8-2.3,3.7
	c-3.2-0.4-2.6-3.3-2.8-5.5C1302,2245.7,1298.1,2222.3,1301.2,2198.7z"/>
<path class="st76" d="M1851.8,1214.4c0.7,6,1.4,12,2,18.1s2.9,12.8,8.5,13c6.7,0.2,9.2-7.2,11.3-13.1c2.1-5.9-0.4-13.5,6.2-17.9
	c-5,23.9-9.7,47.9-18.2,70.9c-0.8,2.1-2.5,5.6-3.3,5.5c-3.7-0.6-2.2-4.2-2.4-6.5C1854.5,1261,1847.9,1238,1851.8,1214.4z"/>
<path class="st77" d="M1981.2,1838.6c4.7,1.7,4.9,10.3,12.2,7.9c6.8-2.3,5.6-8.9,7.5-13.9c2.5-6.6-1.6-14,2.9-20.1
	c-2.2,28-4.3,56-6.6,84c-0.1,1.5-1.8,2.9-2.7,4.4c-0.8-1.3-2-2.5-2.4-3.9C1987.1,1877.7,1982.6,1858.5,1981.2,1838.6z"/>
<path class="st75" d="M901.6,1528.2c0.2,5.9-0.7,12.2,1,17.7c2.6,8.2,9.7,8.6,17,6.4c-5.4,16.1-10.7,32.2-16.1,48.2
	c-0.8,2.3-2.5,4.4-3.8,6.6c-1-2.6-2.9-5.2-3-7.8C895.8,1575.4,898.4,1551.7,901.6,1528.2z"/>
<path class="st78" d="M2419.8,934.4c5.8-18.7,11.2-37.6,17.4-56.1c1.7-5,3.3-10.9,8.7-13.9c-27.2,71.7-54.2,208.5-56.5,221.5
	s-2,103.6-2.9,105c-0.1-1.7-1.3-83.5,0.8-105.7C2389.4,1063,2408.9,984.6,2419.8,934.4z"/>
<path class="st61" d="M1371.9,1300.5c-4-7.8-3.7,4.1-6.5,1.4c-6.8,4.8-8.4,13.7-14.5,19.2c-2.7,2.4-4.5,5.8-8.7,5.7l-2.3-2.4
	l101.5-136.6l2.9,2.9c0.1,7.3-4.6,12.3-8.6,17.4c-13.1,16.3-24.9,33.6-37.5,50.3c-8.6,11.4-17,22.9-21.1,37
	C1376.2,1297.8,1375.6,1300.8,1371.9,1300.5z"/>
<path class="st79" d="M1013.8,1904.5c0,5.3-0.1,11.8,6,13.2c8,1.8,10.4-6.1,14.2-11.1c-7.6,21.8-22.3,38.7-38.2,54.7
	c-0.8,0.8-2.3,0.8-3.4,1.2c-0.1-1.9-0.8-4.1-0.1-5.8C999.4,1939.2,1006.6,1921.8,1013.8,1904.5z"/>
<path class="st80" d="M1769.9,1938.5c0.4,8.1,2.6,13.6,12.1,8c-10.5,19.2-20.9,38.4-31.6,57.5c-0.7,1.2-2.5,1.8-3.7,2.7
	c-0.1-1.6,0-3.2,0.2-4.7C1752.3,1980.1,1760,1958.8,1769.9,1938.5z"/>
<path class="st49" d="M1897.9,1088.4c3.3-17.2,8-34.2,5.7-51.9c-0.8-2.7-4.5-4.7-1.8-8.1c9.1,0.2,13.4,5.2,15.1,13.9
	C1919.8,1057.6,1909.9,1082.5,1897.9,1088.4z"/>
<path class="st78" d="M2445.9,864.5l-0.5-2.5c-2.6-5.3,1.4-8.8,3.7-12.6c12.8-20.7,28.6-39.2,44.5-57.5c15.6-18,31.2-36.1,49.3-51.9
	c3.1-3,6.7-5.4,10.5-7.4l6.3,1.7c-25.8,20.3-46.2,45.8-67.9,70l-14.1,17.7L2445.9,864.5z"/>
<path class="st81" d="M1085.8,1002.4c3.2-4,6.4-7.9,9.6-11.9c5.8,10.2,10.5,2.7,13.7-1.7c8-11,15-22.7,22.4-34.1
	c0.8-1,1.7-2,2.7-2.8c-0.2,1.4-0.1,3-0.7,4.3c-4.7,9.9-9.8,19.6-14.2,29.6c-1.3,3-5.4,9.8,4.3,6.4l0.3,2.5l-14,21.9
	c-1.1,1.1-2.5,2.6-4,1.5c-2.1-1.6-1.8-3.7-0.1-5.7c0.6-1.2,1.5-2.3,1.7-3.5c0.6-4,7.6-8.3,1.9-11.6c-4.8-2.8-7.1,3.6-9.7,7
	C1095.4,1002.2,1089.3,1011.8,1085.8,1002.4z"/>
<path class="st82" d="M2598.2,590.9l5.7-8.3c19-4.5,32.9-17.8,48.5-28.1c1.2-0.8,1.6-2.7,2.3-4.1c-1.7-0.6-3.5-1.8-5.1-1.6
	c-4,0.6-5.8-0.8-5.5-4.7s4.1-6.1,6.1-4.8c18.7,11.7,39.6,4.7,59.2,7.3c0.8,0.1,1.6,1.1,2.3,1.7c-35.6-8.5-60.6,13.9-87.9,29.8
	C2615.6,583.1,2606.8,586.7,2598.2,590.9z"/>
<path class="st83" d="M2146,1494.3c3.1,3.6,1.6,11.9,9.2,10.7c11.3-1.8,3-13.6,8.6-18.6c-1.4,21.1-2.8,42.2-4.3,63.3
	c-0.1,1.1-1.1,2.1-1.7,3.1c-0.7-1-1.7-1.9-1.9-3C2152.6,1531.4,2149.3,1512.8,2146,1494.3z"/>
<path class="st84" d="M1193.9,974.5c-38.9,35.2-73.9,74.2-110.1,111.9c19.6-29.5,45.1-53.6,70.1-78.2c11.1-10.9,24.2-20,31.8-34
	C1188.6,971.3,1191.2,974.9,1193.9,974.5z"/>
<path class="st85" d="M1061.7,878.3c-4.6,5.8-3,8.4,4.2,8.2c-26.9,4.2-51.7,13-71.7,32.3c3.7-7.9-0.9-7.8-6.5-6.6
	C1009,893.5,1036.2,887.8,1061.7,878.3z"/>
<path class="st86" d="M2001.9,894.4l7.5,4.3l-37.6,43.7l-13.8,16.3c-5.7,7.7-11.4,15.5-17.3,23.2c-1.6,2-3.8,3.5-5.7,5.2
	c0.9-2.3,1.4-4.8,2.8-6.7c18.1-26.7,37.2-52.6,60.2-75.3C2000.9,902.2,2005.5,899.7,2001.9,894.4z"/>
<path class="st61" d="M1237.7,1596.1c-9,16.4-12.7,35.8-26.7,49.5c-5.4,5.2-0.3,14.4-7.6,18.6c5-21,9.5-42.1,22.4-60.2
	C1228.9,1599.7,1232.5,1596.9,1237.7,1596.1z"/>
<path class="st87" d="M1901.8,1028.4l1.8,8.1c-10.2-8.4-26-4.6-33.8,8.1c-2.2,3.5-5.1,6.7-7.6,10c-1.3,0.1-1.6-1-2-1.9
	c7.2-13.6,17.7-24.7,27.5-36.3C1893.7,1018.8,1901.2,1019.5,1901.8,1028.4z"/>
<path class="st88" d="M833.4,1039.9c0.9,4.1-4.5,9.2,2.1,12.3c-12.7,12.7-25.3,25.3-38,38c-1.5,1.4-3.2,1.3-4.1-0.3
	c-0.3-2.9,0.4-4.2,2.3-5.6L833.4,1039.9z"/>
<path class="st27" d="M2366.1,732.7c9.8-7.5,19.5-15.1,29.4-22.5c2.8-2.1,6.2-3.6,9.3-5.2c0.4,0.6,0.9,1.2,1.2,1.9
	c-5.2,2.8,0.4,12.1-7.7,13.1c-7.2,0.9-12.9,4.7-18.6,8.6c-2.5,1.7-5.9,3.7-0.1,5.8c-8.2,4-15.8,9.9-25.9,7.9L2366.1,732.7z"/>
<path class="st89" d="M1531.8,976.4c9.5-16.8,19.2-33.4,32.6-47.5C1565.3,952.8,1549.2,965,1531.8,976.4z"/>
<path class="st90" d="M2374,1250.5c-0.4-16.5,11.9-30,10.6-46.8c-0.3-4.4,3.6-11.7,2-12.8c-3.9-2.8-0.1,8.5-6.8,5.6
	c-0.6-5.3-1.2-10.7-1.8-16.1c18.2,5.5,14.4,19.9,11.3,32C2385.9,1225.5,2382.6,1239.2,2374,1250.5z"/>
<path class="st7" d="M2001.8,1540.5c2.1,6.3,4-0.9,6-0.1c-13.8,21.4-27.5,42.9-41.4,64.2c-1.3,1.9-39.1,83.8-41.1,85.3
	c0.8-2.4,36.6-85.8,37.9-87.9C1976,1581.5,1988.9,1561,2001.8,1540.5z"/>
<path class="st91" d="M1073.5,1014c9.7-8.8,11.4,2.8,16.3,6.3c-4.6,7.5-9.1,15.1-13.9,22.6c-0.7,1-2.6,1.3-4,1.9
	c1.2-7.5-4.8-15.2,1.1-22.7C1074.5,1020.2,1080.3,1017.1,1073.5,1014z"/>
<path class="st92" d="M979.7,1246.3c-0.2,2.9,0.1,6-0.5,8.8c-1.1,4.9-2.8,9.8,2.1,13.5c6.1,4.7,8.3-3,12.5-4.2
	c-4.9,8.9-9.6,17.9-14.7,26.7c-1,1.7-3.3,2.6-5,3.9c-0.4-1.8-1.2-3.5-1.2-5.3C973.2,1275,974.1,1260.3,979.7,1246.3z"/>
<path class="st93" d="M2520.2,716c-21-1.4-41.7,5-62.7,2C2478.1,707.5,2499,705.8,2520.2,716z"/>
<path class="st94" d="M1345.8,1100.4c1,10.7,7,9.8,14.2,6.2c-8,10.8-16.1,21.5-24.2,32.2c-0.6,0.8-2.1,1-3.1,1.5
	c-0.2-0.9-0.2-1.9-0.1-2.9C1337.1,1125.1,1338.3,1111.6,1345.8,1100.4z"/>
<path class="st95" d="M1097.6,1166.2l2.1,4.2c-10.9,23-21.9,46-32.9,69.1c-0.9,2-57.5,112.6-58.9,114.4c0.4-2.2,55-113.7,55.9-115.7
	C1075,1214.2,1086.3,1190.2,1097.6,1166.2z"/>
<path class="st96" d="M2521.8,642.4c15-13.3,31.5-24.3,50.1-31.9c-14.7,12.2-29.3,24.5-44,36.7c-2.2,1.8-4.6,3.4-6.8,5.1
	c1.1-2.3,2.2-4.5,3.2-6.8C2525.4,642.9,2523.1,643,2521.8,642.4z"/>
<path class="st84" d="M1067.6,1116.1l-8.1,14.2c-4.6,0.3-8.3,5.5-13.5,2.4c11-16.8,22.9-32.8,37.9-46.2
	c-5.2,7.5-10.6,14.9-15.4,22.7C1067.4,1110.7,1061.8,1113.1,1067.6,1116.1z"/>
<path class="st97" d="M1193.2,1138.7c4.7,3.1,2.3,7.8,2.6,11.8c0.4,5,0.2,10.5,5.3,13c5.6,2.8,9.1-1.8,12.7-5.1
	c-0.2,1.3,0.1,2.9-0.5,3.8c-4.6,7-7.7,19.2-16.1,17.9c-6.9-1.1-2-12.9-2.9-19.9C1193.4,1153.1,1193.5,1145.9,1193.2,1138.7z"/>
<path class="st98" d="M1315.6,768.2c5,9.4,6.7-2.8,10.4-1.6c-10.2,13.8-21.3,26.3-40,28c-0.5-0.5-0.7-1.2-0.3-1.8
	c-2.7-4,0.3-6.3,3.1-7.8c8.5-4.4,16.4-9.3,23-16.2C1312.8,767.8,1314.2,767.9,1315.6,768.2z"/>
<path class="st99" d="M1431.8,1138.4c0.3,2.3,1.3,3.3,3.6,1.7c-10.2,21.2-20.3,42.4-30.5,63.5c-0.6,1-1.4,1.9-2.3,2.8
	c0.1-1.2-0.2-2.7,0.3-3.7C1412.6,1181.3,1422.2,1159.8,1431.8,1138.4z"/>
<path class="st100" d="M1045.7,1464.3c0.2,7.8,5.1,9.8,11.8,10c-3.4,9.8-14.4,12-20.1,19.5c-0.4,0.5-1.7,0.4-2.6,0.6
	c0-1.6-0.6-3.5,0-4.8C1038.2,1481.1,1042,1472.7,1045.7,1464.3z"/>
<path class="st101" d="M915.9,1052.7c0,1.9-0.1,3.8-0.1,5.7c-17.5,5.7-35.1,11.4-52.6,17.1c-0.9,0.3-2.1-0.3-3.2-0.4
	c0.7-0.6,1.6-1.2,2.4-1.7C880.2,1066.5,898,1059.6,915.9,1052.7z"/>
<path class="st102" d="M2032,909.9c10.9,9.4,23.4,12.8,37.5,10.4c-19.5,12.8-25.3,11.3-39.6-10L2032,909.9z"/>
<path class="st103" d="M1106,1012.5c0.1,2.6-0.4,5.8,4,4.2c-4.5,10.5-9.2,21-18.2,28.7c-1.7-11.8,8-19.1,11.2-29.1
	C1103.5,1014.9,1105,1013.8,1106,1012.5z"/>
<path class="st72" d="M1191.6,1712.1c7.2,9.6-1.8,19.1-0.1,28.7l-3.1-10.2c-1.6,3.6-3.1,7.2-4.9,10.7c-1.5,3-3.3,5.9-5,8.9
	c0.8-3.5,1.2-7,2.4-10.3C1184.3,1730.5,1188,1721.3,1191.6,1712.1z"/>
<path class="st104" d="M1123.5,1592.2l2.2,2c-9.4,11.8-18.7,23.7-28.2,35.5c-0.9,1.1-30.1,37.4-30.7,36.9
	c-2.5-1.6,26.2-38.4,27.4-39.9C1103.9,1615.3,1113.7,1603.7,1123.5,1592.2z"/>
<path class="st105" d="M2279.4,962.1l0.3,2.3c-11.3-5.9-22.8-11.1-36-6.1C2256.2,954.2,2269.2,945,2279.4,962.1z"/>
<path class="st106" d="M1159.8,1542.4c0.2,14.3-13.4,18.7-20.1,28C1141,1557.2,1153.6,1552.1,1159.8,1542.4z"/>
<path class="st107" d="M1339.8,672.4c-4.6-2.6-4.4,2.1-6,4c-8.2-2.1-3.5-8.8-4.7-13.4c-0.4-1.6-0.3-3.2,0.4-4.7l5.8-6.3
	C1336.8,658.8,1338.3,665.6,1339.8,672.4z"/>
<path class="st7" d="M1465.7,1836.3c0.2-6.9,0.6-13.7,4.2-19.8c4.4,1.8,5.5-2.2,7.7-4.3c2.9-2.7,4.9-7.2,10.2-5.7l-0.1-0.1
	L1465.7,1836.3z"/>
<path class="st0" d="M2553.5,732.7c-29.7,29.4-58.5,59.7-83.8,93c-8.8,11.6-18.2,22.9-24.2,36.4c-12.6-22.2-24.4-13.7-37,0.3
	c-3.7,4.1-9.8,8.8-14.6,8.5c-5.4-0.3-3.1-8.2-4.3-12.7c3.6-33.3,5.3-66.5,0-99.8l8.7-15.4c20.1-6.3,40.9-6.4,61.7-6.8l35.9,0.3
	C2515.3,738.9,2533.9,729.4,2553.5,732.7z"/>
<path class="st0" d="M1227.9,844.5c45.2-11.4,90.1-23.7,135.9-32.1c1.3-1.3,3-1.1,4.6-1c1.9,0.1,4.4-0.7,5.4,1.3
	c1.2,2.4-0.4,4.6-2.2,6c-9.1,6.9-16.7,15.9-27.6,20.2c-13.5,3.7-26.5,8.7-40.2,11.6c-1,0-1.9,0.5-2.5,1.3c0.7-0.8,1.6-1.2,2.6-1.3
	c6.1-0.6,12.5-3.4,18.1,1.7c1.5,4-1.3,6.2-3.8,8.1c-6.5,4.9-12.1,10.8-18.9,15.2c-13.9,11.2-27.9,22.2-41.5,33.8
	c-2.9,2.2-5.1,5.2-6.5,8.6c-10.3,9.7-20.6,19.5-31,29.1c-3.7,3.4-7.3,7-11.7,9.2c-3.9,2-8.8,2.1-13.2,3c0.7-6,6.5-4,9.6-6.2
	c6.2-4.4,12.2-9.1,18.1-14c3.4-2.9,3.7-7,2.4-11c-1.3-3.8-5-3.8-8.3-4.3c-17.2-2.4-33.4,1.8-49.5,6.9c-2.9,0.9-5.5,2.8-8-0.6
	l24.5-39.7c6.9-8.1,17.3-8.4,26.4-10.5c25.6-5.9,50.9-12.6,76.7-17.8c1-0.1,1.9-0.3,2.8-0.6c-1-1-1.5,0.4-2.4,0.5
	c-26.8,4.7-53.3,10.9-79.6,18.1c-5.5,1.5-11.3,5-17,0C1198.1,863.1,1214.6,855.4,1227.9,844.5z"/>
<path class="st108" d="M1330.2,662.7c1.2,4.6,2.4,9.1,3.6,13.7c0.1,31.8-1.5,63.3-18.3,91.8c-6.8,12-21.5,14.5-29.8,24.6l-13.5,1.3
	c1.4-8.4,7.5-14.2,11.8-20.9c10.6-16.7,25.1-30.5,34.2-48.5c7-13.8,10.2-27.8,9.2-43C1327.1,675.1,1326.5,668.6,1330.2,662.7z"/>
<path class="st109" d="M1191.1,880.4c28.2-6.2,56.3-12.6,84.5-18.5c6.6-1.4,13.5-1.4,20.3-2c-6.4,2.4-12.6,5.4-19.2,7.1
	c-30.8,8.1-61.7,15.8-92.5,23.6L1191.1,880.4z"/>
<path class="st110" d="M1330.2,662.7c0.3,29.8-2.7,58.6-22,83.3c-12.3,15.7-24,32-35.9,48c-4,1.7-9.3,4.6-10.8-1.4
	c-1.9-7.8,4.5-1.7,6.8-2.8c8.6-4.1,10.6-13.3,15.4-20.3c13-19,30.7-34.9,38.1-57.8c3.5-10.7,4.4-21.4,4-32.4
	c-0.3-7.3-0.8-14.7,3.7-21.2C1329.7,659.8,1330,661.2,1330.2,662.7z"/>
<path class="st19" d="M1133.8,2180.5c-21.3,29.3-42.7,58.6-64,87.9c-1.3,1.4-0.2,4.9-3.8,4.1c-9.1,7.7-18.9,14.8-27.2,23.3
	c-9.8,10.1-21,17.8-32.2,26.1c-19.8,14.7-37.3,32.6-55.8,49.1c-0.8,1-1.5,2-2.1,3.2c1.5-0.2,3.3,0.1,4.4-0.7
	c7.8-5.6,15.3-11.7,23.2-17.2c3.5-2.5,7.4-2.8,10.9,0.6c3.5,3.4,1.4,7.4-0.3,10.1c-20.2,31.2-39.8,63.3-67.6,88.4
	c-15.9,14.4-34.5,25.7-51.9,38.5c-2.5,1.8-5.3,3.8-8.1,1.4c-2.8-2.4-0.9-5.5,0.2-8.2c11.3-28.2,28.4-52.3,50.1-73.3
	c3.8-3.7,4.7-7.2,4.7-12.8c0.2-18.3,13.3-31.3,22.3-45.6c20-31.9,40-63.9,62.7-93.8c11.8-15.6,28.7-27.5,44.3-39.8
	c23.3-18.5,51-29,78.5-39.4C1125.7,2180.8,1129.9,2181,1133.8,2180.5z"/>
<path class="st18" d="M1071.7,2270.3l65.9-88.1c4.1,6.2,7.8,6.2,11.8-0.4c4.2-7.1,8.9-13.9,14-20.4c1.7-2.1,2.4-5.8,6.4-5.1
	c1.4,5.5-2.9,14.8,2.5,15.7c4.7,0.8,3.2-9.2,5.3-14.2c2.6-6.2,4.1-13,6-19.5c19.5,27.5-0.1,52-6.2,77.4c-3.9,16.2-5.6,32.9-15.3,48
	c-13.1,20.4-26.9,41.2-46.4,53.8c-14.4,9.3-33.1,15.6-52.2,17.3c-11.9,1.1-23.2,7.8-35.8,5.5c-1.4-2.8-0.2-5.2,1.2-7.4
	c12.1-20.8,26-40.3,39.7-60.1C1069.4,2271.7,1070.5,2270.9,1071.7,2270.3z"/>
<path class="st111" d="M1196,2090.5c-1.3,1.8-3.3,3.5-3.7,5.6c-1.5,7.5-5.3,14.3-13,13.7c-9.5-0.8-4.2-9.9-5.6-15.4
	c-3.7-11-2.8-22.5-0.2-33c1.8-7,2.6-14,4-21c6.1-32.3,8.8-65.7,18.9-96.8c16.5-50.7,29.5-104.2,73.3-141.1c-2.5,20-5.2,40-7.4,60
	c-0.3,2.5-4,7.8,3.1,7.8c4.5,10.7,1.4,20.4-4,29.8l-3.6-8c-5.2,4.4-4.2,10.4-4.2,16.2c2.8,2.7,2.7,6.4,1.5,9.4
	c-12.8,33.5-19.2,69.1-33.2,102.1c-5.1,19.4-13.4,38-16.2,58.1C1203.3,2082.7,1203.7,2089.8,1196,2090.5z"/>
<path class="st19" d="M1177.6,2040.3l-3.8,54.1c-5.4,8.1,1,17.9-3.9,26l-2.1-6.2c-1.1,1.4-2,3.1-3.3,4.2
	c-16.4,12.7-34.1,23.2-49.3,38.1c-13.5,13.2-29.3,24.4-42.7,38.1c-3.3,3.4-6.9,9.4-12.1,6.3c-5.2-3.1-2.4-9.4-0.2-13.6
	c12.5-23.8,27.1-46.1,43.2-67.8c9.3-12.5,21.4-22.6,29.3-36.3c5.6-9.7,20-8.3,27.6-17.6C1166.8,2057.4,1177.7,2052.9,1177.6,2040.3z
	"/>
<path class="st112" d="M1071.7,2270.3c-14.7,23.3-29.3,46.6-44,69.9c-21.9,28.9-39.1,60.8-56.8,92.3c-21.3,38-41.2,76.8-57.4,117.3
	c-0.9,1.7-1.9,3.3-3,4.8c0.4-2.5,0.2-5.2,1.1-7.5c17.8-46.3,40.2-90.3,65.4-133.1c28.3-48.1,56.2-96.4,88.9-141.6l3.9-4.1
	L1071.7,2270.3z"/>
<path class="st0" d="M995.4,2370.6c-0.4-0.4-0.9-0.8-1.3-1.2c10.1-10.6-8.9-29.7,11.1-37.4c3.6-1.4,6.9-5.9,10.5-3.5
	c1.6,1.1,0.7,6.7,0,10c-2.4,12.6-13.6,20-18.7,31C996.8,2370.1,995.9,2370.3,995.4,2370.6z"/>
<path class="st0" d="M1641.8,834.5c4.7,2.8,2.8,5.1-0.4,7.8c-13.3,11.2-26.6,22.6-39.8,33.9l-3.8,2c-50.1,9.6-98.9,24-147.7,38.7
	c-2.8,0.9-5.7,1.6-8.5,2.4c1.9-2.4,3.7-4.8,5.6-7.2c3.2-4,8.7-6.1,9.7-11.9c-4.4,2.5-8.9,4.9-13.3,7.5
	c-10.2,6.1-19.5,13.7-31.3,16.8c-6.9,2.3-13.6,5.5-21.2,2.4c-2.2-0.9-4.8-0.3-6.9,0.5c-17.8,6.7-36.9,5.6-55.1,9.7
	c-6,1.4-11.6,3.6-17.4,5.3c-26.5,6.1-53.4,9.1-80.3,12c-6.7,0.7-4.7-2.6-2.1-5.4c10-11.1,20-22,30.1-33c1.2-3.1,3.3-5.8,6-7.8
	c1.4-0.9,2.7-2,3.8-3.2c26.7-30.7,63.3-39.3,101-45.4c2.9-0.5,5.9-1.1,8.7-2c30.2-6.9,61-10,91.7-14.1c10.4-0.5,20-4.7,30-7.1
	c16.6-4.1,34.2-1.3,50.3-6.1c25.6-7.7,50.8-1.7,76.1-1.1C1632.3,829.5,1637.9,829.9,1641.8,834.5z"/>
<path class="st3" d="M1311.8,942.5c14.7-12.2,33-10,50.2-12.1c2.5-0.3,5.2,1.4,8-0.7c13.1-9.9,28.3-2.7,42.4-5.1
	c-54,31.9-111.8,55.9-169,80.9c-6.3,2.8-13,4.6-19.5,6.8c-3.7-10.9-4.8-22.5-12.6-32.1c-4.2-5.3,1.8-9,7-9.8
	c55.4-8.5,110.4-18.9,163.7-36.5c1.9-0.8,3.7-1.8,5.5-2.9c-1.9,0.2-3.9,0.2-5.8,0.5C1358.3,935.2,1335,938.9,1311.8,942.5z"/>
<path class="st113" d="M1377.8,860.4c-15.1,3.4-30,8.2-45.3,10c-24.9,2.9-40.2,20.5-58,34.5c-4.9,3.9-10,7.5-15,11.2
	c-3.7-3.2-5.2,2.5-8.2,2c-3.5-2.8-1.6-4.9,0.9-6.9l45.3-37c10-3.8,17.6-11.5,26.5-17c2.8-1.7,5.3-5.8,9.1-1.4
	c1,6.9-4.6,8.9-8.8,11.8c-1.3,0.9-2.8,1.8-4.5,0.9c1.6,1,3-0.1,4.4-0.6c15.8-5.7,31.7-11.2,48.5-12.8
	C1372.7,858.4,1375.6,859.1,1377.8,860.4z"/>
<path class="st114" d="M1187.6,1021.7c1.8,10.7-6.2,11.8-12.4,14.4c-0.4,0.2-2.2-1.7-2.1-1.8c4.1-6.7,7.4-14.3,12.9-19.5
	C1187.8,1013.1,1185.3,1020.3,1187.6,1021.7z"/>
<path class="st0" d="M1371.9,1300.5c14.8-42.7,48.8-72.8,72.3-109.8c6.7,11.2-0.8,21.4-3.1,31.4c-9.2,41-7.9,83.9-21.6,124.1
	c-3.3,14.8-2.6,30.4-9.3,44.5c-0.5,1.1-1.5,3-0.7,3.6c1.3,0.8,2.1-1.1,2.7-2.1c5.4-8.9,13-15.9,19.8-23.6
	c16.7-28.7,36.4-56.4,46.6-88c9.5-29.8,15.8-60.6,18.8-91.8c1.8-18.6,6.5-38.1,0.2-57.3c-2.7-8.2,1.8-15.5,6.7-22.1
	c49-65.6,101.3-128.6,161.1-184.7c32.2-30.2,66.7-58.1,108-75.8c14.6,7,30.7,8.3,46.2,11.7c24.2-0.3,48.1,5.5,72.4,1.6
	c11.1-1.8,21.9,1.3,32.2,4.5c21,6.5,43.7,6.8,63.2,18c2,4.4-1.3,6.4-3.9,9c-48.1,48.3-91.1,100.8-130.2,156.4l-39.4,50.3
	c-8.7,10.8-20.9,18.5-26.5,31.9c-1.5,3.7-5.7,4.6-9.6,3.8c-6.8-1.4-13.1,0.7-19.5,2.6c-21.6,6.7-42.5,15.5-64.2,22
	c-12.9,3.8-24.4,12.3-34.4,21.6c-9.8,9.1-18.8,18.9-31.9,23.3c-5.7,1.9-6.9,8-10.9,11.3c-20.2,16.5-32.9,39.3-49.9,58.4
	c-10.7,12.1-19.3,25.5-26.8,39.7c-3.9,8.1-8.7,15.7-12.6,23.8c-0.4,0.9-1.6,1.6-1.2,2.8c0.4-0.9,1-1.7,1.6-2.5
	c4.7-6.9,10.7-12.8,16.4-18.8c14.4-13.3,25-30.2,40.1-43c23.1-19.5,47.3-37.4,71.8-55c3.3-2.4,7.2-3.5,11-4.6
	c24.6-6.8,44-22.5,63.2-38.3c12-10,23.6-20.5,36.3-29.5c2.4-0.8,4.4-2.8,6.8-3.4c5.4-1.4,6.2,1.1,3.8,5.5
	c-14.3,20.7-29,41.2-42.8,62.2c-36.9,56.3-70.5,114.7-103,173.6c-22.2,40.1-41.9,81.4-62.2,122.4c-2.4,4.7-6.2,7.5-11.2,9.3
	c-10.6,4-20.2,10.1-31,14c-4.1,1.4-8.2,3.9-10.5,7.4c-9,13.6-23.5,20.2-35.9,29.4c-4.1,3.1-6.8,7.3-9.8,11.2
	c-9.5,12.6-21.2,22.7-33.3,32.6c-10.4,8.4-17.9,19.8-24.8,31.2c-4.5,7.5-9,14.8-15.1,21c-5,5-5.7,12-9,17.7
	c-3.8,5.5-4.5,12.5-8.5,17.9c-2.1,2.9-3.9,7.4-8,6.4c-4.2-1.1-3.3-5.9-3.5-9.4c0-1,0-2,0.1-3c-1.6-16.5,0.7-33.2-0.6-49.6
	c-1.5-18-6.7-35.8-12.1-53.2c-1-3.2-2.5-6.1-1.9-9.6c2.3-13.4-3.3-25.4-6.8-37.7c-4.8-17-13.6-32.3-21.8-47.8
	c5.8-30.2,11.8-60.4,17.3-90.7C1350,1371.1,1361.5,1335.9,1371.9,1300.5z"/>
<path class="st115" d="M1432,1368.6c-5.2,12.8-15.9,21.8-23.7,32.8c-0.6,0.9-2.1,1.2-3.1,1.8c-0.1-1.5-0.7-3.2-0.3-4.5
	c4.8-17.5,9.7-34.9,14.5-52.4c-0.4,4.2-0.8,8.4-1.2,12.6c-0.5,4.6-1.2,9.6,3.1,12.7C1425.6,1374.4,1428.5,1369.8,1432,1368.6z"/>
<path class="st116" d="M1381.7,1952.4c-6,7.2-12-3.2-18,0.1c-0.2-10.2,8.9-14.4,14.3-20.2c20.9-22.6,41.3-45.5,61.8-68.4
	c2-2.3,4.1-7,7.5-5.1s1.6,6.4,1,9.9c-2.7,8.8,2.5,22.1-15.9,21.3c-7.8-0.3-14.5,9.6-19.6,17.1
	C1402.2,1922.1,1392,1937.2,1381.7,1952.4z"/>
<path class="st117" d="M1448.2,1868.6l-0.8-7.8c-2.2,1.6-4.3,3.4-6.3,5.4c-25.8,28.7-51.7,57.5-77.4,86.3
	c-26.4,25.4-52.7,50.8-79.2,76c-2.2,2.1-3.5,7.3-8.5,4.2c0-3.8,2.7-6,5-8.3c13.6-13.2,27-26.6,40.9-39.7c22.3-21,42.6-44,63.8-66.1
	c19.6-20.5,37.5-42.4,56.4-63.4c2-2.2,3.6-6,7.9-4.7c-0.1,6-0.1,12-0.2,17.9C1449.2,1868.4,1448.7,1868.5,1448.2,1868.6z"/>
<path class="st118" d="M1513.7,1676.3c0.7-2,1.4-4,2.1-6c2.5-1.7,4.6-3.9,6.1-6.5c9.7-15.8,23.1-28.3,37.4-39.9
	c15.2-12.4,24.6-9.2,29.9,10.3c-3.6,14.1-12.9,25.3-19.9,37.7c-3.1,5.4-7.6,10.3-7.8,17c-3.3,9.8-10.2,17.6-15.7,26.2
	c-1.5,2.4-3.9,5.6-7.1,3.3c-3-2.2-0.6-5.4,0.7-8c0.8-1.4,1.8-2.8,2.8-4.1c0.8-1.1,1.6-2.1,2.3-3.2c-0.7,0.8-1.2,1.8-1.9,2.5
	c-4.3,4.5-6.9,10.3-11,15C1525.6,1705.9,1526.3,1688.4,1513.7,1676.3z"/>
<path class="st119" d="M1531.5,1720.7c-0.8-12.3,12-15.7,16.3-24.6c0.1-0.3,1.6,0,2.4,0c-0.4,1.2-0.8,2.4-1.3,3.6
	c-3.1,5.9-8.6,10.5-9,17.8c4.1-5.9,8.2-11.7,12.2-17.6c2.6-3.8,5.1-7.6,7.7-11.4c0.1-6.8,5.5-11,8.6-16.1
	c17.5-28.5,32.4-58.4,49-87.4c2-3.5,2.5-8.6,8.2-8.8c6.1,1.9,3.7,5.2,2.1,9.3c-9.3,23.6-22.5,45.1-31.3,69.1
	c-13.6,36.9-30.9,72.7-53.5,105.5c-1,1.2-2.1,2.2-3.3,3.2c-1.1-2.3-3.1-4.7-3-6.9c0.3-5.6,1.6-11.2-2.8-15.9
	C1533,1733.8,1532.3,1727.3,1531.5,1720.7z"/>
<path class="st120" d="M1487.9,1806.5c-4.2,4.4-8.4,8.9-12.7,13.2c-1.4,1.2-3,2.3-4.6,3.3c-0.2-2.1-0.4-4.3-0.7-6.4
	c7-27.2,15.7-53.9,25.9-80C1498.9,1760.5,1498.5,1784,1487.9,1806.5z"/>
<path class="st121" d="M1342.2,1326.9c7-8.7,13.9-17.3,20.9-25.9c0.2-0.2,0.5-0.5,0.7-0.7l1.6,1.7l-11.6,28.4l-11.8-2
	C1342.1,1327.9,1342.2,1327.4,1342.2,1326.9z"/>
<path class="st122" d="M1625.7,1576.2c-21.7,37.6-40.8,76.7-65.8,112.3c-1.8-11.9,8.9-18,12.9-27.2s9.9-17.9,15-26.8
	c-0.7-3.6,1-6.5,2.7-9.3c16.6-26.9,31.1-55,45.7-83c1.7-3.2,2.3-8,7.7-7.6c-1.3,11.3-2.7,22.7-4,34l-1.3-12.1
	c-2.7,3.4-5.5,6.8-7.9,10.4C1628.8,1569.8,1627.2,1572.9,1625.7,1576.2z"/>
<path class="st0" d="M1449.9,1850.5c-54.6,63.9-112.7,124.7-174,182.2c-2.8,2.4-5.3,5.1-8.3,7c-3.2,2-6.4,9.6-9,5.6
	c-2.6-4-3.5-12.3,3.2-16.9c3.3-2.2,6.6-4.4,9.7-6.9c2.6-2.1,5.3-4.8,3.7-8.5c-1.8-4.1-6-3.1-8.7-2.1c-9.2,3.3-8.9-2.2-8.9-8.5
	c0-34.2,0.1-68.3,4-102.3c1.3-10,2.7-19.9,4-29.8c14.9-50,13.9-102.5,24-153.4c8.7-43.9,15-88.2,22.4-132.4c1.3-0.5,3.1-0.5,3.6,0.7
	c4.3,10.2,11.6,19.5,10.2,31.5c-1.9,15.8,0.9,31.4,4.8,46.2c6,22.2,9.4,44.7,14.1,67.1c-0.7,11.6,1.1,22.9,2.6,34.3
	c-1.8,19,1.6,38.3-2.1,57.3c-0.2,0.9-0.2,1.8-0.4,2.8c0.6-0.8,1-1.7,1.2-2.6c3.8-9.9,6.8-20,9-30.3c2.4-8,1-18.2,12.9-20.7
	c2.4-0.5,2.8-5,4.3-7.6c9.7-17,14-36.6,26.4-52.2c3.7-4.7,7.5-9.2,11.6-13.6c17.7-18.3,34.2-37.8,52-56
	c11.6-11.8,23.4-23.8,35.8-34.3c10.3-8.7,20.1-17.9,30.1-26.8c3.2-2.8,7-5.5,11.5-1.7l-48.1,123.9c-11.8,17.7-23.3,35.6-36.2,52.6
	c-9.2,12.2-16,26-25.7,38c-0.8,1-2.1,2.6-1.1,3.5s2.5-0.5,3.4-1.4c8.5-8.5,18.7-14.9,27.7-22.8c2.6-2.3,8.5-7.9,8.3,2.5
	C1462,1800,1455.9,1825.2,1449.9,1850.5z"/>
<path class="st0" d="M1643.9,1534.5c-18.6,33.3-34.8,68-56.1,99.8c-10.3-19.7-12-19.6-30.2-5c-12.7,10.3-24,21.6-32.8,35.4
	c-2.1,3.2-3.8,7.3-9,5.6c12.8-44.4,33.9-85.5,52.3-127.6c2.3-2,3.4-5.1,5.6-6.9c9.6-7.9,15.3-16.8,9.8-29.6c1.3-2.7,2.5-5.5,3.8-8.2
	c13.6-6.1,21.6-18.3,31.3-28.5c11.4-11.9,21.2-25.5,33.9-36.2c3.4-2.8,6.8-7.6,11-0.9c0.4,22.4,1,44.7-9.9,65.5
	c-3.2,6.1-7.6,12.8-2.3,20.2C1648.9,1523.7,1646.4,1529.1,1643.9,1534.5z"/>
<path class="st123" d="M1539.6,1578.4c-3.4,1-7.7,1-10,3.2c-26.7,25.1-53.4,50.3-79.5,76c-13.2,13-25.3,27.3-37.8,41
	c-3.9,3.4-8.4,5.3-13.6,4.7c-10.7-1.1-14.8-9-11.1-21.2c15.7-27,29.4-55.2,55.4-75.2c12.5-9.6,23.4-21.9,32.5-35.4
	c2.7-4,8.3-5.9,12.1-9.3c24.2-21.8,51.9-39.4,82-51.9C1560.9,1533.6,1545.9,1554.1,1539.6,1578.4z"/>
<path class="st0" d="M1817.8,1180.4c-19.5,44.5-39,89.1-58.4,133.6c-20.3-9.7-36.4,3.1-52.2,11.5c-11.2,6-28.5-0.2-34.1,16.7
	c-0.9,2.1-1.9,4.2-3.1,6.2c0.4,2.3,0,4.6-1,6.7c-0.8,1.7-2.2,2.5-4,1.7c-2.4-1-2.2-2.9-1.4-4.9l62-103.9c5.6,0.4,4.1,4.7,4.3,8
	c0.1,2.2-1.3,5.2,1.5,6.1c2.4,0.8,3.9-2,5.5-3.6c2.1-2.1,4-4.4,5.8-6.8c17.2-23.2,36.5-44.5,56.3-65.3c3.8-4.1,8.5-7.4,13.6-9.8
	C1815.7,1175.3,1819.6,1174.3,1817.8,1180.4z"/>
<path class="st124" d="M1817.8,1180.4c-8-5.6-12.2,3.2-15,6.3c-22.2,24.3-43.3,49.6-64.8,74.6c-2.4,2.8-3.5,8.6-8.7,6.3
	c-5.2-2.3-3.4-7.2-2.2-11.4c0.8-3,1.6-5.9-1.5-8.1c41.9-66,86-130.6,132.4-193.5l2.2-1.9l2,1.9c-5.6,19.8-4.9,41-14.4,59.8
	C1834.9,1135.1,1827.5,1158.3,1817.8,1180.4z"/>
<path class="st125" d="M1663.4,1352c1.6,4.8,3.1,4.7,4.7,0c0.5-1.2,1.1-2.4,1.8-3.5l2.4,0.2c-3.4,24-7.4,47.9-6.5,72.3
	c0.1,3.8-1.5,7.6-2.2,11.5c-13.9,1.8-19.7,13.8-27.9,22.5c-12.8,13.7-25,28-38,41.5c-1.9,2-6.8,1.1-10.3,1.5
	C1611,1448.5,1635.6,1399.4,1663.4,1352z"/>
<path class="st90" d="M1468,1774.7c-1.7-6.2-4.3-2.9-6.8-0.7c-9.8,8.4-19.6,16.8-29.3,25.2c-2.6,2.2-5.6,4.9-8.6,2s0.6-5.2,2.3-7.5
	c22.8-29.8,40.4-63.5,66-91.3C1483.7,1726.5,1475.9,1750.6,1468,1774.7z"/>
<path class="st126" d="M1757.8,1136.4c23.4,2.1,33.6-16.7,47.6-29.7c2.6-2.4,5.7-4.2,8.5-6.2l-36.2,51.7c-3.3-10.7-6.8,5-10.2-0.1
	c-0.3-0.9-0.3-2,0.2-2.8c3.9-6,2.9-9.7-4.9-10.2C1760.8,1139,1759,1138,1757.8,1136.4z"/>
<path class="st127" d="M1583.5,1506.3c13.3,13.5,5.1,20.4-15.4,36.5C1573.2,1530.6,1578.4,1518.4,1583.5,1506.3z"/>
<path class="st3" d="M1219.8,2018.4c10.1-28.9,20-57.8,26.8-87.7c1.7-7.6,8-13.8,7.2-22.3l2.7-3.9c0.4,1.4,1.2,2.9,1.1,4.3
	c-1.1,14.7-2.3,29.3-3.6,44c1.8,10.5-1.2,21-0.5,31.5c-1.5,6.9-1.2,13.9-0.8,20.8c0.6,9.5-3.6,15-12.1,18.2c-4,1.5-8,3.3-12.2,4.3
	C1220.3,2029.5,1218.6,2027.7,1219.8,2018.4z"/>
<path class="st128" d="M1196,2090.5l7.4-12.4c10.8-16.1,26.2-27.2,41.7-38c6.5-4.6,7.7-3.3,9.5,8.2c0.3,1.5,0.5,2.9-0.9,3.9
	c-8.6,8.8-21.1,13-27.7,24.2c-8.8,9-17.5,18.1-26.4,27c-2.1,1.9-4.4,3.7-6.7,5.4c0.5-2.5,1.2-5,1.6-7.6
	C1195,2097.7,1195.5,2094.1,1196,2090.5z"/>
<path class="st129" d="M1253.6,2052.3c0-1.3,0.1-2.6,0.1-3.9c-1.4-5-0.9-10.4-4.4-14.9c-1.5-2-1.7-5.3-1-7.7
	c3.9-13.6,1.5-27.7,3.1-41.4c0.9-10.5,1.7-21.1,2.6-31.6c3.9,26.6,0.8,53.3,1.6,80c0.2,7.2,0,14.3,0,21.5c0,0.1-0.7,0.4-0.7,0.3
	C1254.5,2053.8,1254.1,2053.1,1253.6,2052.3z"/>
<path class="st0" d="M2117.6,868.3l-17.9,6c-31.9-5.9-66.4,3.6-96.2-12c-29.8-15.6-62.2-21.6-93.4-31.4c-12.8-4-28.1-0.5-42.3-0.3
	l-9.4-1.5c3.3-0.1,6.6-0.1,9.9-0.4c36.4-3.4,71.7-13.4,107.5-20.1c51.3-9.4,104.7-0.5,155.2-14.8c48.5-13.7,97-26.9,146.6-36.1
	c6-1.1,11.9-3.6,18.2-1.3c-22.2,16.9-48.9,25.7-72.6,39.8c-28.1,16.7-56.6,32.7-82.4,53.1C2132.8,855.4,2122.7,858.7,2117.6,868.3z"
	/>
<path class="st0" d="M1795.8,788.4c22,6,43.9,12.4,64.4,22.6c2.3,1.1,4.4,2.6,6.5,4c-2.6,1-5.1,2.5-7.8,2.8
	c-19.7,2.3-39.4,4.3-59.2,6.4c-33.6,1.5-65.8-6.3-98.2-13.8c-3.1-0.7-6.4-0.1-9.7-0.2c-17.2-4.1-34.7-2.9-52.1-3
	c-13.3-0.1-26.8-1-39.7-5.1l-100.3-7.8c22.3-12.2,46.9-14.8,71.6-17.1C1646.8,770.4,1721.4,777.9,1795.8,788.4z"/>
<path class="st130" d="M1600.1,802.1c30.7,1.6,61.5,1.5,91.8,8.1c-14.1-0.6-28.2-1.3-42.4-1.7c-3.6-0.1-8.1,0.2-9,4.3
	c-0.9,3.9,4.1,4.5,6.1,6.9c9.8,12,26.9,2.2,37.2,12.5c-8.1,5-16.6,7.2-26,4.3l-16.1-2c-20.5-2-41.7-8.3-61.2-4.8
	c-29.6,5.2-60.1,3.9-89.1,12.9c-6.9,2.1-14.2,2.8-21.3,4.1c-7.6,2.1-15.8-0.8-23.4,2.3c-2.4,1-4.5-0.6-5.9-2.6c-2-3-1.8-6.3-0.2-9.4
	c1.4-2.7,4.6-3.7,6.4-6.1c12.4-7.5,25.6-11.1,40.2-8.9c10.6,1.3,21.3-0.5,30.9-5.1c19.6-9.3,40.5-7.3,61.2-6.6
	c2.1,0.1,4.2-0.8,6.4-1.2c-1.5-0.9-3-1.9-4.4-2.9c-0.7-0.8-1.3-1.7-1.8-2.6c1.2-0.5,2.4-0.8,3.6-1
	C1588.8,802.3,1594.5,802.3,1600.1,802.1z"/>
<path class="st3" d="M1487.3,822l-37.7,10.1c-20.8,13.1-45.2,16.5-67.8,24.8c-2.5,1-5.4,0.8-7.8-0.4c-15.5,4.1-30.9,8.2-46.4,12.2
	c-2.5,0.5-5,0.9-7.6,1.1c1.7-1.9,3.5-3.6,5.1-5.5c2.6-3.1,7.8-4.4,6.7-10c1.5-7.8,8.7-8,14.1-10.6c31-7.2,61-17.5,90.5-29.3
	c3-1.4,6.2-2.1,9.5-2c23.4-2.6,46.9-4.2,70.4-1c1.6,0.3,3.1,0.8,4.6,1.3c-1.2,0.8-2.5,1.5-3.9,2C1507,817.2,1497.1,819.6,1487.3,822
	z"/>
<path class="st131" d="M1445.8,812.5c-31.7,16-65.3,26.5-99.9,34.1c-1.7-4.8,2.4-6.4,5.1-8.2c7.3-5,14.3-10.4,21.8-15.1
	c12.5-1.7,23.1-8.8,34.8-12.6L1445.8,812.5z"/>
<path class="st132" d="M1374.2,824.7l-28.3,21.9l-14.1,7.8c-10.1,7-20.3,14-30.3,21.1c-2.3,1.6-3.4,1.4-4-1.3l24.2-19.9
	c4.7-9.3,13.4-13.6,22.2-17.7c8.6-6.5,17.3-12.9,25.8-19.4c1.1-0.9,1.7-2.5,2.6-3.7l-8.5-1c12.5-6.2,25.5-0.9,38.3-1.8
	C1394,817.7,1383.8,820.5,1374.2,824.7z"/>
<path class="st133" d="M1374.2,824.7c8.6-6,16.9-12.6,27.8-14h5.5C1398.3,818.9,1386.6,823.8,1374.2,824.7z"/>
<path class="st108" d="M1657.9,836.6l26-4.3l26.1,6.1c-26.8,13.9-55.6,22.4-84.3,31.2c-1.2,0.2-2.5,0.3-3.8,0.2
	c0.8-1.3,1.3-2.9,2.4-3.8C1635.4,856.1,1646.6,846.3,1657.9,836.6z"/>
<path class="st11" d="M1341.9,1728.4c-6.8-34.2-18.6-67.8-19.4-102.8c-0.1-14.3-3.8-28.4-10.6-41l14-86.4
	c15.9,15.4,22.2,35.8,27.3,56.1c6.8,27.4,10.7,55.7,16.9,83.3c4.3,19-2,38.1,1.8,56.9c-2,3.9-2.3,8.4-0.8,12.5
	c5.8,16.2-2.6,30.6-5.3,45.7c-1,5.8-5.6,10.3-12.3,9.3c-6.9-1-9.6-6.8-10.6-12.8C1341.9,1742.3,1343.9,1735.2,1341.9,1728.4z"/>
<path class="st134" d="M1169.8,2156.4c-6.6,9.7-13.1,19.4-19.9,29c-2.2,3.1-3.9,8.6-8.2,7c-2.3-0.8-2.8-6.6-4.1-10.1
	c7.7-9.8,15.3-19.8,23.2-29.4c2.2-2.6,5.2-4.5,7.9-6.8C1169.1,2149.5,1169.4,2152.9,1169.8,2156.4z"/>
<path class="st135" d="M1343.9,836.6l-22.2,17.7c-1.7-0.7-3.4-1.9-5.2-2c-5.4-0.4-10.9-0.4-16.3-0.6c5.1-2.5,10-5.6,15.4-7.4
	C1324.9,841.4,1334.4,839.2,1343.9,836.6z"/>
<path class="st136" d="M1251.5,1984.4l2.2,64c-1.4-8.2-4.8-9-11-3.5c-12.9,11.3-26.2,22.2-39.3,33.3c1.7-21,11.1-39.8,16.4-59.8
	c-0.2,6.1,0.7,7.3,8.4,6.4C1255.2,2021.6,1248.5,2000.5,1251.5,1984.4z"/>
<path class="st137" d="M1374,856.6l75.7-24.5c-1.1,4.9-10.9,4.5-7.4,12s9.4,0.7,14.1,2c4.4,1.1,9.2,0.5,13.8,0.6l-92.4,13.7l-5.9-1
	C1372.6,858.5,1373.3,857.5,1374,856.6z"/>
<path class="st14" d="M1700.3,972.6c-7.3,22.7-2.9,48.8-16.3,72.1c-6.3,11-5.5,25.4-11.4,38.1c-22.1,48-49.8,91.4-89.2,127
	c-1.5,1.4-4.6,3.2-5.6,2.6c-2.9-1.7-1.2-4.6-0.2-7.1c10.9-25.6,22.5-50.9,32.3-76.8c5.9-15.6,8.1-32.8,13-48.5
	c5.6-17.9,8.7-36.3,14.2-54.1c8.1-26.1,17.1-52.2,20.5-79.7c1-8.1,3.3-19.5,16.2-19.4c14.7,0.2,19,12,23.1,22.7
	C1699.5,956.1,1699.2,963.9,1700.3,972.6z"/>
<path class="st138" d="M1757.8,1136.4c5.5,1.1,12.8-2.5,16.3,4c3.3,6.1-5,7.4-6.6,11.7c-24.2,22.3-49,44.5-77.5,60.5
	c-17.4,9.8-36.4,16.1-53.2,28.4c-27.8,20.3-55.1,40.5-77.1,67.3c-4.2,5.1-9.2,9.6-13.8,14.4c-7.2,1.7-10.4-0.5-8.1-8.2
	c20.4-36.7,46.3-69.3,76.6-98.2c22.1-21.1,45.5-41.5,72.5-55.4C1708.9,1149.5,1734,1144.3,1757.8,1136.4z"/>
<path class="st139" d="M1341.9,1728.4c4,6.1,1,12.9,2,19.3s5,11.8,11.2,12c5.5,0.1,7.3-5.6,9-11.2c5.3-17.7,4.5-36.1,7.9-54
	l0.8,12.3c5.5-1.2,4.4-7.3,7.6-10.5c3.7-3.8,1.2-11.3,7.3-14.2c0.4,17.4,6.6,21.5,24.7,16.4c-19.5,19.2-27.5,45-38.8,68.8
	c-4.1,8.7-17.5,10.7-15.8,23c-2,3.8-5.2,5-9.2,3.8c-4.9-1.4-3.5-5.7-3.8-9.1c-0.5-6.2,1-12.6-0.9-18.7
	C1343.2,1753.7,1342.6,1741.1,1341.9,1728.4z"/>
<path class="st140" d="M1537.9,1314.4c-0.2,5.6,3.5,7.3,8.1,8.2c-6.7,8.1-13.3,16.3-20.1,24.4c-1.3,1.5-3.5,2.3-5.2,3.5
	c0.5-2.2,0.5-4.5,1.5-6.4C1527.2,1334.1,1532.6,1324.3,1537.9,1314.4z"/>
<path class="st141" d="M1343.9,1766.4c3.7,5.1,1.9,11,1.8,16.4c-0.3,10.1,3.9,11.7,12,7.6c-1.6,15.4-8,29.4-13,43.7
	c-0.4,1.1-1.6,1.9-2.4,2.9c-0.3-1.3-1-2.6-1-3.9C1342.1,1810.9,1343,1788.6,1343.9,1766.4z"/>
<text transform="matrix(1 0 0 1 996.4999 3488.147)" class="st142 st143 st144"> </text>
<text transform="matrix(1 0 0 1 1012.4999 3488.147)" class="st142 st143">     </text>
<text transform="matrix(1 0 0 1 92.5444 3584.0315)" class="st142 st143">LUYU LIU’S </text>
<text transform="matrix(1 0 0 1 1358.2444 3584.0315)" class="st142 st143 st145"> </text>
<text transform="matrix(1 0 0 1 1388.5444 3584.0315)" class="st142 st143 st146">      </text>
<text transform="matrix(1 0 0 1 1604.5444 3584.0315)" class="st142 st143 st147">                   </text>
<text transform="matrix(1 0 0 1 2288.5444 3584.0315)" class="st142 st143">BLOG</text>
</svg>
