<?xml version="1.0" encoding="utf-8"?>
<!-- Generator: Adobe Illustrator 23.0.4, SVG Export Plug-In . SVG Version: 6.00 Build 0)  -->
<svg version="1.1" id="图层_1" xmlns="http://www.w3.org/2000/svg" xmlns:xlink="http://www.w3.org/1999/xlink" x="0px" y="0px"
	 viewBox="0 0 309.1 309.3" style="enable-background:new 0 0 309.1 309.3;" xml:space="preserve">
<style type="text/css">
	.st0{opacity:0.5;fill:#FFFFFF;enable-background:new    ;}
	.st1{fill:#642223;}
	.st2{fill:#662727;}
	.st3{fill:#E6C9B8;}
	.st4{fill:#662627;}
	.st5{fill:#5E2E2F;}
	.st6{fill:#FBE3D2;}
	.st7{fill:#FBE5D2;}
	.st8{fill:#FCE6D7;}
	.st9{fill:#F8DCC7;}
	.st10{fill:#6E4141;}
	.st11{fill:#F9E1D0;}
	.st12{fill:#FBE7D3;}
	.st13{fill:#FBE8D6;}
	.st14{fill:#705052;}
	.st15{fill:#FCE2D1;}
	.st16{fill:#654142;}
	.st17{fill:#623E42;}
	.st18{fill:#663D42;}
	.st19{fill:#644D46;}
	.st20{fill:#55383B;}
	.st21{fill:#F6B68D;}
	.st22{fill:#5A3739;}
	.st23{fill:#9F8081;}
	.st24{fill:#FBA16C;}
	.st25{fill:#C6C6C6;}
	.st26{fill:#FBA064;}
	.st27{fill:#6A1F14;}
	.st28{fill:#6C6464;}
	.st29{fill:#7E2729;}
	.st30{fill:#F9CAAA;}
	.st31{fill:#F8E9E4;}
	.st32{fill:#A8A3A3;}
	.st33{fill:#F3B2A8;}
	.st34{fill:#CBB0A8;}
	.st35{fill:#E1BCB8;}
	.st36{fill:#F1908B;}
	.st37{fill:#BC5657;}
	.st38{fill:#DEC4C2;}
	.st39{fill:#F2D4CB;}
	.st40{fill:#F8B58C;}
	.st41{fill:#FAF8FA;}
	.st42{fill:#722818;}
	.st43{fill:#D09190;}
	.st44{fill:#F9C1C6;}
	.st45{fill:#EED1CF;}
	.st46{fill:#DFB0B3;}
	.st47{fill:#F9DDE1;}
	.st48{fill:#C1655F;}
	.st49{fill:#F8B288;}
	.st50{fill:#5F2426;}
	.st51{fill:#5B3B37;}
	.st52{fill:#F9C5A5;}
	.st53{fill:#E27E78;}
	.st54{fill:#EAC9C4;}
	.st55{fill:#F6D5D1;}
	.st56{fill:#D49C9A;}
	.st57{fill:#FAC8A9;}
	.st58{fill:#F9C8A7;}
	.st59{fill:#FBD3B7;}
	.st60{fill:#F8CCA9;}
	.st61{fill:#300D0E;}
	.st62{fill:#E5D8DA;}
	.st63{fill:#FEFEFE;}
	.st64{fill:#EBE9E8;}
	.st65{fill:#DBDCDB;}
	.st66{fill:#F3DCD9;}
	.st67{fill:#782220;}
	.st68{fill:#DBD9D8;}
	.st69{fill:#6B3832;}
	.st70{fill:#E8E6E6;}
	.st71{fill:#DFD9D7;}
	.st72{fill:#F0928D;}
	.st73{fill:#642F34;}
	.st74{fill:#A6A6A5;}
	.st75{fill:#E3DBD6;}
	.st76{fill:#F7AF83;}
	.st77{fill:#F4B083;}
	.st78{fill:#DB8A85;}
	.st79{fill:#721F22;}
	.st80{fill:#825959;}
	.st81{fill:#71393B;}
	.st82{fill:#352026;}
	.st83{fill:#5F3E3B;}
	.st84{fill:#F7C29C;}
	.st85{fill:#F7E5D7;}
	.st86{fill:#F9DDD5;}
	.st87{fill:#F9C3C1;}
	.st88{fill:#F1BFB3;}
	.st89{fill:#EDDDDE;}
	.st90{fill:#E4DADA;}
	.st91{fill:#86524A;}
	.st92{fill:#7D5049;}
	.st93{fill:#F6A9A4;}
	.st94{fill:#F99187;}
</style>
<title>画板 1</title>
<rect x="-0.1" y="0" class="st0" width="309.2" height="154.6"/>
<path class="st0" d="M309.1,154.6c0,85.4-69.2,154.6-154.6,154.6C69.2,309.2,0,240-0.1,154.6"/>
<path class="st1" d="M202.4,124c8-2.7,12.2-0.4,14.4,7.7c0.2,1,0.8,1.9,1.7,2.4c17,8.7,24.7,24.4,30.8,41.2c0.1,0.4,0.3,0.8,0.5,1.1
	c1.3,2.2,0.4,4.7,1,7c0.2,1,0.2,1.8,1.5,2.3c1.9,0.8,3,2.8,2.7,4.8c-0.3,3.8-0.2,7.6-0.8,11.4c-0.4,1.1-0.5,2.2-0.5,3.4
	c0,0.3,0,0.6-0.1,0.9c-0.2,0.6-0.5,1.1-1,1.5c-0.3,0.1-0.6,0.1-0.9,0c-0.7-0.8-0.4-2.2-1.5-2.9c-0.3-0.7-0.3-1.5,0.1-2.2
	c0.2-0.2,0.4-0.5,0.6-0.6c0.5-0.3,1.2-0.6,1.2-1.3c0-2.8,0.6-5.6-0.2-8.4c-0.6-0.7-0.9-1.6-1.1-2.5c-0.7-2.8-3.2-5.1-2.4-7.6
	c1.2,5.8,0,12.3-0.6,18.8c-0.2,1.7-1,2.6-2.6,1c-0.6-1.5,0.3-3,0.1-4.4c1.6-11.4,0.5-22.5-5-32.9c-0.9-2.3-2-4.5-3.2-6.6
	c-3.5-4.9-6.4-10.4-11.3-14.2c-2.1-1.4-4.2-2.6-6.3-4c-3.4-2.8-7.6-3.8-11.6-5.1c-1.7-0.5-3.3-1.2-4.9-2c-0.8-0.4-1.7-0.7-2.6-0.8
	c-0.3-0.1-0.6-0.1-0.9-0.2c-9.1-0.5-18.2,0.3-27.1,2.4c-0.3,0.1-0.6,0.1-0.9,0.2c-0.7,0.1-1.4,0.4-2.1,0.7c-1.7,0.7-3.2,1.8-4.6,3
	c-2.9,1.6-5.6,3.6-8.1,5.8c-0.4,0.3-1,0.6-0.9,1.1s0.9,0.4,1.4,0.5c1.6-0.1,3.1,0.4,4.3,1.4c1.1,1,1.9,2.1,0,3.2
	c-0.4,0.2-0.9,0.2-1.4,0.2c-1.8,0-3.7,0.1-5.5,0.1c-2,0.1-4-0.3-5.8-1.2c-0.2-0.2-0.4-0.5-0.5-0.8c0.2-0.9,0.8-1.8,1.1-2.7
	c2.3-4.7,6.8-6.8,10.8-9.6c5.9-4.1,12.6-6.9,19.7-8.2c3.6-1,7.4-1.2,11.1-0.8C195.4,127.8,199.2,127.2,202.4,124z"/>
<path class="st2" d="M48.2,85.2c-4.2-5.4-4.8-9.6-1.9-13.6c1.1-1.6,2.4-2.7,4.4-2.1c2.2,0.7,2.4,2.6,2.1,4.3
	c-0.9,4.4,0.4,7.7,4.3,10c0.9,0.5,1.7,1.9,2.9,0.8s0.9-2.5,0.1-3.7c-1.2-2.1-2.5-4.1-3.6-6.2c-1-1.9-1.9-3.9-2.8-5.9
	c-1.3-3.1-0.4-4.3,3.1-4.2c4.7,0.1,9.4,0.2,14,0.6c5,0.5,9.7,0.1,13.6-3.6c0.9-0.7,1.9-1.2,3-1.5c0.6,1.4-1.3,1.9-1.1,3.1
	c-0.7,1.8,1,1.8,1.9,2.5c1.9,1.5,1.9,2.2-0.3,3.8c-5.7-1.6-11.8-1.1-17.1,1.5c-1.3,0.6-2.8,1.1-3.7-0.7c0.6-1.8,0.2-2.7-1.9-2.4
	c-1.6,0.2-3.9-0.8-4.5,0.7c-0.5,1.3,1.5,2.6,2.7,3.5c2.5,1.8,2.4,4.1,1.5,6.6c-2,8.3-1.6,11.2,7.7,12.8c0.7,0.1,1.4,0.5,1.9,1
	c1,2.3-0.5,2.8-2.2,2.9c-4.1,0.1-7.8-0.8-10.6-4.1c-0.6-0.7-1-1.8-2.2-1.3c-1,0.4-1,1.5-1.2,2.4c-0.5,1.6,0.4,3.3-0.2,4.9
	c-1,1.4-2.2,0.2-3.4,0.2c-0.3-0.1-0.5-0.3-0.7-0.6c-0.8-1.6-0.1-3.1,0.2-4.5c0.4-1.9,0-3.1-1.9-3.9C50.7,87.7,49,87,48.2,85.2z"/>
<path class="st3" d="M202.4,124c-1.7,2.7-4.9,4.2-8.1,3.8c-15.9-1.2-29.6,4.5-41.5,14.6c-1.2,1-2,2.6-3,3.9c-0.3,0.7-0.7,1.4-1.2,2
	l0,0c-0.1,0.5-0.3,0.9-0.5,1.4l-0.3,0.6c-0.2,0.3-0.3,0.6-0.5,0.9c-0.1,0.2-0.2,0.4-0.3,0.6l-0.4,0.8c-0.2,0.4-0.4,0.7-0.7,1
	c0,0.1-0.1,0.2-0.2,0.3c-0.2,0.3-0.3,0.7-0.5,1s-0.2,0.5-0.3,0.7l-0.5,1.2c-6,13.3-6.6,27.3-4.6,41.5c0.3,2.1,0.9,4.4-1,6.2
	l-0.7,0.5c-1.6,0.8-0.8,2.1-0.7,3.3c0.2,0.9,0,1.8-0.5,2.6c-2.5,1.1-3.9,4-6.8,4.5c-3,0-5.4,1.4-7.6,3.1c-0.9,0.6-1.3,1.8-0.9,2.8
	c0.3,0.9,1.1,1.5,2.1,1.6c0.3,0,0.6-0.1,0.8-0.3c0.4-0.5-0.1-0.4-0.3-0.4c-0.8,0.1-1.5-0.4-1.7-1.2c0-0.1,0-0.1,0-0.2
	c0-0.3,0-0.7,0.2-1c0.6-1.5,1.6-2.7,3.6-2c0.1,0.3,0.1,0.6,0.3,0.8c2.1,3.2,2.1,3.7-1.1,6c-2.5,0.4-4.8,0-5.5-2.7
	c-0.8-2.9,0.7-4.7,3.2-6c1.5-0.8,3-1.7,4.4-2.6c-1.7-1.2-3.6-0.8-5.4-0.5c-7.3,1-14.5,2.2-21.7,3.4c-2.7,0.5-5.4,0.5-8.1,0.2
	c-2.7-0.4-4.8-1.8-5-5c2.2,0.4,3.2,2.7,5.6,3.1c3.5,0.6,6.8-0.1,10.2-0.7c5.9-0.9,11.6-2.1,17.5-2.9c2.5-0.4,4.9-0.4,7.4,0
	c-3.8-0.7-7.8-0.7-11.6,0.1c-6.1,1.3-12.3,2.3-18.5,3c-1.9,0.2-4.4,1.3-5.8-1.3c7.9-0.6,15.8-1.8,23.5-3.5c4.7-0.9,9.7-0.2,14.6-0.1
	c2.6,0,3.8-1.2,5.2-3.4c2.2-3.5,3.1-7.1,2.1-10.8c-1.3-4.2-0.9-8.4-0.9-12.6c-0.2-14.4,4.9-28.4,14.3-39.4
	c6.3-7.6,15.5-12,25.2-14.5c5.8-1.5,11.7-2.5,17.8-1.5c2.3,0.4,4.6,0.1,6.1-2.2C200.7,124,201.6,123.8,202.4,124z"/>
<path class="st4" d="M86.2,62.8c-0.6-0.2-1.4-0.3-0.5-1.1c0.6-0.5,1.4-0.8,1.7-1.7c0.5-0.6,1.1-1.1,1.8-1.6
	c7.9-4.9,8.8-4.2,10.2,4.9c0.8,5.4,0.2,11.1,2.6,16.4c1.4,3.1-1,5.7-2.8,8.1c-0.2,0.2-0.3,0.5-0.4,0.7l-0.6,0.6
	c-1.3,1.2-0.4,2.7-0.7,4c0,0.7-0.3,1.3-0.9,1.6c-3,0.3-6,0.6-9,1.1c-1.7,0.3-3.5,0.6-5.2-0.4c-0.5-1.7,1-1.6,1.8-1.8
	c2.3-0.6,4.5-1.4,6.8-1.8c1.2,0,2.1-0.9,2.4-2c0.6-2.8,3.1-4.4,4.4-6.8c1.2-2.2,0-3.9-1-5.7c-0.6-1.3-1.7-2.3-2.9-3
	c-2.8-1.4-3.4-3.6-2.5-6.5c0.4-1.2,0.6-2.4,0.9-3.6c0.3-1.2,1.7-2.8,0.7-3.7s-2.2,0.8-3.4,1.3c-0.5,0.2-0.9,0.5-1.4,0.7
	c-0.5,0.2-1.1,0.3-1.6,0.3L86.2,62.8z"/>
<path class="st5" d="M92.4,212.6c2.1,1.1,4.2,0.7,6.4,0.4c7.4-1.1,14.7-2.4,22.1-3.5c3-0.4,6.1-0.1,9,0.6c0.6,0.2,1.7,0,1.6,0.9
	s-1.2,0.7-1.9,0.7c-2.1,0-4.1-0.4-6.2-0.2c-8.6,0.6-16.9,2.9-25.4,3.9c-4.3,0.5-8.1,0-10.4-4.2c-1-2.3-1.3-4.8-0.8-7.3
	c0.5-2.7,2.5-3.9,4.9-4.7c1.8-0.7,3.8-0.2,5.1,1.2c1.6,1.4,1.8,3.8,0.5,5.5c-0.4,0.4-0.8,0.8-1.3,1c-0.8,0.4-1.8,1-2.5-0.1
	c-0.4-0.7-0.3-1.6,0.4-2c0.1,0,0.1-0.1,0.2-0.1c0.8-0.5,1.6-1.1,0.9-2.3s-2-0.9-3.1-0.5c-1.5,0.5-2.6,1.9-2.6,3.5
	C89.2,208.4,89.3,211.1,92.4,212.6z"/>
<path class="st6" d="M253.6,202.9l0.8-13c0.1-1.1,0.1-2.4-0.9-2.8c-4-1.5-3.2-4.9-3.5-7.9c-0.1-0.9-0.1-1.9-0.2-2.8
	c2,1.6,1.1,3.8,1.4,5.8c0.1,1-0.5,2.3,0.8,2.8c4.3,1.5,3.7,5,3.5,8.3c-0.3,3.7-0.8,7.4-1.1,11.1c-0.3,1.1,0.2,2.3,1.3,2.8
	c5.6,3,8.7,13.6,4.6,18.2c-3.2,3.6-5.8,9-12.1,8.5c-0.4-1.2,0.5-1.7,1.1-2.4c2.2-1.9,4.9-3.1,6.8-5.4c4.5-5.5,4.3-10.7-1-16.2
	c-1.2-1.3-2.2-2.4-1.6-4.3C253.3,204.7,253.3,203.7,253.6,202.9z"/>
<path class="st7" d="M125.6,224.4c0.9-1.7,4.3-3.4,0-5.2c0,0,0.4-1,0.6-1.6c0.2-0.6,0.7-1.1,1.3-1.2c2-0.1,3.4,0.9,3.4,2.8
	c0.3,6.4,5.3,8.8,9.5,11.8c2.4,1.5,5,2.6,7.8,3.1c2.4,1.8,5.6,1.7,8.2,3.2c0.7,0.4,1.6,0.4,1.7,1.4c-0.1,0.2-0.4,0.3-0.6,0.2
	c-0.1,0-0.1-0.1-0.2-0.2c-9.9-0.3-18.3-4.4-25.5-11c-0.5-0.4-0.9-0.9-1.2-1.4C129.8,223.8,128,223.6,125.6,224.4z"/>
<path class="st8" d="M157.4,239l0.7-0.1c2.1-1.4,4.8-1.5,7.1-0.4c2.3,1.1,4.5,1.2,6.8,1.6c9,1.5,18,2.6,27.1,2.2
	c2.9-0.3,5.8-0.2,8.7,0.3c0.4,0.1,0.7,0.4,0.9,0.7c-1.6,0.8-3.5,1.2-5.3,1.2c-10.8,0.4-21.5-0.7-32.1-1.7c-4.3-0.4-8.7,0-12.5-2.7
	C158.2,239.8,157.9,239.2,157.4,239z"/>
<path class="st9" d="M94.3,108.3c-2.9,2.9-6.8,2.1-10.2,2.3c-6.6,0.5-13.2,0.4-19.8-0.5c-0.5-0.8-3-0.5-1.3-2.4
	c2.3-0.7,4.7-0.1,7.1-0.4h11.1c4.4,0.1,8.8,0.7,12.9-1.5c0.3-0.2,0.6-0.4,0.9-0.5c0.9-0.4,2-0.3,2.9,0.2c0.6,1-0.2,1.2-0.8,1.5
	C96.1,107.3,95.2,107.8,94.3,108.3z"/>
<path class="st10" d="M110.2,65.2c1.3,0.2,1.9,0.9,1.5,2.2c-0.2,0.7-0.9,1.7-0.3,2c3.5,1.4,2.3,4.2,2.5,6.8c0.1,1.6-0.3,2.2-1.6,2.3
	s-2.8-0.9-2.1-1.9c2.4-3.6-2.2-4.5-2.4-7c-0.1-0.7-1.9-1.1-1-2.4S109.1,65.6,110.2,65.2z"/>
<path class="st11" d="M94.3,108.3c0.5-1.9,2.6-1.6,3.7-2.5c0.2-0.8,0.7-1.5,1.4-2c2.9-2.8,2.9-4.5-0.1-7.1c-1.3-1.1-2.5-2.2-2.1-4.1
	c0.1-1.5-0.5-3.2,1.4-4.1c0.1-0.1,0.2-0.3,0.4-0.3s0.4,0.1,0.5,0.2c-1.2,2.7-0.4,4.5,2,6.3c1.9,1.5,3.3,3.5,4,5.8
	c0.6,2.7-2.2,3.9-4.2,5.4C99.3,107.4,96.9,108.3,94.3,108.3z"/>
<path class="st12" d="M62.5,108.2l1.9,1.9c-2.2-0.1-4.5,0.5-6.4-1.5c-0.8-0.6-1.9-0.8-2.9-0.6c-1.8,0.4-2.8-0.4-3.9-1.7
	c-5.1-6.5-5-7.7,1.7-12.6l0.7-0.6c0.6,0.4,0.4,1.1,0.4,1.7c-0.3,0.8-1.2,1.1-1.7,1.7c-3.2,4-1.4,6.9,2.7,8.2
	C57.5,105.8,59.8,107.2,62.5,108.2z"/>
<path class="st13" d="M208.8,243.2h-0.7c1.3-2.4,3.8-2.4,6.1-2.7c1.8-0.2,3.7,0.2,5.5-0.4c2.3-0.3,4.6-1,6.8-1.9
	c1.6-0.3,3.2-0.4,4.8-0.2c0.7,0,1.4,0.3,1.9,0.9c-4.4,4-9.9,3.9-15.3,4.3C214.8,243.4,211.8,243.2,208.8,243.2z"/>
<path class="st14" d="M105.7,169.4c-0.3,1,0.9,2.9-1.3,2.9c-1.7,0-1.6-1.7-1.4-2.9c0.4-3.2-1.4-2.8-3.4-2.2
	c-0.8,0.2-1.5,0.6-2.3,0.8c-0.4,0.1-0.8-0.1-1.1-0.4c-0.4-0.6,0.2-0.9,0.6-1.1c0.8-0.5,1.6-1,2.4-1.4
	C103.3,163.1,105.3,164.4,105.7,169.4z"/>
<path class="st15" d="M233.1,238.9h-2c-0.1-0.5,0.2-1,0.8-1.1c0,0,0,0,0,0c5.2-1.6,10.4-3.6,15.3-6c0.6-0.4,1.5-0.3,2,0.3L248,234
	l0,0c-0.4,0.3-0.9,0.2-1.3,0.6C242.8,237.7,238,239.2,233.1,238.9z"/>
<path class="st16" d="M121.7,181.6c-0.8,2.1-3,2.4-4.7,3.3c-2.1,1.1-1.1-1.4-1.7-1.8c-2.7-2-0.7-2.8,0.7-3.7
	c0.4-0.2,1.3-0.3,1.4-0.1c0.9,1.3,1.7,2.2,3.4,1.1C121.2,180.1,121.6,180.9,121.7,181.6z"/>
<path class="st17" d="M116.8,187.1c1.3,0.1,6.8,5.3,6.7,6.3c0,0.5-0.2,1-0.6,1.3c-0.5,0.5-1.4,0.5-1.9,0l-0.1-0.1
	c-1.7-1.8-3.4-3.6-4.9-5.6C115.2,188.1,115.6,187.2,116.8,187.1z"/>
<path class="st18" d="M107,158.8c1.5-0.2,2.9,0.8,3.1,2.3c0,0.2,0,0.4,0,0.6c0.2,1.4-0.8,2.8-2.2,3c-0.2,0-0.4,0-0.6,0
	c-1.9,0-2.7-1.3-2.8-3S105.2,158.6,107,158.8z"/>
<path class="st19" d="M110.3,184.4c-1.2-0.1-1.2-1.1-0.6-1.7c1-1.4,1.8-3,2.4-4.6c0.2-0.5,0.4-1.1,1-1c0.4,0.1,0.7,0.3,0.9,0.7
	C114.8,178.9,111.6,184.4,110.3,184.4z"/>
<path class="st20" d="M109.2,176c-0.8,1.4-2.6,0.8-3.7,1.6c-0.5,0.6-1.4,0.6-2,0.1c0,0,0,0,0,0c-0.4-0.4-0.3-1,0.1-1.4
	c1.3-1.2,3.1-1.7,4.9-1.5C109.1,174.8,109.2,175.2,109.2,176z"/>
<path class="st21" d="M53.5,95.1v-1.8c0.7-2.5-0.3-4.1-2.6-5.1c-1.3-0.6-2.7-1.2-2.8-2.9c1.8,1.1,3.4,2.7,5.6,3.3
	c1.5,0.4,1.5,1.7,1.1,2.8c-0.5,1.9-0.7,3.9-0.5,5.8c-0.1,0.7-0.4,0.8-0.9,0.3C53,96.7,53,95.8,53.5,95.1z"/>
<path class="st22" d="M107.4,179c0.2-0.1,0.3-0.1,0.5-0.2c1.1-0.2,2-0.2,1.3,1.3l0,0c-0.2,0.5-0.9,0.3-1.1,0.8l0,0
	c-0.8,0.3-1.7,0.6-2.1-0.4C105.7,179.2,106.8,179.4,107.4,179z"/>
<path class="st23" d="M107.4,179c-0.2,0.5-1.3,0.6-1,1.4s1.1,0.3,1.6,0.5c-1,0.9-2.1,1.1-2.5-0.4C105.2,179.1,106.2,178.8,107.4,179
	z"/>
<path class="st23" d="M109.2,180.1c-0.1-0.7-0.6-1.2-1.3-1.3c0.5-0.9,1.3-1.2,2-0.5S110.2,179.8,109.2,180.1z"/>
<path class="st6" d="M246.8,234.4l1.3-0.6L246.8,234.4z"/>
<path class="st23" d="M108.2,180.9c0.1-0.5,0.6-0.8,1.1-0.8C109.1,180.6,108.7,180.9,108.2,180.9z"/>
<path class="st24" d="M99.3,88.3c-0.2,0-0.3-0.1-0.5-0.2l0.4-0.3C99.4,88,99.4,88.2,99.3,88.3z"/>
<path class="st25" d="M202.9,132.1c5.3,2.2,11.1,3.2,16,6.4c0.4,0.3,0.8,0.7,1.1,1.1c0.5,0.6,0.4,1.5-0.2,2
	c-0.1,0.1-0.2,0.1-0.2,0.2c-1.6,1.1-1.9,2.8-2.1,4.5c-0.7,2.5-0.8,5.4-4.5,5.7c-1.1,0.1-0.5,1.4-1,2c-1.4,0.2-2.6,0.7-3,2.4
	c-0.3,1.2-0.8,2.9-2.9,2c-0.1-0.7,0-1.4,0.3-2.1c0.3-1.3-0.1-1.1-1.2-1c-7.4,0.9-14.8,1.6-21.9-1.5c-0.2-0.1-0.4-0.4-0.6-0.4
	c0.3,0.2,0.5,0.4,0.7,0.6c1,0.6,1.8,1.5,2.3,2.5c0.7,1.8,0.9,3.7,0.7,5.6c-0.1,0.3-0.2,0.6-0.3,0.9c-0.2,0.6-0.7,1.1-1.3,1.3
	c-0.3,0-0.6-0.1-0.8-0.4c-0.5-1,0-2,0-3c0.1-1.9-0.6-3.7-1.9-5c-2-2-3.6-1.9-5.5,0.1c-0.7,0.7-0.8,2.3-2.4,1.9
	c-0.5-0.6-0.6-1.5-0.3-2.2c0.1-0.4,0.3-0.7,0.6-1c0.2-0.3,0.5-0.5,0.8-0.6c-0.3-0.2-0.4,0.1-0.7,0.2c-2.7,0.7-5.1,2.2-6.8,4.3
	c-1.4,1.8-4.1,2.5-5.6,4.5c-1.8,0.5-2.4,2.5-3.9,3.4c-0.9,0.4-0.9,1.2-0.8,1.9c-2.5,8-3.4,16.5-2.7,24.9c0.5,8.7,2.9,16.8,8.5,23.7
	c0.3,0.4,0.8,0.8,0.9,1.2c0.8,3,3.2,4.1,5.9,4.9c2.4,0.8,4.9,1.5,7.4,2c0.5,0,1,0.1,1.4,0.3c0.9,0.3,1.9,0.4,2.9,0.5
	c8.5,1.2,8.5,1.2,8.5-7c-0.1-1.8,0.1-3.5,0.6-5.2c0.4-1.1,0.7-2.2,2.2-2.2c0.9,2.5,0,5,0.3,7.5c0,0.5-0.1,0.9-0.2,1.4
	c-0.3,0.8-0.4,1.7-0.1,2.6c0.1,0.3,0.2,0.6,0.2,0.9c0,1.5,0.4,3-0.7,4.2c-6.2,1.5-12.3,0.3-18.4-1c-11.3-2.3-20.8-8.6-30.8-13.8
	c-0.9-0.4-1.5-1.1-1.9-2c-0.2-0.5-0.3-1-0.3-1.5c1.6-5.1-0.2-10-0.8-14.9c-1.3-11.3,0-22.7,3.9-33.4c0.8-1.4,0.8-3.7,2.7-3.8
	s2,2.3,2.8,3.6c0.6,1.1,1.4,2.1,2.2,3c0.7,0.6,1.5,1.1,2.4,0.3c0.2-0.2,0.3-0.4,0.5-0.6c0.7-1,1.5-2,2.4-2.8
	c1.9-2.8,2.6-5.5-0.3-8.2c-1.5-1.5-0.4-2.4,1.3-2.6c1-0.1,2.1,0,3.1-0.1c0.6,0.1,1.2-0.3,1.5-0.9c0.2-0.6-0.1-1.3-0.6-1.6
	c-1-1-2.2-1.5-3.6-1.6c-0.8-0.1-1.8,0-2.2-0.9c-0.5-1.2,0.8-1.6,1.4-2.1c2.5-2.1,5.2-4,8-5.7c2.7-2.2,5.6-3.9,9.3-2.2
	c0.3,0.2,0.5,0.3,0.8,0.5c0.1,0.1,0.2,0.2,0.4,0.3c4,1.9,7.8,4.4,11,7.5c3.5,3.3,6.6,3.6,9.2,0.9s2.2-7.6-1.1-10.5
	c-1.3-1.2-1.3-2.1,0.7-2.2c1.5-0.2,3-0.1,4.5,0.2C201.2,132,202.1,131.4,202.9,132.1z"/>
<path class="st26" d="M136.8,210.8c0-1,0.1-1.9,0.1-2.9c0-0.2,0.3-0.4,0.5-0.3c0,0,0.1,0,0.1,0c0.1,0,0.1,0.1,0.2,0.1
	c0.7,0.8,1.1,1.8,1,2.8c0.2,1.7,1.4,3.2,3,3.7c4.9,1.1,8.4,4.5,12.5,6.8c9.4,5.4,20,8.5,30.8,9c4,0.1,8.1-0.6,12,1.1
	c1.2,0.4,2.6,0,3.5-0.9c2-1.6,4.5-2.6,7.1-2.8c6.9-1.2,13.6-2.8,20.3-4.8c5.2-1.3,9.9-4.2,13.2-8.4c2.8-3.7,5.9-6.2,10.6-6.4
	l0.5,0.1c0.2,0.2,0.4,0.4,0.5,0.6c0,0.3,0,0.5-0.1,0.8c-0.2,0.3-0.4,0.7-0.5,1.1c0.2,1.8,1.8,2.5,2.8,3.6c3.2,3.6,3,7.8-0.9,10.7
	c-3.5,2.6-6.7,5.5-10.7,7.4c-4.3,1.9-9.2,1.7-13.5,3.5c-6.6,2.8-13.9,2.4-20.7,4.3c-11.2,0.1-22.5,1.1-33.6-0.6
	c-11.3-1.8-22.7-4.1-33.3-8.9c-4.3-2.2-7.7-5.8-9.7-10.2c-0.6-1.1-0.6-2.5,0.1-3.6C134.2,214.4,135.1,212.2,136.8,210.8z"/>
<path class="st27" d="M251.8,207.6c-0.1,1.1-1.1,1.9-2.2,1.8c-0.1,0-0.2,0-0.3-0.1h-0.1c-2.8-1.1-3.7,1-4.9,2.6
	c-5.1,6.8-11.8,10.6-20.1,12.5c-6.4,1.5-12.7,3.1-19.1,4.2c-1.5,0.2-2.8,1-3.8,2.1c-1.7,2-3.5,2-5.5,0.9c-1.3-0.6-2.8-0.8-4.3-0.6
	c-11.9,0.8-23.1-2.2-33.8-7c-4.2-2.1-8.2-4.4-12-7.1c-1.1-0.7-2-1.6-3.6-1.3s-4.9-3.1-4.5-4.7c0.1-1,0.1-2-0.2-3
	c-0.7-1-0.7-2.2,0-3.2l0,0c0.4-0.3,1-0.4,1.5-0.4c1-0.1,0.7-2.8,2.3-1.4c1.2,1,1.6,2.8,0.8,4.2c-0.8,1.3-0.8,2.9-0.1,4.3
	c12.3,7.1,24.6,14.1,39,16.2c3.8,0.4,7.7,0.4,11.5,0.1c1.2-1.6,0.3-3.3,0-4.9l0,0c-0.3-0.7-0.3-1.4,0-2.1l0.1-1.1
	c0.8-2.6-0.1-5.3,1-7.9c0.5-1.3,0.7-3,2.5-3.1s2.2,1.6,2.8,2.9c0.2,0.4,0.3,0.8,0.4,1.2c0.2,1.1,0.6,2.6-0.6,3s-1.6-0.9-2-1.9
	c-0.2-0.4-0.3-1.2-1-0.7s-0.4,1.1-0.5,1.7c-0.1,0.3-0.1,0.6-0.2,0.9c-0.8,3.7-0.1,7.4,0.5,11.1c0.1,1.1,0.7,2.1,2,2s1.2-1.3,1.2-2.2
	c0.1-1.8,0-3.6-0.3-5.3c-0.3-1-0.3-2.1-0.1-3.1c0.2-0.7,0.5-1.4,1.4-1.4c0.6,0.1,1.1,0.7,1.1,1.3c0.4,1.6,0.7,3.2,0.8,4.9
	c0.1,1.7,0.9,2.4,2.6,2.1c3.3-0.7,6.7-1.3,10-1.9c0.3-0.2,0.6-0.3,0.9-0.4c1.6-0.5,3.4,0,4.8-1.1l0.9-0.3c3.6-0.8,7.3-1.3,10.6-3
	c1-0.3,1.8-1,2.4-1.8c2-2.2,4.8-3.6,6.3-6.3c0.2-0.2,0.3-0.5,0.5-0.7c1.6-1.4,2.3-3.4,3.2-5.2c0.4-0.9,0.4-2.1,1.7-2.3
	c0.8,0.3,1.9,0.6,1.8-0.7c-0.3-5.6,1.5-11,0.8-16.6c-0.2-2-1.1-4.1,1.2-5.8v5.4c0,0.9-0.1,2.2,1,2.4c3.2,0.5,1.4,2.1,0.9,3.5
	c-0.3,3.6-1.1,7.1-1.6,10.6c0.6,1.3-1.9,2.8,0.3,3.9c0.3,0.1,0.5,0.2,0.7,0.4C253,205,251.2,206.9,251.8,207.6z"/>
<path class="st28" d="M171.2,133.9c9.2-2.7,18.8-3.7,28.3-3c0.4,0,0.7,0.4,1,0.6c-1.7,0.6-3.5,0.1-5.2,0.3c-1.3,0.1-1.8,0.5-0.7,1.7
	c0.8,1,1.5,2,2,3.2c1.7,3.3,1.3,5.7-1.1,7.5c-2.5,1.9-6.1,1.5-8.2-0.9c-2-2.3-4.6-3.8-7-5.6C177.4,135.4,174.2,134.9,171.2,133.9z"
	/>
<path class="st29" d="M152,165.4c-1.7-1.3-2.9-3-3.7-4.9c-0.4-0.8-0.9-2.3-1.3-2.3c-1.2,0-0.9,1.6-1.6,2.3c-0.1,0.2-0.3,0.3-0.4,0.5
	c-1.4-2-0.2-3.7,0.7-5.4s2.2-3.2,1.8-5.4c0-0.8,0.5-1.5,1.2-1.9c1.8,1.1,3.8,1.2,5.9,1.4c0.7,2.3,2.8,3.4,4.2,5.2
	c0.9,1.1,1.7,2.2,0,3.3c-1.7,0.4-2.7-0.7-3.9-1.6c-0.6-0.5-1.4-1.2-2.2-0.7s-0.5,1.7-0.2,2.6c0.5,1,1.1,2,1.8,2.9
	c0.5,0.9,1.5,1.8,0.7,3.1l0,0C154.2,165.9,153.1,165.4,152,165.4z"/>
<path class="st30" d="M252.4,208.9c0-0.2,0-0.4,0.1-0.6c0.5-0.6,0.1-1.3,0.5-1.9l0.2-0.7c0.2-0.2,0.3-0.2,0.5,0
	c-0.2,1.5,0.7,2.3,1.7,3.3c7.4,7.3,5.7,15.2-2.5,20.6c-1.2,0.8-1.9,2.3-3.5,2.4c-4.6,1.8-9.3,3.5-13.8,5.6c-1.5,0.7-3.1,0.1-4.3,1.3
	h-4.9c-1.1,0.6-2.3,0.7-3.5,0.3c-0.6-1.9,1-1.5,1.9-1.8c5.9-1.3,11.8-2.9,17.6-4.8c0.2-0.2,0.5-0.4,0.8-0.5c0.3-0.2,0.5-0.4,0.8-0.5
	c3.6-1.4,6.9-3.3,10-5.6c1.4-1.1,2.3-2.7,2.7-4.4c0.1-0.3,0.2-0.5,0.3-0.8s0.1-0.3,0.2-0.4c1.1-2.6,0.2-6.1-2.1-8.4
	C254,211.1,252.6,210.4,252.4,208.9z"/>
<path class="st31" d="M240.6,163.9c3.8,6.4,5.9,13.7,6.1,21.1c0.2,4.2,0,8.5-0.6,12.7c-0.6,0.3-0.1,1.9-1.5,1.1
	c-1.6-3.2,0.1-6.4,0.3-9.5c0.5-7.1-1.1-14.2-4.5-20.4c-2-3.7-4.5-7.8-10.1-8.6c-3.9-0.5-6.5-4.3-9.3-7.1c-0.1-0.3,0-0.6,0.2-0.8
	c0.5-0.3,1.2-0.5,1.8-0.5c0.5-0.1,0.9-0.1,1.4-0.1c0.3,0,0.6,0.1,0.8,0.3c2.5,3.6,5.7,5.8,10.4,4.8c0.3,0,0.6,0.1,0.8,0.3
	C238.2,159.1,239,161.8,240.6,163.9z"/>
<path class="st32" d="M171.2,133.9c6.8-0.2,11.5,3.8,15.9,8.2c2.4,2.4,5.3,3.3,7.7,1.6c2.9-2.1,2.1-4.6,0.8-7.1
	c-0.5-0.7-0.9-1.4-1.2-2.1c-0.4-1-2.5-1.2-1.4-2.6c0.7-0.9,2.1-0.3,3.2-0.4h4.3c0.2,0.1,0.3,0.2,0.2,0.3c-0.1,0.1-0.1,0.1-0.1,0.2
	c-1.6,0-3.1,0-4.7,0.1c-0.3,0-1.2-0.5-0.8,0.6c0.1,0.3,0.7,0.4,1,0.7c1,1.9,2.1,3.7,2.2,6c0.3,2.6-1.1,5.2-3.5,6.3
	c-2.5,1.2-5.5,0.6-7.4-1.4c-2.6-2.4-4.9-5-8.2-6.4c-1.2-0.6-2.5-0.8-3.7-1.4l0,0l-0.6-0.6c-3.5-1.6-6.5-0.3-9.3,1.9
	c-0.1,0.2-0.3,0.3-0.5,0.2c0,0-0.1,0-0.1-0.1l-0.2-0.2c1-1.8,2.9-2.3,4.6-3c0.4-0.6,1.3,0,1.7-0.6L171.2,133.9z"/>
<path class="st33" d="M223.6,152.6h-1.8c-0.4-0.4-1.2,0-1.5-0.8c0-0.3,0.1-0.6,0.4-0.8c0.5-0.2,1-0.4,1.5-0.5
	c1.4-0.2,2.6-0.8,2.9-2.3c0.3-1.5-0.3-3-1.5-3.9c-1.1-1-2.4-1.8-3.9-1.3s-1.4,2.1-1.4,3.4c0,0.8,0.3,1.6-0.4,2.3
	c-1.7-0.1-1.5-1.2-1.3-2.3c-1-3.3,2.1-4.7,3.3-7.1c2.3,0.9,4.3,2.2,6.2,3.8c0.7,1,1.5,2,2.5,2.8c1,0.7,1.5,2,1.3,3.2
	c-0.1,1.9,0.5,3.6,3.1,3.8c1.1-0.1,2.1,0.7,2.2,1.8c0,0,0,0,0,0c0,0.3,0,0.7-0.2,1c-2.8,1.2-5,0.7-7.4-1.7c-0.8-0.8-1.3-2.2-2.8-2.2
	l-0.6,0.1C224.1,152.1,223.9,152.4,223.6,152.6z"/>
<path class="st34" d="M164.9,137.6l0.8,0.1c-2.5,2.4-5.6,4-8.1,6.4c-1.1,1.1-1,0.9,0.1,1.3c1.4,0.4,2.7,0.9,4,1.5
	c1,0.4,1.6,1.5,1.3,2.6c-0.3,1.3-1.3,1.4-2.4,1.4h-0.3c-1.2,0.2-2.8-0.6-3.4,0.7c-0.2,0.5,1,1.8,1.8,2.6c3.2,3.2-0.4,5.4-1.2,7.9
	c-1.2-1.8-0.6-3.1,1.1-4.1c1.5-3.5-1.6-4.4-3.5-5.6c-1.4-0.9-1.8-1.5-0.6-2.7h6c0.4,0.2,0.9,0.2,1.2-0.1c1.1-2.9-1.5-2.4-2.8-3
	s-4.1,0.5-4.4-1c-0.4-1.8,2.2-2.7,3.6-3.7C160.2,140.2,162.1,138.2,164.9,137.6z"/>
<path class="st35" d="M213.6,130.6c0,1.2-0.5,1.4-1.4,1c-2.9-1.3-6-2.3-9.1-3c-0.5-0.1-1.5-0.2-0.7-1.1c2-2.3,4.7-1.8,7.2-1.4
	S213.1,128.6,213.6,130.6z"/>
<path class="st36" d="M235,155.8c0-1-0.7-1.8-1.6-2.1c-3.8-0.8-4.3-1.4-3.9-5.4c0.1-1.1-0.8-1.4-1.2-2c-0.7-1-2-1.5-2.1-3
	c4.9,3.8,8,9,11.2,14.2c-0.7,0.6-0.9-0.2-1.2-0.5l0,0C235.6,156.8,235,156.4,235,155.8z"/>
<path class="st37" d="M248.8,201.4c1-3.7,0.1-7.8,2.4-11.2l1.2,1.8c0.1,3.6,0.3,7.2-1.2,10.6l-0.4,0.2c-0.3-0.1-0.5-0.3-0.6-0.6
	c-0.5-1.6,0.7-3.2-0.1-4.9c0-0.3-0.3,0.4,0,0.1c0.1-0.1,0.2,0,0.2,0.2C250.1,199,250.9,200.8,248.8,201.4z"/>
<path class="st27" d="M251.1,202.6c0.1-3.6,0.5-7.1,1.2-10.6c0.5,0.1,1.2,0.2,1,0.9c-0.6,2.5-0.2,5-0.4,7.4
	C253,201.6,252.6,202.6,251.1,202.6z"/>
<path class="st38" d="M245,199l1.2-1.3c0.5,1.6-1,2.8-0.8,4.3c-1.5,2.8-1.9,6.2-4.8,8.2c-0.5-0.4-0.7-1.1-0.4-1.7
	C242.4,205.6,242.6,201.8,245,199z"/>
<path class="st39" d="M236.2,157.1l1.2,0.5c1.5,1.9,2.6,4,3.3,6.3C238.2,162.1,237.6,159.4,236.2,157.1z"/>
<path class="st27" d="M246.2,172.6c-0.6,0.1-0.6-0.4-0.6-0.7c0-0.6-0.3-1.4,0.4-1.9c0.8,0.4,1.1,1.3,0.7,2
	C246.6,172.3,246.5,172.5,246.2,172.6L246.2,172.6z"/>
<path class="st40" d="M253.6,205.8h-0.4c-0.1-1-0.4-2,0.5-2.9C253.7,203.8,253.6,204.8,253.6,205.8z"/>
<path class="st37" d="M250.6,205.1h-0.5c-0.7-1-1-2,0.5-2.6l0.2,0.2C250.6,203.5,250.6,204.3,250.6,205.1z"/>
<path class="st28" d="M200.6,132c-0.1-0.2-0.1-0.3-0.1-0.5c0.9,0,1.8-0.4,2.4,0.6L200.6,132z"/>
<path class="st29" d="M148.6,148.2c-0.1-0.9,0.6-1.4,1.2-2C150.1,147.1,149.5,148,148.6,148.2z"/>
<path class="st28" d="M171.1,133.9c-0.4,0.6-1.1,0.8-1.7,0.6C169.8,134,170.4,133.7,171.1,133.9z"/>
<path class="st40" d="M253,206.4c0.2,0.7,0,1.4-0.5,1.9c-0.1-0.2-0.1-0.5-0.2-0.7L253,206.4z"/>
<path class="st29" d="M161.6,149.6c-0.4,0.6-0.8,0.4-1.2,0.1L161.6,149.6z"/>
<path class="st41" d="M94.3,89.7c0.4,2,0,2.7-2.4,3c-3.2,0.3-6.3,1.6-9.5,2.5c-2.1,1.6-5,1.7-6.6,4c-3.3-1.4-6.7-0.7-10-0.3
	c-2.8,0.3-5.5,0.8-8.3-0.3c-0.3-0.3-0.4-0.6-0.3-1c0.2-2.2-0.6-4.5,0.2-6.8c0.3-1.2,1.1-2.2,2.2-2.8c1.4-0.5,1.4,1.2,1.9,1.9
	c2.8,4,7,4.4,11.2,4.8c1.5,0.1,1.7-0.8,1.4-2c-1.4-1.4-3.3-0.9-4.9-1.6c-1.8-0.8-4.7-0.8-3.2-4.2c0.1-0.3,0.1-0.8-0.2-0.9
	c-3.6-1.3-1.8-4.1-1.8-6.5c1.9-4,1.8-4.4-1.4-7.6c-1-1-2.7-2-2.1-3.5s2.6-0.8,3.9-0.8s3.2-0.7,3,1.8c0.4,2.5,1.7,1.3,2.9,0.8
	c3.9-2.1,8.3-3.1,12.8-2.9c1.9,0.1,3.4,1.5,5.3,1.4c2-1.2,0.8-2.1-0.4-2.9c-2.5-1.7-2.5-2,0.2-3.4c0.4-0.2,0.8-0.7,1.3-0.9
	c1.2-0.3,1.9-2.5,3.4-1.3c1.2,0.9,0.2,2.5,0,3.8c-0.2,1.3-0.5,2.6-0.8,3.9c-0.8,2.8-0.6,5,2.6,6.1c0.6,0.6,0.3,1-0.2,1.5
	c-1.2,0.9-4-0.2-3.6,2.8c0.2,0.3,0.4,0.6,0.7,0.8c0.6,0.3,1.3,0.4,2,0.4c1.5,0.2,2,1.3,2.4,2.6c0.6,1.8,0.7,3.6-0.9,5.1
	C94.4,87.8,94.8,88.8,94.3,89.7z"/>
<path class="st24" d="M53.8,97.7l0.6-0.6h0.5c1.3,3.1,3.5,3.7,6.8,3c2.9-0.6,6-0.2,9-0.8c1.7-0.3,3.4,0.3,4.6,1.5
	c1.4,1.3,2.6,1.2,3.2-0.8c0.5-1.5,1.8-2.6,3.4-2.8c4.2-0.8,8.3-3,12.8-1.5c0.7,0.2,1.4-0.2,2.1-0.2c0.3,0,0.7,0.2,0.9,0.4
	c0.2,0.5,0.3,1,0.5,1.5c2,4.3,1.2,5.1-2.9,7c-7.1,3.4-14.5,1.9-21.8,2.4c-1.3-0.1-2.7-0.1-4,0c-5.2,0.9-9.5-1.7-13.9-3.8
	c-1.6-0.8-3.2-2.1-2.5-4.5C53.2,98.1,53.5,97.9,53.8,97.7z"/>
<path class="st42" d="M96.8,95.8c-0.5,0.9-1.5,1.7-2.3,1.1c-3.5-2.9-6.7,0.2-10,0.5c-2.6,0.3-5.4,0.8-5.9,4.6c-0.2,2-2.1,1.5-3,0.3
	c-1.7-2.3-4.1-2.3-6.4-1.9c-3.5,0.6-7,0.2-10.5,1s-4.1-1.6-3.9-4.3c1-0.8,1.7,0,2.4,0.5c0.1,0.3,0.2,0.5,0.2,0.8
	c2.5,0.8,5.1,0.9,7.7,0.4c3.7-0.6,7.3-0.9,11,0.2c0.4-4.2,4-2.9,6.3-3.8c3.9,0,7.8-0.4,11.6-1.2c0.9-0.2,2-0.9,2.6,0.5
	C97.2,94.8,97.2,95.2,96.8,95.8z"/>
<path class="st43" d="M64.4,79.6c0,1-0.1,2.1-0.3,3.1c-0.4,1.4,0,1.8,1.4,2c2.1,0.3,2.7,1.8,1.2,3.2c-1.2,1.2-0.6,1.3,0.3,1.8
	c1.4,0.7,2.9,1.2,4.4,1.5c1,0.2,2.4,0,2.8,1.5c-1.8-0.4-3.7-0.8-5.4-1.3c-5.2-1.6-6.6-3.9-5.6-9.3c0.3-1.3,0.7-2.6,1-3.9
	C64.6,78.5,64.7,79.1,64.4,79.6z"/>
<path class="st44" d="M64.4,79.6c-0.1-0.5-0.1-0.9-0.2-1.4c1-2.3,1-4-1.5-5.5c-1.7-1-3.9-3.2-3.5-4.7c0.6-1.8,3.5-0.5,5.3-0.8
	c0.8-0.1,1.7-0.1,2.5-0.1c0.8,0,1.9-0.2,2.1,0.8s-1,1.1-1.6,1.5c-1.7-2.3-4.1-1-6.1-1c-0.8,0-0.2,1,0.1,1.5c0.6,0.9,1.4,1.8,2.3,2.5
	C67.1,74.7,66.1,77.1,64.4,79.6z"/>
<path class="st45" d="M93.2,64c0-0.8,0-1.7-0.1-2.5c0-0.7-0.2-1.4-1-1c-1.7,0.9-3.3,2-4.8,3.3c-0.9,0.9,0.5,1.1,1.1,1.5
	c2.2,1.3,2.2,2.2,0.2,3.5c1.7-2.6-0.9-2.8-2.1-3.1c-2.9-0.9-1.9-1.8-0.2-2.9l0,0c0.3-0.5,0.9-0.4,1.4-0.7c1.6-0.2,2.5-1.7,3.9-2.3
	c0.9-0.3,1.8-1.6,2.7-0.6c0.7,0.8,0.2,1.9-0.1,2.9C93.8,62.7,93.4,63.3,93.2,64z"/>
<path class="st46" d="M47.5,73.8c0.4-1.2,0.8-2.7,2.3-2.2c1.3,0.4,0.8,1.9,0.5,2.7C48.8,78.2,51,81,53,83.9c0.4,0.6,1.3,0.9,0.8,1.5
	s-1.3,0.1-1.9-0.3c-1.3-0.7-2.5-1.9-3.2-3.2c0.7-2.3-0.7-4.5-0.2-6.8C48.8,74.3,48,74.2,47.5,73.8z"/>
<path class="st47" d="M47.5,73.8l1.8-1v1.7c0,2.5-0.4,5,1.3,7.2c0.8,1,0.4,1.3-0.7,0.5c-0.3-0.2-0.7-0.3-1.1-0.4l0,0
	c-0.6-0.9-0.3-2.3-1.3-3C46.7,77.3,46.7,75.4,47.5,73.8z"/>
<path class="st48" d="M58.2,70.6c0.8,0.1,4.3,5.9,3.9,6.8s-0.9,0.8-1.4,0.2c-1.6-1.8-2.3-4.1-3.2-6.2C57.3,71.1,57.3,70.4,58.2,70.6
	z"/>
<path class="st46" d="M47.5,79c1.4,0.6,1.4,1.8,1.3,3C47.9,81.2,47.5,80.1,47.5,79z"/>
<path class="st49" d="M136.8,210.8c-0.4,2-1.4,3.8-2.8,5.3c-2.2,2-0.4,4.4,0.9,6.1c4.2,5.4,9.7,8.5,16.4,10.1
	c4.6,1.1,9.1,2.7,13.7,3.7c10,2.1,20,3.6,30.3,2.7c4.5-0.4,9.3,0.1,13.9,0.3c1.2-0.4,2.5-0.4,3.8-0.1c0.1,1.4-0.9,1.5-1.7,1.5
	c-1.5,0.2-3,0.6-4.4,1.2c-8.8,0.5-17.5,0.4-26.3,0.1c-2.6-1-5.4-1.5-8.2-1.6c-5.2-0.6-10.4-1.5-15.5-2.6c-2.2-0.4-4-2.2-6.4-2.1
	c-2.3-1.1-4.7-2-7.2-2.8c-4.5-1.6-7.9-4.9-10.9-8.5c-1.2-1.2-1.8-2.9-1.6-4.6c0.1-0.8-0.2-1.7-0.7-2.3c-0.6-0.7-0.6-1.7-0.1-2.5
	c1.6,0.1,2.4-1.1,3.4-2.2C134.1,211.3,135.4,210.7,136.8,210.8z"/>
<path class="st50" d="M147.4,150.1c2.8,2,0,3.7-0.7,5.1c-1,1.8-1.6,3.7-1.8,5.8c-3,8.6-4.5,17.7-4.4,26.8c0.1,5.6,0.8,11.1,2,16.6
	c0.5,2.5-1.8,4.5-0.8,6.9c-1.3-1.2-0.8-2.7-0.5-4.1s0.7-2.8-0.3-3.8c-1.4-1.5-1.2,1.6-2.5,1.1c-0.4-0.1-0.8-0.1-1.2,0
	c1.7-0.6,2.2-1.7,1.9-3.5c-1.1-7.5-1.6-15.1-1.2-22.7c0.3-8.2,2.8-15.9,6.4-23.2c0.1-0.2,0.3-0.4,0.4-0.6l0,0
	c0.5-0.3,0.4-0.9,0.7-1.2l0,0c0.3-0.1,0.5-0.4,0.6-0.7l0,0c0.5-0.2,0.4-0.9,0.6-1.2l0,0C147.3,151.1,147.1,150.5,147.4,150.1
	L147.4,150.1z"/>
<path class="st51" d="M130,214.6c0.2,0.6,0.4,1.2-0.1,1.7c-0.6,1-1.8,0-2.4,0.7l-1.2,0.7c-0.7,0.3-1.3,0.7-1.9,1.1
	c-0.7,0.5-1.8,1.1-1.2,2.2c0.7,1.3,1.4,0.5,2.1-0.2c0.3-0.4,0.8-0.4,1.2-0.1c0,0,0,0,0,0c0.1,0,0.1,0,0.1,0.1l0,0
	c0.3,0.4,0.3,1-0.1,1.4c-0.8,0.8-1.4,1.9-2.8,1.8c-1.4-0.2-2.5-1.1-3-2.4c-0.6-1.2-0.2-2.6,0.9-3.4
	C124.1,216.2,126.6,214.4,130,214.6z"/>
<path class="st50" d="M137.4,204.6v3.2c-0.2,0-0.4,0-0.6,0.1C136.6,206.6,135.6,205.4,137.4,204.6z"/>
<path class="st29" d="M145.6,153.2c0.1,0.5-0.2,1-0.7,1.2L145.6,153.2z"/>
<path class="st29" d="M146.8,151.4c0.1,0.6,0,1.1-0.6,1.2L146.8,151.4z"/>
<path class="st29" d="M147.4,150.1c0.1,0.5-0.2,1-0.7,1.2L147.4,150.1z"/>
<path class="st29" d="M146.1,152.6l-0.6,0.7L146.1,152.6z"/>
<path class="st29" d="M144.9,154.4l-0.4,0.6L144.9,154.4z"/>
<path class="st52" d="M96.8,95.8l-0.3-1.3l0.4-1.9c0.2-0.2,0.3-0.2,0.4,0.1c0,0.9,0.4,1.8,1.1,2.4c5.5,4.8,5.4,6.2-0.4,10.7h-3
	c-0.3-1.1,0.4-1.4,1.2-1.8c4.4-2.3,4.6-2.8,2-6.8c-0.3-0.4-0.3-1-0.7-1.3L96.8,95.8L96.8,95.8z"/>
<path class="st53" d="M98.1,70.8c-0.1,0.6-0.1,1.2-0.4,1.5c-0.6,0.5-1.1-0.1-1.6-0.4c-1.1-0.7-2.1-1.5-1.5-3
	c0.8-2.1,0.1-4.6,1.7-6.4C97.7,65.1,97.1,68.1,98.1,70.8z"/>
<path class="st54" d="M95.6,82.1c-0.6-0.9-0.9-2.2-2.5-2C93,80,93,79.8,92.9,79.7c0.1-0.3,0.2-0.5,0.3-0.8c1.2-1,0.9-2.4,1-3.7
	c0.2-0.4,0.5-0.8,0.7-1.2c1.2,0.6,1.8,1.9,2.6,2.9c0.8,2-0.7,3.5-1.3,5.2C96.1,82.2,95.8,82.2,95.6,82.1z"/>
<path class="st55" d="M95.6,82.1h0.7c0.5-0.8,1.6-1,2.4-0.6c0.6,0.4,0.5,1.2,0.1,1.9c-0.9,2.5-3.7,3.7-4.3,6.4
	C93.8,87,97.1,84.8,95.6,82.1z"/>
<path class="st56" d="M98.8,83.3c0.1-2.3-1.5-1.2-2.5-1.3c-1.5-2.2,2-3.1,1.3-5.1C98.8,78.8,100.2,80.8,98.8,83.3z"/>
<path class="st24" d="M97.4,92.7c-0.1,0-0.3,0-0.4-0.1c0-1.6-1.1-3.6,1.5-4.1C97.6,89.6,97.2,91.2,97.4,92.7z"/>
<path class="st2" d="M87.6,62l-1.4,0.7C86.4,62.3,87,62,87.6,62z"/>
<path class="st57" d="M150,234.4c2.8-0.9,5,1.1,7.2,2c6.9,2.6,14.4,1.8,21.4,3.6c0.5,0.2,0.9,0.4,1.4,0.6c-2.7,0.5-5.4,0.5-8.1,0
	c-4.7,0.5-8.9-3.2-13.7-1.9c-2.8-0.5-5-2.7-8-2.6c-0.9,0-1.6-0.9-2-1.8C148.8,234,149.5,234.1,150,234.4z"/>
<path class="st58" d="M150,234.4h-1.9c-7.4-0.7-12.4-5.5-17-10.6c-0.8-1.1-1.1-2.5-0.9-3.8c0.2-2.3-1-2.9-2.8-3.1
	c0.6-0.9,1.6-0.6,2.4-0.7c0.8,0.2,1.4,0.6,1.3,1.5c-0.2,6.4,5.2,8.6,8.9,12.2C142.9,232.6,147.4,231.4,150,234.4z"/>
<path class="st59" d="M171.8,240.8h35.7c2.5-1,5.2-0.5,7.7-0.9c1.5,0.1,3-0.2,4.4,0.5l0.4,0.4c-1,1-2.3,0.7-3.5,0.6
	c-2.9-0.1-5.8,0.5-8.4,1.9c-8.7-0.3-17.4,0.8-26-0.7C178.6,242,175.1,241.8,171.8,240.8z"/>
<path class="st21" d="M97.4,95.8c5,3.9,4.4,6.6-0.6,8.5c-0.8,0.2-1.5,0.8-1.8,1.5l0,0c-3.2,1.2-6.4,1.9-9.8,2.2
	c-1.1,0.1-2.3-0.3-3.3,0.3H70c-1.6-0.7-3.2-0.2-4.9-0.3c-4.2-0.3-7.9-2.3-11.7-3.7c-1.5-0.6-2.5-2-2.6-3.6c-0.3-1.9,0.6-2.7,2.9-2.3
	c-0.4,2.2,1.1,3.4,2.7,4.3c10.5,5.7,22,2.7,33,3c2.5,0.1,5-2,7.8-2.7c1-0.3,3.2-2.3,0.7-4C96.4,97.8,97.4,96.8,97.4,95.8z"/>
<path class="st60" d="M53.7,98.2c-1.1,0-2.4,0.1-2.3,1.4c0,1.8,1.1,3.4,2.8,4.1c4.8,1.9,9.4,4.1,14.7,4c0.4,0,0.7,0.4,1,0.6h-7.5
	c-3.7,0.2-6.4-2.5-9.8-3.5c-1.7-0.5-3.6-2.8-3-4.6s0.6-5,3.9-5.2c0,0.9,0.1,1.7,0.2,2.6C53.8,97.8,53.7,98.1,53.7,98.2z"/>
<path class="st52" d="M81.8,108.2c4.4-0.6,8.6-2.6,13.1-2.5c-1.7,3-4.8,1.8-7.2,2.4C85.8,108.7,83.8,108.2,81.8,108.2z"/>
<path class="st59" d="M222.4,238.9h3.8c-1.8,1.4-4,2.1-6.3,1.9l0,0c-0.4-1.1,0.4-1.7,1.2-2.2C221.6,238.4,222.1,238.5,222.4,238.9z"
	/>
<path class="st61" d="M103.8,170.8v-4.3h0.3v4.2L103.8,170.8z"/>
<path class="st62" d="M108,161.6c-0.1,0.7-0.4,1-0.8,0.9c-0.3-0.2-0.6-0.5-0.7-0.9c0.1-0.4,0.4-0.6,0.8-0.7
	C107.6,161.1,107.8,161.6,108,161.6z"/>
<path class="st63" d="M245,199c-0.9,3.1-1.4,6.4-3.7,9c-0.6,0.6-0.9,1.5-0.6,2.3l0,0c-3.1,3.6-6.8,6.5-11,8.7
	c-6.4,1.9-12.7,3.8-19.3,4.7c-0.5,0.1-1,0.3-1.4,0.6c-7.1,2.1-7.1,2.1-8.5-5.1c-0.5-3-1.3-5.8-2.5-8.6c-0.4-1-0.6-2-1.8-2.2
	s-1.6,0.9-2,1.9c-0.2,0.5-0.6,0.9-1.1,1.1c-1.9,0.9-1.5,2.9-1.7,4.3c-0.5,2.5-0.5,5.2,0,7.7c0.9,3.6-0.8,3.8-3.4,3.5
	c-2.2-0.2-4.5,0.5-6.7-0.6c-0.7-0.7-1.8,0-2.5-0.6l-1.2-0.1c-5.1-4.8-10.8-9.2-13.6-15.9c-2.4-5.9-5.9-11.7-4.9-18.6
	c0.1-1.6,0.2-3.1,0.1-4.7c0.1-5.1,1.4-6.1,6.3-5.1c3,0.6,5.9,0.9,8.7-1c3.3-2.3,5-6.2,4.5-10.1c-0.2-1-0.7-2-0.3-3
	c2-1.6,4.5-2,6.6-3.4c0-0.2,0.1-0.4,0.1-0.6c0.1-0.3,0.3-0.5,0.5-0.6l0,0c0.5-0.6,0.3-1.4,0.3-2.1c0.1-1.4,0.8-1.5,1.9-1.1
	c5,2,10.6,2.2,15.7,0.4c0.3,0,0.6,0,0.9,0.1c0.2,0.2,0.4,0.4,0.6,0.6l0.2,0.3l0.5,0.6c0.1,0.1,0.2,0.1,0.3,0.2
	c0.3,0.1,0.7,0.2,1,0.2c0.2-0.1,0.4-0.1,0.6-0.2l0.5-0.4l0.2-0.2c0.1-0.2,0.3-0.3,0.5-0.5l0.2-0.2c0.2-0.2,0.3-0.4,0.5-0.5l0.3-0.2
	c0.4-0.4,0.9-0.6,1.5-0.6c1.6,0.3,3.2-0.1,4.4-1.1c0.9-0.5,0.8-1.7,1.6-2.3c0.8-0.2,1.2-1,1-1.7c0,0,0,0,0-0.1c0-0.1,0-0.1-0.1-0.2
	c-0.2-0.9-0.4-1.8,0.6-2.4c0.4-0.1,0.9,0,1.1,0.4c0.1,0.6,0.7,0.8,1,1.2c1.7,0.4,2.4,1.9,3.6,2.9c2.7,2.2,5.3,4.3,9.2,4.8
	c1.4,0.2,5.3,0.7,4.3,4.5c-0.1,0.2,0.2,0.6,0.3,0.8c5.8,7.2,7.8,14.8,7.2,24.1C245.4,192.9,244.2,195.9,245,199z"/>
<path class="st64" d="M178.6,167.1c0.5,2.5,1.1,4.7,0.3,7.4c-1.9,6.2-6.2,9.3-12.8,8.1c-0.9-0.1-1.8-0.3-2.7-0.6
	c-2.5-1-3.4,0.6-3.5,2.5c-0.2,6.6-0.6,13,2.2,19.5c1.9,4.4,4.5,8.3,6.7,12.5c1.3,1.9,3,3.5,5,4.6c1.7,1.1,3,2.7,3.6,4.7l-7.5-1.9
	c-3-3.6-5.4-7.6-8.4-11.1c-1-1.1-1.7-2.3-2.2-3.7c-3.2-9.7-5.6-19.5-3.2-29.8c0.2-0.7,0.6-1.2,1.1-1.7c1.7-0.6,3.1,0.2,4.4,1
	c2.3,1.5,5,2.2,7.7,2.1c4.1,0.1,7.5-3.2,7.6-7.3c0,0,0-0.1,0-0.1c0-0.6-0.1-1.2-0.2-1.8c-0.3-0.9-0.4-1.9-0.4-2.8
	C176.6,167.4,177.1,166.4,178.6,167.1z"/>
<path class="st65" d="M156.9,178.9l-0.6,9.3c-0.6,7.2,1.8,14,4.2,20.5c1.5,4.2,5,7.7,8,11.3c1,1,1.6,2.4,1.6,3.8
	c-1.3-0.3-2.4-1.2-3.8-1.2c-0.9,0.1-1.7-0.5-1.8-1.3v-0.4c0.1-1.6-0.9-2.4-1.8-3.4c-5.9-6.8-8.2-15.1-8.8-23.8
	c-0.8-9,0.3-18,3.1-26.6c0.1-0.4,0.3-0.9,0.6-1.2c2-0.2,1.7-3.8,4.4-3.1c1.9,2.2,1.8,2.9-0.7,4.8c-0.3,0.2-0.6,0.3-0.9,0.4
	c-2.5,1.8-2.8,4.5-3.2,7.2C156.9,176.2,157.2,177.6,156.9,178.9z"/>
<path class="st66" d="M160,167.1h0.6c0.4-0.3,0.9-0.4,1.3-0.1c0.8,1.4,0,2.6-0.3,3.9c-0.8,3.6,1.4,7.2,4.9,8.2
	c3.6,1.2,6.6,0.1,8.3-3.3c1.1-2.1,0.6-6.5-0.8-8c-2.7-2.7-5.9-3.3-8.9-1.6c-0.4,0.3-1,0.5-1.5,0.4c-1.7-4.3-1.3-5.2,3.2-5.7
	c1.2-0.2,2.3-0.9,3-2c0.9-1.1,1.5-2.5,2.5-3.5c0.4-0.4,1.1-1.7,2-0.2v2.5c0.6,0.6,0.8,1.4,0.8,2.2c0.8,4.4,3.3,5.7,7.5,4.1
	c0.5-0.2,1-0.3,1.5-0.3l0.8,0.1c-1.4,2.3-3.6,3.1-6.2,3.1c-1.8,0.2-1.8,1.2-1.3,2.6c1.6,4.5,0.1,8.2-3.7,10.7s-7.7,1.2-11.4-0.6
	c-1.6-0.8-3-1.8-4.8-2.1C156.2,173.6,158,170.2,160,167.1z"/>
<path class="st67" d="M184.1,163.9c-1.7,1.9-4.5,2.4-6.8,1.3c-3.2-1.5-3.1-4.5-3-7.4c2.2-4.2,4.1-5.3,6.7-4.1
	c2.8,1.6,4.3,4.7,3.8,7.9C184.6,162.2,184.4,163.1,184.1,163.9z"/>
<path class="st68" d="M204.4,160.8v-0.6c-0.2-1.2-0.5-1.9-2.1-1.5c-3.5,0.9-7.2,0.4-10.8,0.3c-2.4,0-4.7-0.9-6.5-2.6
	c-1-1.5-2.2-2.8-3.7-3.8c-0.4-0.3-1.2-0.4-0.7-1s0.9,0,1.4,0.2c4.8,3.3,10.4,3.6,15.8,3c3-0.3,6.7,1.6,9.3-1.8
	c0.5-0.7,0.8,0.3,0.7,1c-0.1,1.6-0.6,3.1-1.4,4.4c0.4,0.8,0.6,1.9,1.8,0.9c0.7-0.5,1.3-1.2,2.3-1.2c0.3,0.1,0.5,0.3,0.5,0.6
	c0,0.3-0.1,0.6-0.3,0.8l0,0l-0.6,0.6l0,0l-0.6,0.6l0,0l-0.6,0.6l0,0l-0.6,0.6l0,0c-0.8,0.4-1.7,0.4-2.5,0l0,0l-0.6-0.6l0,0
	C204.8,161.2,204.6,161,204.4,160.8z"/>
<path class="st69" d="M193.1,211.4c0.2-0.7,0.4-1.4,0.7-2c0.3-1,1.3-1.7,2.4-1.6c1,0,1.8,0.7,2,1.7c1.4,4.1,3,8.2,3.2,12.5
	c0.2,2.7,1,3.6,3.6,2.6c1.2-0.3,2.4-0.6,3.6-0.7c2-0.8,4.1-1.1,6.2-0.7c-1.6,2.4-4.3,0.7-6.3,1.7c-1.4,0.7-3.2,0.6-4.8,1.1
	c-2.1,0.6-2.9-0.5-3.2-2.3s-0.5-3.5-0.7-5.2c-0.1-0.4,0.1-1.2-0.7-1.1s-0.5,0.8-0.5,1.3c0.2,2.8,0.8,5.5,0.7,8.4
	c-0.1,1.4-0.6,2.5-2,2.8c-1.2,0.2-2.4-0.6-2.6-1.8c-0.9-4.3-2.1-8.6-0.4-13c1.6,2.6,0.2,5.5,1.1,8.2c0.4,1.2,0,3.6,1.3,3.4
	c1.9-0.3,0.6-2.4,0.6-3.7c-0.1-2-0.6-3.9-0.8-5.8c-0.2-1.3-0.7-2.1-2.2-2c0-0.5,0-1.1-0.1-1.6c0-1.2,0.4-2.1,1.6-2.3
	c1.4-0.2,1,1.3,1.4,2s0,2.1,1.1,1.8c0.7-0.1,0.5-1.6,0-2.2c-0.8-1.2-0.5-3.7-2.3-3.7s-1.8,2.3-2.5,3.7c-1.1,2.1,0.2,4.6-1.2,6.6
	C192,216.8,192.3,214.1,193.1,211.4z"/>
<path class="st70" d="M185,156.4c5.5,2,11.5,2.5,17.3,1.3c2.2-0.4,3.2,0.2,2,2.5c-4.2,1.6-8.2,2.8-12.8,1c-1.3-0.5-2.9-0.5-4.4-1.1
	s-0.2,2.1-1.5,2.6C185.9,160.6,185.7,158.5,185,156.4z"/>
<path class="st71" d="M174.4,155.1c-2.8,0.3-2.5,3.3-4.1,4.7c-1.2,1.1-1.9,2.1-4,1.8c-4.2-0.6-2.8,2.6-2.5,4.7
	c-0.4,0.9-1,1.3-1.9,0.6h-1.3c2.2-1,2.3-2.5,1.3-4.4c1.2-1.7,1.9-3.9,4.7-3.9c1.4,0,1.2-2,2.2-3c2.4-2.4,6.3-1,8.6-3.5L174.4,155.1z
	"/>
<path class="st72" d="M158.6,157.9c-0.8,1.2-1.2,2.6-1.1,4.1l-2.5,2.5c-0.3-2.1-2-3.3-3-5.1s-1.4-3.4-0.2-4.6
	c1.5-1.3,2.9,0.2,3.9,1.4C156.3,157.1,157.4,157.7,158.6,157.9z"/>
<path class="st73" d="M210.6,158.2c-0.7,0.6-1.4,1.2-2,1.9c-0.6,0.7-1.4,1.5-2.4,0.8c-1.3-0.8-0.5-1.7,0.1-2.6
	c1.8-0.4,2.1-1.9,2.2-3.3c0.3-2.9,1.5-2.6,3.3-1.2c1.3,0.1,2.7,0.3,4,0.6c0.9,0.3,1.5,1.2,1.4,2.1c0,1.2-0.9,1.2-1.7,1.5
	C213.9,158.9,212.1,158,210.6,158.2z"/>
<path class="st74" d="M175.6,136.4c4.9,0.3,8.3,3.3,11.4,6.7c1.4,1.7,3.5,2.7,5.7,2.6c4-0.3,6.2-3.8,5.2-7.8
	c-0.4-1.6-1.8-2.8-1.7-4.6c4,4.1,3.4,10.8-1.2,13c-2.3,1.2-5.1,0.8-7-1C184.3,141.7,180.1,138.7,175.6,136.4z"/>
<path class="st75" d="M210.6,158.2c0.6-2.1,1.9-0.5,3-0.6s2.8,0.9,3.1-0.9c0.2-1.6-1.4-1.4-2.5-1.5c-0.9,0-1.8-0.4-2.3-1.2
	c-0.8-1.9-1.4-3.4,1.9-3.2c2.9,0.2,1.9-2.9,3.1-4.2c0.1,1,0.2,2,1.4,2.2l0.2,0.4v0.9c0,0.4-0.1-0.1-0.1,0.3c0.3,2.5-0.3,4-3.4,2.7
	c1.2,0.9,3,0.9,2.7,2.8c-0.1,1,0.3,2.2-1.2,2.5c-1.8,1.4-3.7,0.5-5.6,0.6L210.6,158.2z"/>
<path class="st69" d="M192.4,222.6c0.4,1.6,2.5,3.3,0,4.9V222.6z"/>
<path class="st72" d="M152,165.4c1,0.1,2.1-0.2,2.9-0.8C154.4,166.4,153.2,166,152,165.4z"/>
<path class="st64" d="M178.6,225.8c0.9,0,1.8-0.3,2.5,0.6C180.4,226.4,179.4,226.6,178.6,225.8z"/>
<path class="st71" d="M157.4,165.9l-0.6,1.2C156.1,166.1,157.1,166.1,157.4,165.9z"/>
<path class="st69" d="M192.4,220.6v2.1C191.9,222.1,191.9,221.3,192.4,220.6z"/>
<path class="st74" d="M175,135.9l0.6,0.6L175,135.9z"/>
<path class="st70" d="M185.6,162.6l-0.5,0.6L185.6,162.6z"/>
<path class="st76" d="M222.4,238.9h-1.2c-0.9,0.6-2.1,1-3.2,0.9c-1.6-0.2-3.5,0.5-4.9-0.9h-3.8c3.6-1.4,7.4-1.7,11.1-2.1
	c5.9-0.7,11.2-3.5,17-4.4c2.1-0.4,4.4-0.1,6.2-1.5c0.3,0.3,0.3,0.9,0,1.2l0,0c-0.2,0.2-0.6,0.2-0.7,0.6c-3,2-6.5,2.7-9.9,3.7
	S226,238.1,222.4,238.9z"/>
<path class="st77" d="M243.6,232.1v-1.2c3.7-2,6.9-4.9,10.2-7.3c2.6-1.7,3.3-5.3,1.5-7.9c0,0,0,0,0,0c-0.2-0.3-0.4-0.6-0.7-0.8
	c-1.1-1.2-2.4-2.3-3.5-3.5c-0.8-0.8-0.8-1.4,0.5-1.7c3.3,1.4,5.7,4.4,6.2,8c0.3,1.1,0.1,2.3-0.6,3.2l0,0l-0.6,0.6
	c0.7,4.8-3.6,6-6.3,7.7C248.6,230.4,246.4,232.4,243.6,232.1z"/>
<path class="st40" d="M257.5,220.8c1-5.2-2-8.4-5.6-11.3l0.6-0.6c2.7,1.7,4.8,4.2,5.8,7.2C258.8,217.9,259.4,219.4,257.5,220.8z"/>
<path class="st38" d="M215,223.2c-2.1,0.1-4.1,1.1-6.2,0.7c1.6-2.5,4.5-1.5,6.7-2.1c4.8-1.2,9.5-2.9,14.4-3.8l0.3,0.4
	c-0.6,1.7-2.2,1.6-3.5,1.9c-2,0.5-4.1,0.8-6.2,1.5h-0.2l-0.2,0.1C218.5,223.1,216.6,222.5,215,223.2L215,223.2z"/>
<path class="st38" d="M229.8,218.1c4-2.2,7.1-5.4,10.8-7.9c-1.3,2.9-3.9,4.5-6.3,6.3c-0.8,1.5-2.5,2.3-4.2,2L229.8,218.1z"/>
<path class="st69" d="M230.1,218.4l4.2-2c-0.5,3.2-3.6,2.7-5.5,3.6c-2.5,1.3-5.5,1.6-8.4,1.8C223.2,219.6,227.4,220.9,230.1,218.4z"
	/>
<path class="st78" d="M250.4,202.6c-0.8,0.7-0.5,1.7-0.5,2.6c-1.6,1.3-2.2,0.6-2.1-1.1c0.2-0.9,0.5-1.8,0.9-2.6
	c1.2-1.2,1.3-2.7,1.7-4.2L250.4,202.6L250.4,202.6z"/>
<path class="st69" d="M215,223.2c1.6-0.8,3.3-1.2,5-1.3C218.6,224.1,216.6,223.1,215,223.2z"/>
<path class="st77" d="M243.1,232.6c-0.4-0.9,0.4-0.5,0.7-0.6L243.1,232.6z"/>
<path class="st40" d="M256.9,221.4l0.6-0.6L256.9,221.4z"/>
<path class="st39" d="M235,155.8l1.2,1.3c-4.1,2-9.2,0-11.2-5c1.3-1.2,1.9-0.2,2.6,0.8C229.1,155.4,232.2,156.5,235,155.8z"/>
<path class="st39" d="M221.1,152.6L220,152c0.2-0.3,0.4-0.3,0.6,0l1.2,0.6L221.1,152.6z"/>
<path class="st39" d="M223.6,152.6l0.7-0.5L223.6,152.6z"/>
<path class="st79" d="M218.1,148.9c0-0.2,0-0.4-0.1-0.6c-0.9-1.9-1.4-3.7,0.1-5.5c1-1,2.6-1.2,3.8-0.5c2.1,0.9,3.9,2.4,4.2,5
	c0.4,3.1-1.7,4.6-5.5,4.1C219.4,151.1,218.4,150.1,218.1,148.9z"/>
<path class="st25" d="M218.1,148.9l2.5,2.4v0.7H220l-0.7-0.6c-0.7-0.4-1.5-0.8-1.3-1.8L218.1,148.9z"/>
<path class="st2" d="M76.2,98.8l-15.6,0.6c-1.2,0.1-2.3-0.3-3.1-1.2c4.4-0.3,8.8-0.4,13.2-0.9C72.6,97.1,74.6,97.7,76.2,98.8z"/>
<path class="st80" d="M73.8,82.6c-0.3,1.5-1.6,2.5-3.1,2.6c-1.5,0.2-2.9-0.9-3.1-2.4c-0.2-1.5,0.8-2.8,2.3-3.1h0.4
	C72.2,79.7,73.1,81.1,73.8,82.6z"/>
<path class="st81" d="M94.2,75.2c1.2,1.8,1.4,3.4-1.1,4.4c-0.2-0.2-0.4-0.4-0.5-0.7c-0.1-0.4,0-1-0.7-1c-0.6,0.2-0.9,0.8-1.4,1
	C89.7,76.1,90.7,75.1,94.2,75.2z"/>
<path class="st82" d="M84.3,84.4c-0.9,0-1.7-0.2-1.6-1.3s0-2.3,1.4-2.4S85.7,82,86,83S85.2,84.3,84.3,84.4z"/>
<path class="st83" d="M90.6,79c0-0.9,0-1.8,1.2-1.9c0.6,0.4,1.1,1,1.3,1.7c0,0.3,0.1,0.6,0.1,0.8l0,0c-0.6,0.4-1.4,0.4-2,0L90.6,79z
	"/>
<path class="st81" d="M91.2,79.6h2c0,0.2,0,0.4-0.1,0.5C92.3,80,91.7,80.3,91.2,79.6z"/>
<path class="st84" d="M213.1,238.9h5c0,1.8-1.8,1.1-2.5,1.9h-8.1C208.9,238.6,211.4,240.2,213.1,238.9z"/>
<path class="st30" d="M215.6,240.8l2.5-1.9h3.2l-1.3,1.9H215.6z"/>
<path class="st85" d="M205.6,188.2c-0.2-1.7,0.8-2.6,2.1-2.2c1.9,0.5,4.8-0.5,5.3,2.6c0.6,2.8,0.6,5.8,0,8.6c-0.1,1-0.8,1.8-1.7,2
	c-2.6,0.2-5.3-0.4-6.8-2.4c-2.1-2.6-1.7-6.4,0.9-8.4c0,0,0.1,0,0.1-0.1C205.5,188.4,205.6,188.3,205.6,188.2L205.6,188.2
	c3,1.4,3.7,2.4,3.3,5.8c-0.2,0.6-0.2,1.2,0,1.8c0.1,0.5,0.6,0.9,1.1,0.9c0.5,0,0.7-0.3,0.9-0.7c0.8-1.3,0.6-6.5-0.4-7.5
	C209.1,187.1,207.2,188.4,205.6,188.2z"/>
<path class="st86" d="M225.1,184.6c0.2-1.8-0.1-4.1,2.4-4.4c2.4-0.4,4.7,0.9,5.7,3.1c1.6,3-0.1,5-1,7.3c-0.4,0.9-1.3,1.4-2.3,1.3
	C226.4,192,223.7,187.8,225.1,184.6c1.2,1.1,2.1,2.5,2.8,4c0.4,0.8,1.1,1.4,2,0.9s0.4-1.2,0.2-1.9c-0.1-0.4-0.3-0.8-0.5-1.1
	c-0.6-1.1-1-2.7-1.9-3.4S226.6,185,225.1,184.6z"/>
<path class="st70" d="M218,149.6l1.3,1.8c-1.1,0.8-0.4,1.7,0,2.5c0.9,2.1,0.1,2.5-1.8,1.9c-0.6-1-1.6-1.6-2.7-1.9
	c-0.4-0.1-1.4-0.2-1-0.4c0.9-0.5,0.8-1.3,1.1-1.9c0.3-0.1,0.7,0,1,0.2c0.5,0.4,0.8,1.5,1.6,1.1s-0.1-1.2-0.3-1.9
	c-0.3-0.4-0.2-1,0.2-1.2c0,0,0.1-0.1,0.2-0.1C217.8,149.6,217.9,149.6,218,149.6z"/>
<path class="st70" d="M210.6,159c1.8-1.4,3.8,0.3,5.6-0.6c-1.5,2-3.6,1.4-5.6,1.2C210.6,159.4,210.6,159.2,210.6,159z"/>
<path class="st70" d="M212.4,161.4c-0.4,0.4-0.6,0.8-0.9,0.9s-0.9,0.1-0.7-0.5c0.1-0.3,0.4-0.6,0.7-0.8
	C211.9,161.1,212.2,161.2,212.4,161.4z"/>
<path class="st70" d="M205.6,162.1h2.5c-0.4,0.7-1.4,0.9-2,0.4c0,0,0,0-0.1,0C205.8,162.4,205.6,162.1,205.6,162.1z"/>
<path class="st75" d="M210,160.1l0.6-0.6L210,160.1z"/>
<path class="st70" d="M204.4,160.8l0.6,0.6L204.4,160.8z"/>
<path class="st70" d="M208.6,161.4l0.6-0.6L208.6,161.4z"/>
<path class="st70" d="M205,161.4l0.6,0.6L205,161.4z"/>
<path class="st70" d="M208.1,162l0.6-0.6L208.1,162z"/>
<path class="st70" d="M209.4,160.9l0.6-0.6L209.4,160.9z"/>
<path class="st71" d="M160,167.1c-0.9,3.5-2.3,6.9-2.5,10.6l-0.6,1.3c-1.5-3.9-0.1-7.3,1.4-10.8C158.5,167.4,159.2,166.9,160,167.1z
	"/>
<path class="st87" d="M161.9,167.1l1.9-0.6c1.9-2.8,4.7-2.9,7.4-1.7s5,3.2,5.2,6.9s-1,6.6-4,8.1c-3,1.3-6.4,0.8-8.8-1.4
	c-2.4-1.7-3.5-4.8-2.7-7.7C161.1,169.4,161.4,168.2,161.9,167.1z"/>
<path class="st88" d="M194.4,215.1c0.6-0.6,0.2-2.1,1.6-1.9c1,0.2,0.9,1.3,1,2.1c0.6,3.4,1.1,6.7,1.6,10.1c0.2,1.3,0.1,3-1.7,3.1
	c-1.6,0.1-1.9-1.4-2-2.6C194.7,222.4,194.6,218.8,194.4,215.1L194.4,215.1z"/>
<path class="st89" d="M71.6,82.8c-0.3,0.2-0.6,0.4-0.9,0.5c-0.3,0.1-0.7-0.1-0.8-0.4c0,0,0,0,0-0.1c0-0.2,0-0.3,0.1-0.5
	c0.1-0.4,0.4-0.6,0.8-0.7C71.2,81.6,71.6,82.1,71.6,82.8z"/>
<path class="st90" d="M93.1,78.8c-0.8-0.2-1.3-0.9-1.3-1.7c0.6-0.5,1.2-0.8,1.8-0.1S93.3,78.2,93.1,78.8z"/>
<path class="st91" d="M205.6,188.2c1.3-2.1,3.2-1.3,5-0.9s1.1,1.8,1.4,3.1c0.5,1.9,0.5,3.9-0.1,5.8c-0.4,1.2-0.5,2.4-2,1.9
	c-1.3-0.4-2.8-1.8-2.2-2.9C209.4,192.1,207.4,190.3,205.6,188.2L205.6,188.2z"/>
<path class="st92" d="M225.1,184.6c0.6-0.4,1-1.1,1-1.8c0.2-1,0.7-1.8,1.9-1.6s0.9,1.1,1.1,1.9c0.5,1.6,1.2,3.1,2,4.6
	c0.5,1,1.3,1.9,0,2.6s-3.1,0.9-3.6-0.4C226.8,188,224.8,186.8,225.1,184.6z"/>
<path class="st93" d="M168.8,178.2c-4.5,0-6.3-1.7-6.3-5.7c0-4.4,1.9-6.2,6.3-6.2s6.3,1.7,6.2,6.1
	C174.9,176.4,172.9,178.2,168.8,178.2z"/>
<path class="st94" d="M173.1,172.4c0,1.9-3.5,5.5-5.1,4.9c-2.2-0.8-3.9-2.9-3.4-5s0.8-5.2,4.1-5.3
	C171.2,167,173.1,169.4,173.1,172.4z"/>
</svg>
