<svg id="图层_1" data-name="图层 1" xmlns="http://www.w3.org/2000/svg" viewBox="0 0 669.68 2747.92"><defs><style>.cls-1{fill:#febd7d;}.cls-2{fill:#ffe5b9;}.cls-3{fill:#ffc675;}.cls-4{fill:#2d3666;}.cls-5{fill:#2c97f7;}.cls-6{fill:#48befe;}.cls-7{fill:#1d64e0;}.cls-8{fill:#e8f3ff;}.cls-9{fill:#fff;}.cls-10{fill:#b8daf2;}.cls-11{fill:#8cd5e6;}.cls-12{fill:#c9c9c9;}.cls-13{fill:#e8e8e8;}.cls-14{fill:#cecece;}.cls-15{fill:#393939;}.cls-16{fill:#818181;}.cls-17{fill:#a2a2a2;}.cls-18{fill:#5c5c5c;}.cls-19{fill:#f1f1f1;}.cls-20{fill:#d2d2d2;}.cls-21{fill:#c1c1c1;}</style></defs><title>画板 1</title><path class="cls-1" d="M417.76,2473.84a199.4,199.4,0,0,1-82.92,212.75,199.65,199.65,0,0,1-83-212.58,213.68,213.68,0,0,0,78.76,104.26,7.42,7.42,0,0,0,8.49,0,213.16,213.16,0,0,0,78.67-104.43"/><path class="cls-1" d="M416.2,2462.64A209.25,209.25,0,0,1,339,2565.12a7.31,7.31,0,0,1-8.34,0,209.77,209.77,0,0,1-77.28-102.31,195.25,195.25,0,0,0-5.43,46.11c0,4.45.17,8.87.46,13.24-.28,4.36-.46,8.75-.46,13.17a195.23,195.23,0,0,0,86.88,162.48,195.23,195.23,0,0,0,86.88-162.48c0-4.41-.18-8.77-.47-13.11.3-4.4.47-8.83.47-13.3a195.68,195.68,0,0,0-5.52-46.28"/><path class="cls-2" d="M245.73,2526.18a214,214,0,0,0-5.9,50.42c0,3.4.07,6.71.15,10a244,244,0,0,0,94.88,122.45,248.16,248.16,0,0,0,36.88-30.35,244,244,0,0,0,58-92.25c.07-3.32.15-6.63.15-9.87a219.09,219.09,0,0,0-6.05-50.58c-.18.54-.37,1.08-.56,1.62a200.6,200.6,0,0,1-2.21,23.81,195.83,195.83,0,0,1-86.22,146.35,195.32,195.32,0,0,1-86.22-146.37,200.34,200.34,0,0,1-2.19-23.28c-.24-.66-.47-1.32-.7-2"/><path class="cls-3" d="M423.27,2527.65c-.52,1.45-1,2.89-1.59,4.32,0,1.12,0,2.24,0,3.36q0,8.15-.66,16.13a200.6,200.6,0,0,0,2.21-23.81m-176.84.51a200.34,200.34,0,0,0,2.19,23.28c-.44-5.31-.66-10.69-.66-16.11q0-1.48,0-3-.8-2.09-1.56-4.2"/><path class="cls-3" d="M248,2532.36q0,1.48,0,3c0,5.42.22,10.8.66,16.11a195.32,195.32,0,0,0,86.22,146.37,195.83,195.83,0,0,0,86.22-146.35q.66-8,.66-16.13c0-1.12,0-2.24,0-3.36a230,230,0,0,1-82.25,106,7.85,7.85,0,0,1-9.15,0A229.43,229.43,0,0,1,248,2532.36"/><path class="cls-4" d="M385.29,2694.48a258.6,258.6,0,0,1-39,32,20.65,20.65,0,0,1-23,0,257.06,257.06,0,0,1-106.86-273.74,20.67,20.67,0,0,1,40.17,9.76,215.75,215.75,0,0,0,78.19,221.38,215.47,215.47,0,0,0,78.1-221.58,20.67,20.67,0,1,1,40.16-9.77,256.82,256.82,0,0,1-67.81,242Z"/><path class="cls-5" d="M649,2288.79a310,310,0,0,1-37.93,149q-2.64,4.65-5.27,9.3a243,243,0,0,0-8.68-42.48c-1.66-5.89-3.62-11.68-5.8-17.36a249.7,249.7,0,0,0-117.51-132.4,735.87,735.87,0,0,0,67.39-201.64A310,310,0,0,1,649,2288.79"/><path class="cls-5" d="M195.83,2254.89l-2.17,1.24a248.83,248.83,0,0,0-129.82,191c-4.23-7.23-8.27-14.67-11.88-22.22-1.14-2.38-2.28-4.75-3.31-7.13a311,311,0,0,1,69.24-354.92c3.42-3.31,7-6.62,10.65-9.71,2.79,15.8,6.2,31.52,10.13,47.12a734.67,734.67,0,0,0,40,118l.2.62c5.38,12.1,11,24.09,17,36"/><path class="cls-6" d="M540.62,2072.54c-.58,2.84-1.18,5.67-1.8,8.51a311,311,0,0,1,32.45,265.15,247.79,247.79,0,0,1,20.09,41.09c2.18,5.68,4.14,11.47,5.8,17.36q1.29,4.3,2.42,8.66c.26-.52.52-1,.79-1.56,2.5,5.87,4.81,11.85,6.85,17.95,1.62-3,3.07-6,4.59-9q1.89,4.45,3.6,9A310,310,0,0,0,649,2288.79a313.29,313.29,0,0,0-14.37-93.85,308,308,0,0,0-15.41-39.23,313.17,313.17,0,0,0-48.84-56.2A312.18,312.18,0,0,0,544.27,2074l-.34,1.69q-1.65-1.56-3.31-3.11"/><path class="cls-7" d="M111.74,2068.84a304.19,304.19,0,0,0-59,340.46c.3-1.92.69-3.8,1-5.7,3.14,9,6.61,17.8,10.54,26.37A252.12,252.12,0,0,1,77,2381.4a306.52,306.52,0,0,1-3.41-46.1,309.72,309.72,0,0,1,74.13-201.59q-8.56-28.74-14.78-58c-.46.44-.91.89-1.36,1.34l-1.39,1.4c-.43.44-.86.88-1.3,1.31l-.54.54c-1.92-7.37-3.76-14.75-5.44-22.15-1.69,1.55-3.36,3.13-5,4.7q-3.11,3-6.15,6"/><path class="cls-4" d="M620.4,2461.75a20.67,20.67,0,0,1-35.15-12.28,228.94,228.94,0,0,0-134.73-182.92,20.67,20.67,0,0,1,16.68-37.83,270.76,270.76,0,0,1,145,155.69,291,291,0,0,0-104.94-331.74,20.67,20.67,0,0,1,24.14-33.57,332.19,332.19,0,0,1,92.16,438.56A20.52,20.52,0,0,1,620.4,2461.75Z"/><path class="cls-4" d="M78.51,2461.75a20.66,20.66,0,0,1-32.4-4.08,332.19,332.19,0,0,1,92.16-438.56,20.67,20.67,0,0,1,24.15,33.55A291,291,0,0,0,57.47,2384.43a270.56,270.56,0,0,1,145-155.71,20.67,20.67,0,1,1,16.68,37.83A229,229,0,0,0,84.43,2449.46,20.58,20.58,0,0,1,78.51,2461.75Z"/><path class="cls-8" d="M553.23,1920a744.32,744.32,0,0,1-82.48,341.07H198.92c-144.28-280.4-99-633.15,135.92-868.18C480.36,1538.43,553.23,1729.23,553.23,1920"/><path class="cls-9" d="M473.2,1581.71h.29a744,744,0,0,1,82.44,341c.07,7.09-.29,14.18-.44,21.2l-.15,1.16q-.87,32.25-4.6,64.24l-.37,2.71a737.49,737.49,0,0,1-20.24,104.88c-.29,1-.65,2.11-.88,3.21-5.7,20.76-12.27,41.22-19.8,61.61l-.37,1.1c-5,13.37-10.45,26.82-16.29,40l-.37.8A741.27,741.27,0,0,1,446.16,2312c-6.51,10.75-13.45,21.35-20.54,31.79H311a735.93,735.93,0,0,0,61.75-82.66,749.74,749.74,0,0,0,54.89-102.25l.36-.8c5.78-13.23,11.26-26.6,16.23-40.05l.36-1.1c7.6-20.31,14.11-40.85,19.81-61.6.29-1,.66-2.13.88-3.22a727.22,727.22,0,0,0,20.24-104.87l.37-2.71q3.72-32,4.67-64.17l.07-1.24c.15-7,.52-14.1.52-21.12a743.74,743.74,0,0,0-82.51-341.08h-.3a730.5,730.5,0,0,0-74.9-117.15c1.24-1.39,2.62-2.78,3.94-4.09A743.39,743.39,0,0,1,473.2,1581.71"/><path class="cls-10" d="M340.49,1519.8c-162.91,215.6-196.37,497.94-100.28,740.85H202.94c-119.88-232.88-112-514.33,23.5-740.85H340.49"/><path class="cls-5" d="M444.29,1531.92l-9.4,5.69H234.79l-9.4-5.68a744.5,744.5,0,0,1,109.45-139,744.76,744.76,0,0,1,109.45,139"/><path class="cls-11" d="M347.73,1406.12c1.43,1.5,2.84,3,4.25,4.5l.23.24c-1.15-1.22-2.3-2.45-3.46-3.66l-1-1.08m-.56-.58.42.43-.42-.43m-79,63.72q-8.46,11.13-16.45,22.49a2.83,2.83,0,0,0-.2.28l-.43.6q-9.09,13-17.57,26.23l0,0q16.18-25.35,34.61-49.62"/><path class="cls-7" d="M334.85,1392.93a754.94,754.94,0,0,0-66.71,76.33q-18.44,24.26-34.61,49.62l1.64.92H340.55a769.07,769.07,0,0,1,52.11-61.9q-6.54-8.31-13.38-16.49-13.15-15.67-27.3-30.79c-1.41-1.5-2.82-3-4.25-4.5l-.14-.15-.42-.43q-6.07-6.36-12.32-12.61"/><polygon class="cls-8" points="438.19 2343.78 231.48 2343.78 210.81 2261.09 458.87 2261.09 438.19 2343.78"/><path class="cls-5" d="M448.53,1816.67A113.69,113.69,0,1,1,334.84,1703a113.68,113.68,0,0,1,113.69,113.69"/><path class="cls-7" d="M253.7,1748A97.07,97.07,0,0,0,347,1910.54a97.07,97.07,0,0,1-.06-187.82,100.09,100.09,0,0,0-24.58-3.12A96.75,96.75,0,0,0,253.7,1748"/><path class="cls-4" d="M449.52,1552.18a20.62,20.62,0,0,1-14.62,6.06H226.33a20.67,20.67,0,0,1,0-41.34H434.9a20.67,20.67,0,0,1,14.62,35.28Z"/><path class="cls-4" d="M485.33,2275.71a20.68,20.68,0,0,1-14.61,6.05H199a20.67,20.67,0,0,1-18.38-11.21c-124.45-241.72-110.86-534,35.46-762.82a771.35,771.35,0,0,1,104.17-129.4,20.65,20.65,0,0,1,29.23,0,751,751,0,0,1,59.44,66.81c106.38,134.27,165,302.94,165,474.88,0,121.82-29.32,243-84.81,350.56A20.65,20.65,0,0,1,485.33,2275.71Zm-273.61-35.3H458A726.6,726.6,0,0,0,532.56,1920c0-162.65-55.44-322.21-156.1-449.27-12.84-16.34-26.77-32.46-41.6-48.16a728.11,728.11,0,0,0-84,107.42C114.74,1742.91,100.09,2014,211.72,2240.41Z"/><path class="cls-9" d="M349.46,1800.28a20.61,20.61,0,0,1-14.62,6,10.35,10.35,0,0,0-10.34,10.34,20.67,20.67,0,0,1-41.34,0A51.73,51.73,0,0,1,334.84,1765a20.68,20.68,0,0,1,14.62,35.29Z"/><polygon class="cls-10" points="249.83 2267.59 268.85 2344.09 237.46 2344.04 218.02 2265.73 249.83 2267.59"/><path class="cls-4" d="M452.81,2358.36a20.62,20.62,0,0,1-14.62,6H231.52a20.67,20.67,0,0,1-20.05-15.65l-20.69-82.66a20.66,20.66,0,0,1,20.05-25.69h248a20.67,20.67,0,0,1,20.06,25.68l-20.68,82.67A20.69,20.69,0,0,1,452.81,2358.36Zm-205.16-35.29H422.06l10.34-41.31H237.31Z"/><path class="cls-5" d="M334.84,2075.05h0a39.33,39.33,0,0,0-39.28,41.29l17.58,351.49a21.73,21.73,0,0,0,43.4,0l17.58-351.49A39.33,39.33,0,0,0,334.84,2075.05Z"/><path class="cls-4" d="M364.84,2496.73a42.41,42.41,0,0,1-72.35-27.86l-17.57-351.49a60,60,0,0,1,59.92-63h0a60,60,0,0,1,59.93,63l-17.58,351.49A42.31,42.31,0,0,1,364.84,2496.73Zm-43.19-395.55-.33.35a18.51,18.51,0,0,0-5.11,13.78l17.57,351.49a1.07,1.07,0,0,0,1.07,1,1.05,1.05,0,0,0,1-1l17.57-351.5a18.65,18.65,0,0,0-18.63-19.59h0A18.56,18.56,0,0,0,321.65,2101.18Z"/><path class="cls-4" d="M429.8,1911.63a134.25,134.25,0,1,1,39.4-95A133.94,133.94,0,0,1,429.8,1911.63ZM269.07,1750.89a93,93,0,1,0,65.77-27.24A92.42,92.42,0,0,0,269.07,1750.89Z"/><path class="cls-12" d="M417.76,1115.84a199.4,199.4,0,0,1-82.92,212.75,199.65,199.65,0,0,1-83-212.58,213.68,213.68,0,0,0,78.76,104.26,7.42,7.42,0,0,0,8.49,0,213.16,213.16,0,0,0,78.67-104.43"/><path class="cls-12" d="M416.2,1104.64A209.25,209.25,0,0,1,339,1207.12a7.31,7.31,0,0,1-8.34,0,209.77,209.77,0,0,1-77.28-102.31,195.25,195.25,0,0,0-5.43,46.11c0,4.45.17,8.87.46,13.24-.28,4.36-.46,8.75-.46,13.17a195.23,195.23,0,0,0,86.88,162.48,195.23,195.23,0,0,0,86.88-162.48c0-4.41-.18-8.77-.47-13.11.3-4.4.47-8.83.47-13.3a195.68,195.68,0,0,0-5.52-46.28"/><path class="cls-13" d="M245.73,1168.18a214,214,0,0,0-5.9,50.42c0,3.4.07,6.71.15,10a244,244,0,0,0,94.88,122.45,248.16,248.16,0,0,0,36.88-30.35,244,244,0,0,0,58-92.25c.07-3.32.15-6.63.15-9.87a219.09,219.09,0,0,0-6.05-50.58c-.18.54-.37,1.08-.56,1.62a200.6,200.6,0,0,1-2.21,23.81,195.83,195.83,0,0,1-86.22,146.35,195.32,195.32,0,0,1-86.22-146.37,200.34,200.34,0,0,1-2.19-23.28c-.24-.66-.47-1.32-.7-2"/><path class="cls-14" d="M423.27,1169.65c-.52,1.45-1,2.89-1.59,4.32,0,1.12,0,2.24,0,3.36q0,8.14-.66,16.13a200.6,200.6,0,0,0,2.21-23.81m-176.84.51a200.34,200.34,0,0,0,2.19,23.28c-.44-5.31-.66-10.69-.66-16.11q0-1.49,0-3-.8-2.08-1.56-4.2"/><path class="cls-14" d="M248,1174.36q0,1.48,0,3c0,5.42.22,10.8.66,16.11a195.32,195.32,0,0,0,86.22,146.37,195.83,195.83,0,0,0,86.22-146.35q.66-8,.66-16.13c0-1.12,0-2.24,0-3.36a230,230,0,0,1-82.25,106,7.85,7.85,0,0,1-9.15,0A229.43,229.43,0,0,1,248,1174.36"/><path class="cls-15" d="M385.29,1336.48a258.6,258.6,0,0,1-39,32,20.65,20.65,0,0,1-23,0,257.06,257.06,0,0,1-106.86-273.74,20.67,20.67,0,0,1,40.17,9.76,215.75,215.75,0,0,0,78.19,221.38,215.47,215.47,0,0,0,78.1-221.58,20.67,20.67,0,1,1,40.16-9.77,256.82,256.82,0,0,1-67.81,242Z"/><path class="cls-16" d="M649,930.79a310,310,0,0,1-37.93,149q-2.64,4.65-5.27,9.3a243,243,0,0,0-8.68-42.48c-1.66-5.89-3.62-11.68-5.8-17.36a249.7,249.7,0,0,0-117.51-132.4,735.87,735.87,0,0,0,67.39-201.64A310,310,0,0,1,649,930.79"/><path class="cls-16" d="M195.83,896.89l-2.17,1.24a248.83,248.83,0,0,0-129.82,191c-4.23-7.23-8.27-14.67-11.88-22.22-1.14-2.38-2.28-4.75-3.31-7.13a311,311,0,0,1,69.24-354.92c3.42-3.31,7-6.62,10.65-9.71,2.79,15.8,6.2,31.52,10.13,47.12a734.67,734.67,0,0,0,40,118l.2.62c5.38,12.1,11,24.09,17,36"/><path class="cls-17" d="M540.62,714.54c-.58,2.84-1.18,5.67-1.8,8.51A311,311,0,0,1,571.27,988.2a247.79,247.79,0,0,1,20.09,41.09c2.18,5.68,4.14,11.47,5.8,17.36q1.29,4.3,2.42,8.66c.26-.52.52-1,.79-1.56,2.5,5.87,4.81,11.85,6.85,18,1.62-3,3.07-6,4.59-9q1.89,4.45,3.6,9A310,310,0,0,0,649,930.79a313.29,313.29,0,0,0-14.37-93.85,308,308,0,0,0-15.41-39.23,313.17,313.17,0,0,0-48.84-56.2A312.18,312.18,0,0,0,544.27,716l-.34,1.69q-1.65-1.56-3.31-3.11"/><path class="cls-18" d="M111.74,710.84a312.21,312.21,0,0,0-57.69,79.57,311.38,311.38,0,0,0-1.27,260.89c.3-1.92.69-3.8,1-5.7,3.14,9,6.61,17.8,10.54,26.37A252.12,252.12,0,0,1,77,1023.4a306.52,306.52,0,0,1-3.41-46.1,309.72,309.72,0,0,1,74.13-201.59q-8.56-28.74-14.78-58c-.46.44-.91.89-1.36,1.34l-1.39,1.4c-.43.44-.86.88-1.3,1.31l-.54.54c-1.92-7.37-3.76-14.75-5.44-22.15-1.69,1.55-3.36,3.13-5,4.7q-3.11,3-6.15,6"/><path class="cls-15" d="M620.4,1103.75a20.67,20.67,0,0,1-35.15-12.28A228.94,228.94,0,0,0,450.52,908.55a20.67,20.67,0,0,1,16.68-37.83,270.76,270.76,0,0,1,145,155.69A291,291,0,0,0,507.27,694.67a20.67,20.67,0,0,1,24.14-33.57,332.19,332.19,0,0,1,92.16,438.56A20.52,20.52,0,0,1,620.4,1103.75Z"/><path class="cls-15" d="M78.51,1103.75a20.66,20.66,0,0,1-32.4-4.08,332.19,332.19,0,0,1,92.16-438.56,20.67,20.67,0,0,1,24.15,33.55A291,291,0,0,0,57.47,1026.43a270.56,270.56,0,0,1,145-155.71,20.67,20.67,0,1,1,16.68,37.83A229,229,0,0,0,84.43,1091.46,20.58,20.58,0,0,1,78.51,1103.75Z"/><path class="cls-19" d="M553.23,562a744.32,744.32,0,0,1-82.48,341.07H198.92c-144.28-280.4-99-633.15,135.92-868.18C480.36,180.43,553.23,371.23,553.23,562"/><path class="cls-9" d="M473.2,223.71h.29a744,744,0,0,1,82.44,341c.07,7.09-.29,14.18-.44,21.2l-.15,1.16q-.87,32.25-4.6,64.24l-.37,2.71A737.49,737.49,0,0,1,530.13,758.9c-.29,1-.65,2.11-.88,3.21-5.7,20.76-12.27,41.22-19.8,61.61l-.37,1.1c-5,13.37-10.45,26.82-16.29,40l-.37.8A741.27,741.27,0,0,1,446.16,954c-6.51,10.75-13.45,21.35-20.54,31.79H311a735.93,735.93,0,0,0,61.75-82.66,749.74,749.74,0,0,0,54.89-102.25l.36-.8c5.78-13.23,11.26-26.6,16.23-40l.36-1.1c7.6-20.31,14.11-40.85,19.81-61.6.29-1,.66-2.13.88-3.22A727.22,727.22,0,0,0,485.55,589.2l.37-2.71q3.72-32,4.67-64.17l.07-1.24c.15-7,.52-14.1.52-21.12a743.74,743.74,0,0,0-82.51-341.08h-.3a730.5,730.5,0,0,0-74.9-117.15c1.24-1.39,2.62-2.78,3.94-4.09A743.39,743.39,0,0,1,473.2,223.71"/><path class="cls-20" d="M340.49,161.8C177.58,377.4,144.12,659.74,240.21,902.65H202.94c-119.88-232.88-112-514.33,23.5-740.85H340.49"/><path class="cls-16" d="M444.29,173.92l-9.4,5.69H234.79l-9.4-5.68a744.5,744.5,0,0,1,109.45-139,744.76,744.76,0,0,1,109.45,139"/><path class="cls-21" d="M347.73,48.12c1.43,1.5,2.84,3,4.25,4.5l.23.24c-1.15-1.22-2.3-2.45-3.46-3.66l-1-1.08m-.56-.58.42.43-.42-.43m-79,63.72q-8.46,11.13-16.45,22.49a2.83,2.83,0,0,0-.2.28l-.43.6q-9.09,13-17.57,26.23l0,0q16.18-25.35,34.61-49.62"/><path class="cls-18" d="M334.85,34.93a754.94,754.94,0,0,0-66.71,76.33q-18.44,24.26-34.61,49.62l1.64.92H340.55a769.07,769.07,0,0,1,52.11-61.9q-6.54-8.31-13.38-16.49Q366.13,67.73,352,52.62c-1.41-1.5-2.82-3-4.25-4.5l-.14-.15-.42-.43q-6.07-6.36-12.32-12.61"/><polygon class="cls-19" points="438.19 985.78 231.48 985.78 210.81 903.09 458.87 903.09 438.19 985.78"/><path class="cls-16" d="M448.53,458.67A113.69,113.69,0,1,1,334.84,345,113.68,113.68,0,0,1,448.53,458.67"/><path class="cls-18" d="M253.7,390A97.07,97.07,0,0,0,347,552.54a97.07,97.07,0,0,1-.06-187.82,100.09,100.09,0,0,0-24.58-3.12A96.75,96.75,0,0,0,253.7,390"/><path class="cls-15" d="M449.52,194.18a20.62,20.62,0,0,1-14.62,6.06H226.33a20.67,20.67,0,0,1,0-41.34H434.9a20.67,20.67,0,0,1,14.62,35.28Z"/><path class="cls-15" d="M485.33,917.71a20.68,20.68,0,0,1-14.61,6H199a20.67,20.67,0,0,1-18.38-11.21c-124.45-241.72-110.86-534,35.46-762.82A771.35,771.35,0,0,1,320.24,20.32a20.65,20.65,0,0,1,29.23,0,751,751,0,0,1,59.44,66.81c106.38,134.27,165,302.94,165,474.88,0,121.82-29.32,243-84.81,350.56A20.65,20.65,0,0,1,485.33,917.71Zm-273.61-35.3H458A726.6,726.6,0,0,0,532.56,562c0-162.65-55.44-322.21-156.1-449.27-12.84-16.34-26.77-32.46-41.6-48.16A728.11,728.11,0,0,0,250.9,172C114.74,384.91,100.09,656,211.72,882.41Z"/><path class="cls-9" d="M349.46,442.28a20.61,20.61,0,0,1-14.62,6.05,10.35,10.35,0,0,0-10.34,10.34,20.67,20.67,0,0,1-41.34,0A51.73,51.73,0,0,1,334.84,407a20.68,20.68,0,0,1,14.62,35.29Z"/><polygon class="cls-20" points="249.83 909.59 268.85 986.09 237.46 986.04 218.02 907.73 249.83 909.59"/><path class="cls-15" d="M452.81,1000.36a20.62,20.62,0,0,1-14.62,6H231.52a20.67,20.67,0,0,1-20.05-15.65l-20.69-82.66a20.66,20.66,0,0,1,20.05-25.69h248a20.67,20.67,0,0,1,20.06,25.68l-20.68,82.67A20.69,20.69,0,0,1,452.81,1000.36ZM247.65,965.07H422.06l10.34-41.31H237.31Z"/><path class="cls-16" d="M334.84,717.05h0a39.33,39.33,0,0,0-39.28,41.29l17.58,351.49a21.73,21.73,0,0,0,43.4,0l17.58-351.49A39.33,39.33,0,0,0,334.84,717.05Z"/><path class="cls-15" d="M364.84,1138.73a42.41,42.41,0,0,1-72.35-27.86L274.92,759.38a60,60,0,0,1,59.92-63h0a60,60,0,0,1,59.93,63l-17.58,351.49A42.31,42.31,0,0,1,364.84,1138.73ZM321.65,743.18l-.33.35a18.51,18.51,0,0,0-5.11,13.78l17.57,351.49a1.07,1.07,0,0,0,1.07,1,1.05,1.05,0,0,0,1-1l17.57-351.5a18.65,18.65,0,0,0-18.63-19.59h0A18.56,18.56,0,0,0,321.65,743.18Z"/><path class="cls-15" d="M429.8,553.63a134.25,134.25,0,1,1,39.4-95A133.94,133.94,0,0,1,429.8,553.63ZM269.07,392.89a93,93,0,1,0,65.77-27.24A92.42,92.42,0,0,0,269.07,392.89Z"/></svg>